<svg xmlns="http://www.w3.org/2000/svg" viewBox="0 0 110 35" fill="none">
  <path d="M 322 53 L 323 53 L 323 56 L 322 56 L 322 58 L 321 58 L 321 55 L 322 55 Z M 321 58 L 321 61 L 320 61 L 320 64 L 319 64 L 319 67 L 318 67 L 318 63 L 319 63 L 319 60 L 320 60 L 320 58 Z M 318 67 L 318 70 L 317 70 L 317 72 L 316 72 L 316 69 L 317 69 L 317 67 Z M 631 68 L 644 68 L 644 75 L 643 75 L 643 78 L 642 78 L 642 80 L 641 80 L 641 81 L 640 81 L 640 83 L 639 83 L 639 84 L 638 84 L 638 85 L 637 85 L 637 86 L 636 86 L 636 87 L 635 87 L 635 88 L 634 88 L 634 89 L 632 89 L 632 90 L 630 90 L 630 91 L 628 91 L 628 92 L 626 92 L 626 93 L 650 93 L 650 94 L 639 94 L 639 166 L 640 166 L 640 170 L 641 170 L 641 173 L 642 173 L 642 175 L 643 175 L 643 176 L 644 176 L 644 177 L 645 177 L 645 178 L 646 178 L 646 180 L 641 180 L 641 179 L 636 179 L 636 178 L 634 178 L 634 177 L 632 177 L 632 176 L 631 176 L 631 175 L 630 175 L 630 174 L 629 174 L 629 172 L 628 172 L 628 170 L 627 170 L 627 166 L 626 166 L 626 160 L 625 160 L 625 94 L 615 94 L 615 93 L 618 93 L 618 92 L 621 92 L 621 91 L 623 91 L 623 90 L 624 90 L 624 89 L 625 89 L 625 88 L 626 88 L 626 87 L 627 87 L 627 85 L 628 85 L 628 83 L 629 83 L 629 80 L 630 80 L 630 73 L 631 73 Z M 316 72 L 316 74 L 315 74 L 315 72 Z M 315 74 L 315 77 L 314 77 L 314 74 Z M 314 77 L 314 80 L 313 80 L 313 77 Z M 313 80 L 313 83 L 312 83 L 312 86 L 311 86 L 311 88 L 310 88 L 310 85 L 311 85 L 311 82 L 312 82 L 312 80 Z M 310 88 L 310 91 L 309 91 L 309 88 Z M 172 90 L 176 90 L 176 91 L 182 91 L 182 92 L 184 92 L 184 93 L 186 93 L 186 94 L 188 94 L 188 95 L 189 95 L 189 96 L 190 96 L 190 97 L 192 97 L 192 99 L 193 99 L 193 100 L 194 100 L 194 101 L 195 101 L 195 103 L 196 103 L 196 105 L 197 105 L 197 108 L 198 108 L 198 121 L 197 121 L 197 123 L 196 123 L 196 126 L 195 126 L 195 127 L 194 127 L 194 129 L 193 129 L 193 130 L 192 130 L 192 131 L 191 131 L 191 133 L 190 133 L 190 134 L 189 134 L 189 135 L 188 135 L 188 136 L 187 136 L 187 137 L 186 137 L 186 138 L 184 138 L 184 139 L 183 139 L 183 140 L 182 140 L 182 141 L 181 141 L 181 142 L 180 142 L 180 143 L 178 143 L 178 144 L 177 144 L 177 145 L 176 145 L 176 146 L 174 146 L 174 147 L 173 147 L 173 148 L 171 148 L 171 149 L 170 149 L 170 150 L 169 150 L 169 151 L 167 151 L 167 152 L 166 152 L 166 153 L 165 153 L 165 154 L 163 154 L 163 155 L 162 155 L 162 156 L 161 156 L 161 157 L 160 157 L 160 158 L 159 158 L 159 159 L 158 159 L 158 160 L 157 160 L 157 161 L 156 161 L 156 162 L 155 162 L 155 163 L 154 163 L 154 165 L 153 165 L 153 166 L 152 166 L 152 169 L 151 169 L 151 173 L 193 173 L 193 172 L 196 172 L 196 170 L 198 170 L 198 179 L 197 179 L 197 180 L 150 180 L 150 179 L 149 179 L 149 170 L 150 170 L 150 167 L 151 167 L 151 165 L 152 165 L 152 163 L 153 163 L 153 162 L 154 162 L 154 160 L 155 160 L 155 159 L 156 159 L 156 158 L 157 158 L 157 157 L 158 157 L 158 156 L 159 156 L 159 155 L 160 155 L 160 154 L 161 154 L 161 153 L 162 153 L 162 152 L 163 152 L 163 151 L 164 151 L 164 150 L 166 150 L 166 149 L 167 149 L 167 148 L 168 148 L 168 147 L 169 147 L 169 146 L 170 146 L 170 145 L 171 145 L 171 144 L 173 144 L 173 143 L 174 143 L 174 142 L 175 142 L 175 141 L 176 141 L 176 140 L 177 140 L 177 139 L 178 139 L 178 138 L 179 138 L 179 137 L 180 137 L 180 136 L 181 136 L 181 135 L 182 135 L 182 134 L 183 134 L 183 132 L 184 132 L 184 131 L 185 131 L 185 130 L 186 130 L 186 128 L 187 128 L 187 126 L 188 126 L 188 125 L 189 125 L 189 122 L 190 122 L 190 118 L 191 118 L 191 110 L 190 110 L 190 105 L 189 105 L 189 102 L 188 102 L 188 100 L 187 100 L 187 99 L 186 99 L 186 97 L 185 97 L 185 96 L 184 96 L 184 95 L 182 95 L 182 94 L 181 94 L 181 93 L 178 93 L 178 92 L 169 92 L 169 93 L 166 93 L 166 94 L 165 94 L 165 95 L 163 95 L 163 96 L 162 96 L 162 97 L 161 97 L 161 98 L 160 98 L 160 100 L 159 100 L 159 103 L 158 103 L 158 107 L 157 107 L 157 114 L 156 114 L 156 115 L 155 115 L 155 116 L 154 116 L 154 117 L 150 117 L 150 116 L 149 116 L 149 115 L 148 115 L 148 113 L 147 113 L 147 109 L 148 109 L 148 105 L 149 105 L 149 103 L 150 103 L 150 102 L 151 102 L 151 100 L 152 100 L 152 99 L 153 99 L 153 98 L 154 98 L 154 97 L 156 97 L 156 96 L 157 96 L 157 95 L 159 95 L 159 94 L 160 94 L 160 93 L 163 93 L 163 92 L 165 92 L 165 91 L 172 91 Z M 309 91 L 309 94 L 308 94 L 308 96 L 307 96 L 307 93 L 308 93 L 308 91 Z M 243 91 L 248 91 L 248 92 L 249 92 L 249 153 L 260 153 L 260 152 L 261 152 L 261 151 L 262 151 L 262 155 L 249 155 L 249 176 L 250 176 L 250 178 L 252 178 L 252 180 L 240 180 L 240 179 L 239 179 L 239 178 L 241 178 L 241 176 L 242 176 L 242 155 L 206 155 L 206 153 L 207 153 L 207 151 L 208 151 L 208 150 L 209 150 L 209 148 L 210 148 L 210 146 L 211 146 L 211 145 L 212 145 L 212 143 L 213 143 L 213 141 L 214 141 L 214 140 L 215 140 L 215 138 L 216 138 L 216 136 L 217 136 L 217 134 L 218 134 L 218 133 L 219 133 L 219 131 L 220 131 L 220 129 L 221 129 L 221 127 L 222 127 L 222 126 L 223 126 L 223 124 L 224 124 L 224 122 L 225 122 L 225 121 L 226 121 L 226 119 L 227 119 L 227 117 L 228 117 L 228 116 L 229 116 L 229 114 L 230 114 L 230 112 L 231 112 L 231 110 L 232 110 L 232 108 L 233 108 L 233 107 L 234 107 L 234 105 L 235 105 L 235 103 L 236 103 L 236 102 L 237 102 L 237 100 L 238 100 L 238 98 L 239 98 L 239 96 L 240 96 L 240 95 L 241 95 L 241 93 L 242 93 L 242 92 L 243 92 Z M 359 93 L 375 93 L 375 94 L 379 94 L 379 95 L 381 95 L 381 96 L 383 96 L 383 97 L 385 97 L 385 98 L 387 98 L 387 99 L 389 99 L 389 100 L 390 100 L 390 101 L 391 101 L 391 102 L 392 102 L 392 103 L 393 103 L 393 104 L 394 104 L 394 105 L 395 105 L 395 106 L 396 106 L 396 107 L 397 107 L 397 108 L 398 108 L 398 109 L 399 109 L 399 111 L 400 111 L 400 112 L 401 112 L 401 114 L 402 114 L 402 115 L 403 115 L 403 117 L 404 117 L 404 119 L 403 119 L 403 118 L 402 118 L 402 116 L 401 116 L 401 115 L 400 115 L 400 113 L 399 113 L 399 112 L 398 112 L 398 110 L 397 110 L 397 109 L 396 109 L 396 108 L 395 108 L 395 107 L 394 107 L 394 106 L 393 106 L 393 105 L 392 105 L 392 104 L 391 104 L 391 103 L 390 103 L 390 102 L 389 102 L 389 101 L 387 101 L 387 100 L 386 100 L 386 99 L 384 99 L 384 98 L 382 98 L 382 97 L 380 97 L 380 96 L 377 96 L 377 95 L 363 95 L 363 96 L 360 96 L 360 97 L 358 97 L 358 98 L 356 98 L 356 99 L 354 99 L 354 100 L 353 100 L 353 101 L 351 101 L 351 102 L 350 102 L 350 103 L 349 103 L 349 104 L 348 104 L 348 105 L 347 105 L 347 106 L 346 106 L 346 107 L 345 107 L 345 109 L 344 109 L 344 110 L 343 110 L 343 112 L 342 112 L 342 114 L 341 114 L 341 116 L 340 116 L 340 119 L 339 119 L 339 122 L 338 122 L 338 127 L 337 127 L 337 142 L 338 142 L 338 146 L 339 146 L 339 150 L 340 150 L 340 153 L 341 153 L 341 155 L 342 155 L 342 157 L 343 157 L 343 159 L 344 159 L 344 161 L 345 161 L 345 162 L 346 162 L 346 164 L 347 164 L 347 165 L 348 165 L 348 166 L 349 166 L 349 167 L 350 167 L 350 168 L 351 168 L 351 169 L 352 169 L 352 170 L 353 170 L 353 171 L 354 171 L 354 172 L 356 172 L 356 173 L 357 173 L 357 174 L 359 174 L 359 175 L 361 175 L 361 176 L 363 176 L 363 177 L 366 177 L 366 178 L 380 178 L 380 177 L 384 177 L 384 176 L 386 176 L 386 175 L 388 175 L 388 174 L 389 174 L 389 173 L 391 173 L 391 172 L 392 172 L 392 171 L 393 171 L 393 170 L 394 170 L 394 169 L 396 169 L 396 168 L 397 168 L 397 166 L 398 166 L 398 165 L 399 165 L 399 164 L 400 164 L 400 163 L 401 163 L 401 161 L 402 161 L 402 160 L 403 160 L 403 159 L 404 159 L 404 157 L 405 157 L 405 155 L 406 155 L 406 157 L 405 157 L 405 159 L 404 159 L 404 161 L 403 161 L 403 162 L 402 162 L 402 164 L 401 164 L 401 165 L 400 165 L 400 166 L 399 166 L 399 167 L 398 167 L 398 168 L 397 168 L 397 169 L 396 169 L 396 170 L 395 170 L 395 171 L 394 171 L 394 172 L 393 172 L 393 173 L 392 173 L 392 174 L 390 174 L 390 175 L 388 175 L 388 176 L 387 176 L 387 177 L 385 177 L 385 178 L 382 178 L 382 179 L 379 179 L 379 180 L 373 180 L 373 181 L 363 181 L 363 180 L 357 180 L 357 179 L 353 179 L 353 178 L 350 178 L 350 177 L 348 177 L 348 176 L 346 176 L 346 175 L 344 175 L 344 174 L 343 174 L 343 173 L 341 173 L 341 172 L 340 172 L 340 171 L 339 171 L 339 170 L 338 170 L 338 169 L 337 169 L 337 168 L 336 168 L 336 167 L 335 167 L 335 166 L 334 166 L 334 165 L 333 165 L 333 164 L 332 164 L 332 162 L 331 162 L 331 161 L 330 161 L 330 159 L 329 159 L 329 157 L 328 157 L 328 155 L 327 155 L 327 153 L 326 153 L 326 149 L 325 149 L 325 144 L 324 144 L 324 128 L 325 128 L 325 123 L 326 123 L 326 120 L 327 120 L 327 118 L 328 118 L 328 116 L 329 116 L 329 114 L 330 114 L 330 113 L 331 113 L 331 111 L 332 111 L 332 110 L 333 110 L 333 109 L 334 109 L 334 108 L 335 108 L 335 107 L 336 107 L 336 106 L 337 106 L 337 105 L 338 105 L 338 104 L 339 104 L 339 103 L 340 103 L 340 102 L 341 102 L 341 101 L 343 101 L 343 100 L 344 100 L 344 99 L 346 99 L 346 98 L 348 98 L 348 97 L 350 97 L 350 96 L 352 96 L 352 95 L 355 95 L 355 94 L 359 94 Z M 451 93 L 465 93 L 465 94 L 469 94 L 469 95 L 471 95 L 471 96 L 474 96 L 474 97 L 475 97 L 475 98 L 477 98 L 477 99 L 478 99 L 478 100 L 479 100 L 479 101 L 480 101 L 480 102 L 481 102 L 481 103 L 482 103 L 482 105 L 483 105 L 483 107 L 484 107 L 484 109 L 485 109 L 485 111 L 486 111 L 486 115 L 487 115 L 487 156 L 488 156 L 488 155 L 489 155 L 489 154 L 490 154 L 490 153 L 491 153 L 491 151 L 492 151 L 492 150 L 493 150 L 493 149 L 494 149 L 494 147 L 495 147 L 495 146 L 496 146 L 496 145 L 497 145 L 497 143 L 498 143 L 498 142 L 499 142 L 499 140 L 500 140 L 500 93 L 514 93 L 514 111 L 515 111 L 515 109 L 516 109 L 516 106 L 517 106 L 517 105 L 518 105 L 518 103 L 519 103 L 519 101 L 520 101 L 520 100 L 521 100 L 521 98 L 522 98 L 522 97 L 523 97 L 523 96 L 524 96 L 524 95 L 526 95 L 526 94 L 528 94 L 528 93 L 540 93 L 540 94 L 543 94 L 543 95 L 545 95 L 545 96 L 547 96 L 547 97 L 548 97 L 548 98 L 549 98 L 549 99 L 550 99 L 550 100 L 551 100 L 551 101 L 552 101 L 552 102 L 553 102 L 553 103 L 554 103 L 554 104 L 553 104 L 553 106 L 552 106 L 552 107 L 551 107 L 551 109 L 550 109 L 550 110 L 549 110 L 549 112 L 548 112 L 548 113 L 547 113 L 547 115 L 546 115 L 546 116 L 545 116 L 545 113 L 544 113 L 544 110 L 543 110 L 543 108 L 542 108 L 542 106 L 541 106 L 541 104 L 540 104 L 540 103 L 539 103 L 539 102 L 538 102 L 538 100 L 537 100 L 537 99 L 535 99 L 535 98 L 534 98 L 534 97 L 532 97 L 532 96 L 526 96 L 526 97 L 524 97 L 524 98 L 523 98 L 523 99 L 522 99 L 522 101 L 521 101 L 521 102 L 520 102 L 520 104 L 519 104 L 519 105 L 518 105 L 518 108 L 517 108 L 517 110 L 516 110 L 516 112 L 515 112 L 515 115 L 514 115 L 514 180 L 501 180 L 501 179 L 500 179 L 500 143 L 499 143 L 499 144 L 498 144 L 498 146 L 497 146 L 497 147 L 496 147 L 496 148 L 495 148 L 495 150 L 494 150 L 494 151 L 493 151 L 493 152 L 492 152 L 492 154 L 491 154 L 491 155 L 490 155 L 490 156 L 489 156 L 489 157 L 488 157 L 488 158 L 487 158 L 487 180 L 474 180 L 474 179 L 473 179 L 473 170 L 472 170 L 472 171 L 471 171 L 471 172 L 469 172 L 469 173 L 467 173 L 467 174 L 465 174 L 465 175 L 463 175 L 463 176 L 461 176 L 461 177 L 458 177 L 458 178 L 455 178 L 455 179 L 452 179 L 452 180 L 446 180 L 446 181 L 437 181 L 437 180 L 432 180 L 432 179 L 429 179 L 429 178 L 427 178 L 427 177 L 425 177 L 425 176 L 424 176 L 424 175 L 422 175 L 422 174 L 421 174 L 421 173 L 420 173 L 420 172 L 419 172 L 419 170 L 418 170 L 418 169 L 417 169 L 417 167 L 416 167 L 416 165 L 415 165 L 415 161 L 414 161 L 414 148 L 415 148 L 415 145 L 416 145 L 416 143 L 417 143 L 417 141 L 418 141 L 418 139 L 419 139 L 419 138 L 420 138 L 420 136 L 421 136 L 421 135 L 422 135 L 422 134 L 423 134 L 423 133 L 424 133 L 424 132 L 425 132 L 425 131 L 426 131 L 426 130 L 428 130 L 428 129 L 429 129 L 429 128 L 431 128 L 431 127 L 433 127 L 433 126 L 435 126 L 435 124 L 434 124 L 434 118 L 433 118 L 433 115 L 434 115 L 434 109 L 435 109 L 435 106 L 436 106 L 436 104 L 437 104 L 437 103 L 438 103 L 438 102 L 439 102 L 439 100 L 440 100 L 440 99 L 441 99 L 441 98 L 443 98 L 443 97 L 444 97 L 444 96 L 446 96 L 446 95 L 448 95 L 448 94 L 451 94 Z M 574 93 L 589 93 L 589 94 L 592 94 L 592 95 L 595 95 L 595 96 L 597 96 L 597 97 L 599 97 L 599 98 L 600 98 L 600 99 L 601 99 L 601 100 L 602 100 L 602 101 L 603 101 L 603 102 L 604 102 L 604 103 L 605 103 L 605 104 L 606 104 L 606 106 L 607 106 L 607 108 L 608 108 L 608 110 L 609 110 L 609 114 L 610 114 L 610 124 L 611 124 L 611 179 L 610 179 L 610 180 L 597 180 L 597 123 L 595 123 L 595 122 L 590 122 L 590 121 L 583 121 L 583 122 L 576 122 L 576 123 L 571 123 L 571 124 L 569 124 L 569 125 L 567 125 L 567 126 L 565 126 L 565 127 L 563 127 L 563 128 L 561 128 L 561 130 L 562 130 L 562 132 L 561 132 L 561 131 L 560 131 L 560 130 L 559 130 L 559 131 L 558 131 L 558 132 L 557 132 L 557 133 L 556 133 L 556 134 L 555 134 L 555 135 L 554 135 L 554 137 L 553 137 L 553 139 L 552 139 L 552 142 L 551 142 L 551 146 L 550 146 L 550 159 L 551 159 L 551 164 L 552 164 L 552 167 L 553 167 L 553 169 L 554 169 L 554 171 L 555 171 L 555 172 L 556 172 L 556 173 L 557 173 L 557 174 L 558 174 L 558 175 L 560 175 L 560 176 L 562 176 L 562 177 L 564 177 L 564 178 L 574 178 L 574 177 L 576 177 L 576 176 L 578 176 L 578 175 L 579 175 L 579 174 L 581 174 L 581 173 L 582 173 L 582 171 L 583 171 L 583 170 L 584 170 L 584 169 L 585 169 L 585 167 L 586 167 L 586 164 L 587 164 L 587 154 L 586 154 L 586 152 L 585 152 L 585 150 L 584 150 L 584 149 L 583 149 L 583 148 L 582 148 L 582 147 L 581 147 L 581 146 L 579 146 L 579 145 L 578 145 L 578 144 L 576 144 L 576 143 L 574 143 L 574 142 L 572 142 L 572 141 L 570 141 L 570 140 L 569 140 L 569 139 L 567 139 L 567 138 L 566 138 L 566 137 L 565 137 L 565 136 L 564 136 L 564 135 L 563 135 L 563 134 L 562 134 L 562 132 L 563 132 L 563 133 L 564 133 L 564 134 L 565 134 L 565 135 L 566 135 L 566 136 L 567 136 L 567 137 L 568 137 L 568 138 L 569 138 L 569 139 L 571 139 L 571 140 L 573 140 L 573 141 L 575 141 L 575 142 L 577 142 L 577 143 L 579 143 L 579 144 L 580 144 L 580 145 L 582 145 L 582 146 L 583 146 L 583 147 L 584 147 L 584 148 L 585 148 L 585 150 L 586 150 L 586 151 L 587 151 L 587 154 L 588 154 L 588 159 L 589 159 L 589 161 L 588 161 L 588 167 L 587 167 L 587 169 L 586 169 L 586 171 L 585 171 L 585 172 L 584 172 L 584 173 L 583 173 L 583 174 L 582 174 L 582 175 L 581 175 L 581 176 L 580 176 L 580 177 L 579 177 L 579 178 L 578 178 L 578 179 L 575 179 L 575 180 L 569 180 L 569 181 L 562 181 L 562 180 L 556 180 L 556 179 L 552 179 L 552 178 L 550 178 L 550 177 L 549 177 L 549 176 L 547 176 L 547 175 L 546 175 L 546 174 L 544 174 L 544 173 L 543 173 L 543 171 L 542 171 L 542 170 L 541 170 L 541 168 L 540 168 L 540 167 L 539 167 L 539 164 L 538 164 L 538 158 L 537 158 L 537 152 L 538 152 L 538 146 L 539 146 L 539 143 L 540 143 L 540 141 L 541 141 L 541 139 L 542 139 L 542 138 L 543 138 L 543 136 L 544 136 L 544 135 L 545 135 L 545 134 L 546 134 L 546 133 L 547 133 L 547 132 L 548 132 L 548 131 L 550 131 L 550 130 L 551 130 L 551 129 L 553 129 L 553 128 L 554 128 L 554 127 L 557 127 L 557 126 L 558 126 L 558 123 L 557 123 L 557 110 L 558 110 L 558 107 L 559 107 L 559 105 L 560 105 L 560 103 L 561 103 L 561 102 L 562 102 L 562 101 L 563 101 L 563 100 L 564 100 L 564 99 L 565 99 L 565 98 L 566 98 L 566 97 L 567 97 L 567 96 L 569 96 L 569 95 L 571 95 L 571 94 L 574 94 Z M 450 95 L 450 96 L 447 96 L 447 97 L 445 97 L 445 98 L 444 98 L 444 99 L 442 99 L 442 100 L 441 100 L 441 101 L 440 101 L 440 103 L 439 103 L 439 104 L 438 104 L 438 106 L 437 106 L 437 108 L 436 108 L 436 111 L 435 111 L 435 123 L 436 123 L 436 125 L 438 125 L 438 124 L 441 124 L 441 123 L 444 123 L 444 122 L 448 122 L 448 121 L 454 121 L 454 120 L 470 120 L 470 121 L 474 121 L 474 120 L 473 120 L 473 111 L 472 111 L 472 107 L 471 107 L 471 104 L 470 104 L 470 102 L 469 102 L 469 101 L 468 101 L 468 100 L 467 100 L 467 99 L 466 99 L 466 98 L 465 98 L 465 97 L 464 97 L 464 96 L 462 96 L 462 95 Z M 573 95 L 573 96 L 570 96 L 570 97 L 569 97 L 569 98 L 567 98 L 567 99 L 566 99 L 566 100 L 565 100 L 565 101 L 564 101 L 564 102 L 563 102 L 563 103 L 562 103 L 562 105 L 561 105 L 561 106 L 560 106 L 560 109 L 559 109 L 559 113 L 558 113 L 558 122 L 559 122 L 559 125 L 561 125 L 561 124 L 564 124 L 564 123 L 567 123 L 567 122 L 571 122 L 571 121 L 577 121 L 577 120 L 593 120 L 593 121 L 597 121 L 597 114 L 596 114 L 596 109 L 595 109 L 595 106 L 594 106 L 594 104 L 593 104 L 593 102 L 592 102 L 592 100 L 591 100 L 591 99 L 590 99 L 590 98 L 589 98 L 589 97 L 588 97 L 588 96 L 586 96 L 586 95 Z M 242 96 L 241 96 L 241 98 L 240 98 L 240 100 L 239 100 L 239 101 L 238 101 L 238 103 L 237 103 L 237 105 L 236 105 L 236 106 L 235 106 L 235 108 L 234 108 L 234 110 L 233 110 L 233 112 L 232 112 L 232 113 L 231 113 L 231 115 L 230 115 L 230 117 L 229 117 L 229 118 L 228 118 L 228 120 L 227 120 L 227 122 L 226 122 L 226 124 L 225 124 L 225 125 L 224 125 L 224 127 L 223 127 L 223 129 L 222 129 L 222 130 L 221 130 L 221 132 L 220 132 L 220 134 L 219 134 L 219 135 L 218 135 L 218 137 L 217 137 L 217 139 L 216 139 L 216 141 L 215 141 L 215 142 L 214 142 L 214 144 L 213 144 L 213 146 L 212 146 L 212 148 L 211 148 L 211 149 L 210 149 L 210 151 L 209 151 L 209 153 L 242 153 Z M 307 96 L 307 99 L 306 99 L 306 102 L 305 102 L 305 105 L 304 105 L 304 107 L 303 107 L 303 110 L 302 110 L 302 112 L 301 112 L 301 109 L 302 109 L 302 106 L 303 106 L 303 104 L 304 104 L 304 101 L 305 101 L 305 98 L 306 98 L 306 96 Z M 301 112 L 301 115 L 300 115 L 300 118 L 299 118 L 299 120 L 298 120 L 298 117 L 299 117 L 299 114 L 300 114 L 300 112 Z M 298 120 L 298 123 L 297 123 L 297 126 L 296 126 L 296 122 L 297 122 L 297 120 Z M 459 121 L 459 122 L 453 122 L 453 123 L 448 123 L 448 124 L 445 124 L 445 125 L 443 125 L 443 126 L 441 126 L 441 127 L 440 127 L 440 128 L 438 128 L 438 129 L 437 129 L 437 130 L 436 130 L 436 131 L 434 131 L 434 132 L 433 132 L 433 134 L 432 134 L 432 135 L 431 135 L 431 136 L 430 136 L 430 138 L 429 138 L 429 141 L 428 141 L 428 144 L 427 144 L 427 151 L 426 151 L 426 152 L 427 152 L 427 161 L 428 161 L 428 165 L 429 165 L 429 168 L 430 168 L 430 169 L 431 169 L 431 171 L 432 171 L 432 172 L 433 172 L 433 173 L 434 173 L 434 174 L 435 174 L 435 175 L 437 175 L 437 176 L 439 176 L 439 177 L 442 177 L 442 178 L 451 178 L 451 177 L 456 177 L 456 176 L 458 176 L 458 175 L 461 175 L 461 174 L 464 174 L 464 173 L 466 173 L 466 172 L 468 172 L 468 171 L 470 171 L 470 170 L 471 170 L 471 169 L 473 169 L 473 123 L 472 123 L 472 122 L 466 122 L 466 121 Z M 296 126 L 296 129 L 295 129 L 295 131 L 294 131 L 294 128 L 295 128 L 295 126 Z M 294 131 L 294 134 L 293 134 L 293 136 L 292 136 L 292 133 L 293 133 L 293 131 Z M 292 136 L 292 139 L 291 139 L 291 136 Z M 291 139 L 291 142 L 290 142 L 290 145 L 289 145 L 289 148 L 288 148 L 288 150 L 287 150 L 287 147 L 288 147 L 288 144 L 289 144 L 289 141 L 290 141 L 290 139 Z M 287 150 L 287 153 L 286 153 L 286 155 L 285 155 L 285 152 L 286 152 L 286 150 Z M 285 155 L 285 158 L 284 158 L 284 161 L 283 161 L 283 164 L 282 164 L 282 166 L 281 166 L 281 163 L 282 163 L 282 160 L 283 160 L 283 157 L 284 157 L 284 155 Z M 281 166 L 281 169 L 280 169 L 280 171 L 279 171 L 279 168 L 280 168 L 280 166 Z M 279 171 L 279 174 L 278 174 L 278 177 L 277 177 L 277 179 L 276 179 L 276 176 L 277 176 L 277 173 L 278 173 L 278 171 Z M 276 179 L 276 182 L 275 182 L 275 185 L 274 185 L 274 181 L 275 181 L 275 179 Z M 274 185 L 274 187 L 273 187 L 273 185 Z M 273 187 L 273 190 L 272 190 L 272 187 Z M 272 190 L 272 193 L 271 193 L 271 190 Z M 271 193 L 271 195 L 270 195 L 270 193 Z M 270 195 L 270 199 L 269 199 L 269 201 L 268 201 L 268 204 L 267 204 L 267 207 L 266 207 L 266 209 L 265 209 L 265 206 L 266 206 L 266 203 L 267 203 L 267 200 L 268 200 L 268 197 L 269 197 L 269 195 Z M 265 209 L 265 212 L 264 212 L 264 214 L 263 214 L 263 211 L 264 211 L 264 209 Z M 263 214 L 263 216 L 262 216 L 262 214 Z M 262 216 L 262 220 L 261 220 L 261 223 L 259 223 L 259 222 L 260 222 L 260 219 L 261 219 L 261 216 Z M 304 240 L 312 240 L 312 241 L 314 241 L 314 242 L 315 242 L 315 243 L 316 243 L 316 247 L 315 247 L 315 248 L 313 248 L 313 249 L 310 249 L 310 250 L 311 250 L 311 252 L 312 252 L 312 253 L 313 253 L 313 254 L 314 254 L 314 256 L 315 256 L 315 257 L 316 257 L 316 258 L 313 258 L 313 257 L 312 257 L 312 256 L 311 256 L 311 255 L 310 255 L 310 253 L 309 253 L 309 252 L 308 252 L 308 251 L 307 251 L 307 250 L 306 250 L 306 258 L 303 258 L 303 241 L 304 241 Z M 306 241 L 306 248 L 311 248 L 311 247 L 313 247 L 313 243 L 312 243 L 312 242 L 310 242 L 310 241 Z M 325 240 L 334 240 L 334 241 L 328 241 L 328 242 L 327 242 L 327 248 L 333 248 L 333 249 L 328 249 L 328 250 L 327 250 L 327 256 L 334 256 L 334 257 L 335 257 L 335 258 L 325 258 Z M 346 240 L 351 240 L 351 241 L 352 241 L 352 242 L 350 242 L 350 241 L 347 241 L 347 242 L 346 242 L 346 243 L 345 243 L 345 244 L 346 244 L 346 246 L 348 246 L 348 247 L 349 247 L 349 248 L 351 248 L 351 249 L 352 249 L 352 250 L 354 250 L 354 252 L 355 252 L 355 254 L 354 254 L 354 256 L 353 256 L 353 257 L 352 257 L 352 258 L 346 258 L 346 257 L 344 257 L 344 256 L 343 256 L 343 254 L 342 254 L 342 253 L 343 253 L 343 254 L 344 254 L 344 255 L 345 255 L 345 256 L 347 256 L 347 257 L 350 257 L 350 256 L 352 256 L 352 253 L 351 253 L 351 252 L 350 252 L 350 251 L 349 251 L 349 250 L 347 250 L 347 249 L 345 249 L 345 248 L 344 248 L 344 246 L 343 246 L 343 242 L 344 242 L 344 241 L 346 241 Z M 362 240 L 377 240 L 377 241 L 372 241 L 372 242 L 371 242 L 371 258 L 369 258 L 369 257 L 368 257 L 368 241 L 362 241 Z M 390 240 L 398 240 L 398 241 L 400 241 L 400 242 L 401 242 L 401 243 L 402 243 L 402 244 L 403 244 L 403 247 L 404 247 L 404 250 L 403 250 L 403 253 L 402 253 L 402 255 L 401 255 L 401 256 L 400 256 L 400 257 L 398 257 L 398 258 L 391 258 L 391 257 L 389 257 L 389 256 L 388 256 L 388 255 L 387 255 L 387 254 L 386 254 L 386 252 L 385 252 L 385 246 L 386 246 L 386 244 L 387 244 L 387 243 L 388 243 L 388 242 L 389 242 L 389 241 L 390 241 Z M 392 241 L 392 242 L 390 242 L 390 243 L 389 243 L 389 245 L 388 245 L 388 252 L 389 252 L 389 254 L 390 254 L 390 255 L 391 255 L 391 256 L 393 256 L 393 257 L 397 257 L 397 256 L 398 256 L 398 255 L 399 255 L 399 254 L 400 254 L 400 245 L 399 245 L 399 243 L 398 243 L 398 242 L 397 242 L 397 241 Z M 452 240 L 459 240 L 459 241 L 462 241 L 462 242 L 463 242 L 463 244 L 464 244 L 464 245 L 463 245 L 463 247 L 462 247 L 462 249 L 463 249 L 463 250 L 464 250 L 464 252 L 465 252 L 465 254 L 464 254 L 464 256 L 463 256 L 463 257 L 460 257 L 460 258 L 452 258 L 452 257 L 451 257 L 451 241 L 452 241 Z M 454 241 L 454 248 L 458 248 L 458 247 L 460 247 L 460 246 L 461 246 L 461 244 L 460 244 L 460 242 L 457 242 L 457 241 Z M 479 240 L 481 240 L 481 241 L 482 241 L 482 245 L 483 245 L 483 247 L 484 247 L 484 250 L 485 250 L 485 253 L 486 253 L 486 256 L 487 256 L 487 258 L 484 258 L 484 256 L 483 256 L 483 253 L 482 253 L 482 251 L 481 251 L 481 250 L 480 250 L 480 251 L 479 251 L 479 250 L 478 250 L 478 251 L 476 251 L 476 253 L 475 253 L 475 255 L 474 255 L 474 258 L 472 258 L 472 256 L 473 256 L 473 254 L 474 254 L 474 251 L 475 251 L 475 248 L 476 248 L 476 246 L 477 246 L 477 243 L 478 243 L 478 241 L 479 241 Z M 496 240 L 504 240 L 504 241 L 507 241 L 507 242 L 508 242 L 508 247 L 507 247 L 507 248 L 506 248 L 506 249 L 502 249 L 502 250 L 503 250 L 503 251 L 504 251 L 504 253 L 505 253 L 505 254 L 506 254 L 506 255 L 507 255 L 507 256 L 508 256 L 508 257 L 509 257 L 509 258 L 505 258 L 505 257 L 504 257 L 504 256 L 503 256 L 503 254 L 502 254 L 502 253 L 501 253 L 501 252 L 500 252 L 500 251 L 499 251 L 499 250 L 498 250 L 498 258 L 496 258 L 496 257 L 495 257 L 495 241 L 496 241 Z M 499 241 L 499 242 L 498 242 L 498 248 L 504 248 L 504 247 L 505 247 L 505 243 L 504 243 L 504 242 L 502 242 L 502 241 Z M 352 242 L 353 242 L 353 243 L 352 243 Z M 353 243 L 354 243 L 354 244 L 353 244 Z M 478 244 L 478 246 L 477 246 L 477 249 L 481 249 L 481 248 L 480 248 L 480 244 Z M 454 249 L 454 256 L 461 256 L 461 254 L 462 254 L 462 252 L 461 252 L 461 250 L 460 250 L 460 249 Z M 316 258 L 317 258 L 317 259 L 316 259 Z" fill="currentColor" transform="translate(12.764, 0.500) scale(0.10559)" />
</svg>