<svg xmlns="http://www.w3.org/2000/svg" viewBox="0 0 140 35" fill="none">
  <path d="M 396 185 L 403 185 L 403 186 L 404 186 L 404 189 L 405 189 L 405 192 L 406 192 L 406 194 L 407 194 L 407 197 L 408 197 L 408 200 L 409 200 L 409 202 L 410 202 L 410 205 L 411 205 L 411 208 L 412 208 L 412 211 L 413 211 L 413 214 L 414 214 L 414 216 L 415 216 L 415 217 L 418 217 L 418 219 L 416 219 L 416 220 L 402 220 L 402 219 L 401 219 L 401 218 L 402 218 L 402 217 L 405 217 L 405 216 L 406 216 L 406 214 L 405 214 L 405 212 L 404 212 L 404 209 L 392 209 L 392 210 L 391 210 L 391 213 L 390 213 L 390 216 L 391 216 L 391 217 L 394 217 L 394 218 L 395 218 L 395 219 L 394 219 L 394 220 L 382 220 L 382 219 L 381 219 L 381 218 L 382 218 L 382 217 L 384 217 L 384 216 L 385 216 L 385 215 L 386 215 L 386 212 L 387 212 L 387 209 L 388 209 L 388 206 L 389 206 L 389 203 L 390 203 L 390 200 L 391 200 L 391 197 L 392 197 L 392 194 L 393 194 L 393 192 L 394 192 L 394 189 L 395 189 L 395 186 L 396 186 Z M 443 189 L 447 189 L 447 190 L 450 190 L 450 191 L 454 191 L 454 192 L 458 192 L 458 193 L 461 193 L 461 194 L 464 194 L 464 195 L 466 195 L 466 196 L 467 196 L 467 198 L 468 198 L 468 199 L 469 199 L 469 205 L 468 205 L 468 207 L 467 207 L 467 209 L 466 209 L 466 210 L 465 210 L 465 211 L 463 211 L 463 212 L 460 212 L 460 214 L 461 214 L 461 217 L 462 217 L 462 221 L 463 221 L 463 225 L 464 225 L 464 227 L 465 227 L 465 228 L 467 228 L 467 230 L 462 230 L 462 229 L 460 229 L 460 228 L 458 228 L 458 227 L 457 227 L 457 226 L 456 226 L 456 223 L 455 223 L 455 219 L 454 219 L 454 216 L 453 216 L 453 212 L 452 212 L 452 211 L 450 211 L 450 213 L 449 213 L 449 217 L 448 217 L 448 223 L 450 223 L 450 224 L 451 224 L 451 226 L 447 226 L 447 225 L 444 225 L 444 224 L 440 224 L 440 223 L 436 223 L 436 222 L 434 222 L 434 220 L 439 220 L 439 219 L 440 219 L 440 215 L 441 215 L 441 211 L 442 211 L 442 208 L 443 208 L 443 204 L 444 204 L 444 201 L 445 201 L 445 197 L 446 197 L 446 192 L 443 192 Z M 397 192 L 397 195 L 396 195 L 396 199 L 395 199 L 395 201 L 394 201 L 394 204 L 393 204 L 393 205 L 402 205 L 402 202 L 401 202 L 401 199 L 400 199 L 400 196 L 399 196 L 399 192 Z M 345 192 L 352 192 L 352 193 L 354 193 L 354 194 L 356 194 L 356 195 L 357 195 L 357 196 L 358 196 L 358 198 L 359 198 L 359 206 L 358 206 L 358 208 L 357 208 L 357 209 L 356 209 L 356 210 L 355 210 L 355 211 L 354 211 L 354 212 L 352 212 L 352 213 L 349 213 L 349 214 L 347 214 L 347 219 L 348 219 L 348 222 L 349 222 L 349 223 L 354 223 L 354 224 L 355 224 L 355 225 L 354 225 L 354 226 L 351 226 L 351 227 L 348 227 L 348 228 L 345 228 L 345 229 L 341 229 L 341 230 L 337 230 L 337 227 L 340 227 L 340 226 L 341 226 L 341 223 L 340 223 L 340 220 L 339 220 L 339 217 L 338 217 L 338 213 L 337 213 L 337 209 L 336 209 L 336 206 L 335 206 L 335 201 L 334 201 L 334 199 L 329 199 L 329 196 L 332 196 L 332 195 L 336 195 L 336 194 L 341 194 L 341 193 L 345 193 Z M 454 195 L 454 197 L 453 197 L 453 203 L 452 203 L 452 207 L 451 207 L 451 208 L 454 208 L 454 209 L 456 209 L 456 208 L 458 208 L 458 207 L 459 207 L 459 206 L 460 206 L 460 203 L 461 203 L 461 198 L 460 198 L 460 197 L 459 197 L 459 196 L 457 196 L 457 195 Z M 342 196 L 342 197 L 341 197 L 341 198 L 342 198 L 342 201 L 343 201 L 343 204 L 344 204 L 344 208 L 345 208 L 345 211 L 347 211 L 347 210 L 349 210 L 349 209 L 350 209 L 350 208 L 351 208 L 351 202 L 350 202 L 350 199 L 349 199 L 349 197 L 347 197 L 347 196 Z M 498 207 L 500 207 L 500 208 L 502 208 L 502 209 L 504 209 L 504 210 L 505 210 L 505 211 L 507 211 L 507 212 L 509 212 L 509 213 L 510 213 L 510 214 L 512 214 L 512 215 L 513 215 L 513 216 L 515 216 L 515 217 L 516 217 L 516 218 L 518 218 L 518 219 L 519 219 L 519 221 L 520 221 L 520 222 L 521 222 L 521 227 L 520 227 L 520 229 L 519 229 L 519 230 L 518 230 L 518 232 L 517 232 L 517 233 L 515 233 L 515 234 L 512 234 L 512 235 L 509 235 L 509 249 L 510 249 L 510 250 L 511 250 L 511 253 L 508 253 L 508 252 L 506 252 L 506 251 L 505 251 L 505 250 L 504 250 L 504 249 L 503 249 L 503 248 L 502 248 L 502 232 L 501 232 L 501 231 L 499 231 L 499 233 L 498 233 L 498 234 L 497 234 L 497 236 L 496 236 L 496 237 L 495 237 L 495 239 L 494 239 L 494 241 L 495 241 L 495 242 L 496 242 L 496 243 L 497 243 L 497 245 L 494 245 L 494 244 L 492 244 L 492 243 L 490 243 L 490 242 L 489 242 L 489 241 L 487 241 L 487 240 L 485 240 L 485 239 L 484 239 L 484 238 L 483 238 L 483 237 L 482 237 L 482 235 L 484 235 L 484 236 L 488 236 L 488 234 L 489 234 L 489 232 L 490 232 L 490 230 L 491 230 L 491 229 L 492 229 L 492 227 L 493 227 L 493 225 L 494 225 L 494 223 L 495 223 L 495 222 L 496 222 L 496 220 L 497 220 L 497 218 L 498 218 L 498 217 L 499 217 L 499 215 L 500 215 L 500 211 L 499 211 L 499 210 L 498 210 L 498 209 L 497 209 L 497 208 L 498 208 Z M 297 210 L 302 210 L 302 211 L 303 211 L 303 212 L 304 212 L 304 213 L 305 213 L 305 215 L 304 215 L 304 217 L 303 217 L 303 218 L 302 218 L 302 219 L 300 219 L 300 218 L 299 218 L 299 217 L 298 217 L 298 216 L 293 216 L 293 217 L 292 217 L 292 218 L 291 218 L 291 221 L 292 221 L 292 223 L 294 223 L 294 224 L 310 224 L 310 225 L 312 225 L 312 226 L 313 226 L 313 227 L 314 227 L 314 229 L 315 229 L 315 230 L 316 230 L 316 237 L 315 237 L 315 239 L 314 239 L 314 240 L 313 240 L 313 242 L 312 242 L 312 243 L 310 243 L 310 244 L 309 244 L 309 245 L 307 245 L 307 246 L 304 246 L 304 247 L 297 247 L 297 246 L 296 246 L 296 245 L 295 245 L 295 240 L 296 240 L 296 238 L 298 238 L 298 239 L 299 239 L 299 240 L 301 240 L 301 241 L 302 241 L 302 242 L 307 242 L 307 241 L 309 241 L 309 240 L 310 240 L 310 238 L 311 238 L 311 235 L 310 235 L 310 234 L 309 234 L 309 232 L 291 232 L 291 231 L 290 231 L 290 230 L 289 230 L 289 229 L 288 229 L 288 228 L 287 228 L 287 226 L 286 226 L 286 223 L 285 223 L 285 222 L 286 222 L 286 219 L 287 219 L 287 217 L 288 217 L 288 216 L 289 216 L 289 215 L 290 215 L 290 214 L 291 214 L 291 213 L 293 213 L 293 212 L 295 212 L 295 211 L 297 211 Z M 509 216 L 508 216 L 508 217 L 507 217 L 507 218 L 506 218 L 506 220 L 505 220 L 505 221 L 504 221 L 504 223 L 503 223 L 503 225 L 502 225 L 502 228 L 503 228 L 503 229 L 504 229 L 504 230 L 509 230 L 509 229 L 510 229 L 510 228 L 511 228 L 511 226 L 512 226 L 512 224 L 513 224 L 513 220 L 512 220 L 512 219 L 511 219 L 511 218 L 510 218 L 510 217 L 509 217 Z M 547 246 L 552 246 L 552 247 L 555 247 L 555 248 L 557 248 L 557 249 L 558 249 L 558 250 L 559 250 L 559 251 L 560 251 L 560 252 L 561 252 L 561 253 L 562 253 L 562 254 L 563 254 L 563 255 L 564 255 L 564 258 L 565 258 L 565 262 L 566 262 L 566 265 L 565 265 L 565 269 L 564 269 L 564 271 L 563 271 L 563 272 L 562 272 L 562 274 L 561 274 L 561 275 L 560 275 L 560 276 L 559 276 L 559 277 L 558 277 L 558 278 L 556 278 L 556 279 L 555 279 L 555 280 L 553 280 L 553 281 L 550 281 L 550 282 L 542 282 L 542 281 L 540 281 L 540 280 L 538 280 L 538 279 L 537 279 L 537 278 L 536 278 L 536 277 L 535 277 L 535 276 L 534 276 L 534 275 L 533 275 L 533 274 L 532 274 L 532 273 L 531 273 L 531 270 L 530 270 L 530 261 L 531 261 L 531 258 L 532 258 L 532 257 L 533 257 L 533 255 L 534 255 L 534 254 L 535 254 L 535 253 L 536 253 L 536 252 L 537 252 L 537 251 L 538 251 L 538 250 L 540 250 L 540 249 L 541 249 L 541 248 L 543 248 L 543 247 L 547 247 Z M 550 252 L 550 253 L 548 253 L 548 254 L 547 254 L 547 255 L 545 255 L 545 256 L 544 256 L 544 257 L 543 257 L 543 258 L 542 258 L 542 259 L 541 259 L 541 260 L 540 260 L 540 261 L 539 261 L 539 262 L 538 262 L 538 264 L 537 264 L 537 265 L 536 265 L 536 273 L 537 273 L 537 274 L 538 274 L 538 275 L 539 275 L 539 276 L 542 276 L 542 277 L 543 277 L 543 276 L 546 276 L 546 275 L 548 275 L 548 274 L 549 274 L 549 273 L 550 273 L 550 272 L 551 272 L 551 271 L 553 271 L 553 270 L 554 270 L 554 269 L 555 269 L 555 267 L 556 267 L 556 266 L 557 266 L 557 265 L 558 265 L 558 263 L 559 263 L 559 262 L 560 262 L 560 256 L 559 256 L 559 255 L 558 255 L 558 254 L 557 254 L 557 253 L 556 253 L 556 252 Z M 232 262 L 235 262 L 235 263 L 236 263 L 236 264 L 238 264 L 238 265 L 239 265 L 239 266 L 240 266 L 240 268 L 239 268 L 239 269 L 236 269 L 236 268 L 235 268 L 235 267 L 233 267 L 233 268 L 232 268 L 232 269 L 231 269 L 231 270 L 230 270 L 230 271 L 229 271 L 229 273 L 228 273 L 228 274 L 227 274 L 227 275 L 228 275 L 228 276 L 229 276 L 229 277 L 230 277 L 230 278 L 232 278 L 232 279 L 233 279 L 233 280 L 234 280 L 234 281 L 237 281 L 237 280 L 238 280 L 238 278 L 239 278 L 239 277 L 240 277 L 240 276 L 241 276 L 241 275 L 242 275 L 242 274 L 243 274 L 243 273 L 244 273 L 244 274 L 245 274 L 245 276 L 244 276 L 244 278 L 243 278 L 243 279 L 242 279 L 242 280 L 241 280 L 241 281 L 240 281 L 240 283 L 239 283 L 239 285 L 241 285 L 241 286 L 242 286 L 242 287 L 244 287 L 244 288 L 245 288 L 245 289 L 246 289 L 246 290 L 247 290 L 247 291 L 248 291 L 248 292 L 249 292 L 249 291 L 250 291 L 250 290 L 251 290 L 251 289 L 252 289 L 252 287 L 253 287 L 253 286 L 254 286 L 254 285 L 255 285 L 255 281 L 254 281 L 254 280 L 253 280 L 253 279 L 252 279 L 252 278 L 253 278 L 253 277 L 254 277 L 254 276 L 256 276 L 256 277 L 257 277 L 257 278 L 258 278 L 258 279 L 260 279 L 260 280 L 261 280 L 261 283 L 260 283 L 260 284 L 259 284 L 259 285 L 258 285 L 258 287 L 257 287 L 257 288 L 256 288 L 256 289 L 255 289 L 255 291 L 254 291 L 254 292 L 253 292 L 253 293 L 252 293 L 252 294 L 251 294 L 251 296 L 250 296 L 250 297 L 249 297 L 249 298 L 248 298 L 248 300 L 247 300 L 247 301 L 246 301 L 246 302 L 245 302 L 245 303 L 242 303 L 242 301 L 243 301 L 243 299 L 244 299 L 244 298 L 243 298 L 243 297 L 242 297 L 242 296 L 241 296 L 241 295 L 239 295 L 239 294 L 238 294 L 238 293 L 237 293 L 237 292 L 235 292 L 235 291 L 234 291 L 234 290 L 233 290 L 233 289 L 232 289 L 232 288 L 230 288 L 230 287 L 229 287 L 229 286 L 228 286 L 228 285 L 226 285 L 226 284 L 225 284 L 225 283 L 224 283 L 224 282 L 220 282 L 220 283 L 219 283 L 219 284 L 217 284 L 217 281 L 218 281 L 218 280 L 219 280 L 219 278 L 220 278 L 220 277 L 221 277 L 221 276 L 222 276 L 222 274 L 223 274 L 223 273 L 224 273 L 224 272 L 225 272 L 225 271 L 226 271 L 226 269 L 227 269 L 227 268 L 228 268 L 228 267 L 229 267 L 229 266 L 230 266 L 230 264 L 231 264 L 231 263 L 232 263 Z M 588 286 L 589 286 L 589 287 L 590 287 L 590 289 L 591 289 L 591 291 L 592 291 L 592 293 L 593 293 L 593 295 L 594 295 L 594 297 L 595 297 L 595 299 L 596 299 L 596 301 L 593 301 L 593 300 L 592 300 L 592 299 L 589 299 L 589 300 L 588 300 L 588 301 L 587 301 L 587 302 L 586 302 L 586 303 L 585 303 L 585 304 L 584 304 L 584 305 L 583 305 L 583 306 L 581 306 L 581 307 L 580 307 L 580 308 L 579 308 L 579 309 L 578 309 L 578 310 L 577 310 L 577 311 L 576 311 L 576 312 L 575 312 L 575 313 L 577 313 L 577 312 L 582 312 L 582 311 L 589 311 L 589 310 L 596 310 L 596 309 L 600 309 L 600 310 L 601 310 L 601 313 L 600 313 L 600 314 L 599 314 L 599 315 L 598 315 L 598 316 L 597 316 L 597 318 L 596 318 L 596 319 L 595 319 L 595 320 L 594 320 L 594 321 L 593 321 L 593 322 L 592 322 L 592 323 L 591 323 L 591 324 L 590 324 L 590 325 L 589 325 L 589 326 L 588 326 L 588 327 L 587 327 L 587 328 L 586 328 L 586 329 L 585 329 L 585 330 L 584 330 L 584 331 L 588 331 L 588 330 L 592 330 L 592 329 L 596 329 L 596 328 L 601 328 L 601 327 L 604 327 L 604 325 L 605 325 L 605 324 L 604 324 L 604 322 L 605 322 L 605 321 L 606 321 L 606 322 L 607 322 L 607 324 L 608 324 L 608 326 L 609 326 L 609 328 L 610 328 L 610 329 L 611 329 L 611 333 L 609 333 L 609 332 L 608 332 L 608 331 L 602 331 L 602 332 L 597 332 L 597 333 L 592 333 L 592 334 L 587 334 L 587 335 L 581 335 L 581 336 L 575 336 L 575 335 L 574 335 L 574 333 L 573 333 L 573 331 L 574 331 L 574 330 L 575 330 L 575 329 L 576 329 L 576 328 L 577 328 L 577 326 L 578 326 L 578 325 L 579 325 L 579 324 L 580 324 L 580 323 L 581 323 L 581 322 L 582 322 L 582 321 L 583 321 L 583 320 L 584 320 L 584 319 L 586 319 L 586 318 L 587 318 L 587 317 L 588 317 L 588 316 L 589 316 L 589 315 L 585 315 L 585 316 L 578 316 L 578 317 L 572 317 L 572 318 L 566 318 L 566 317 L 565 317 L 565 315 L 564 315 L 564 312 L 565 312 L 565 311 L 566 311 L 566 310 L 567 310 L 567 309 L 568 309 L 568 308 L 569 308 L 569 307 L 570 307 L 570 306 L 572 306 L 572 305 L 573 305 L 573 304 L 574 304 L 574 303 L 575 303 L 575 302 L 576 302 L 576 301 L 577 301 L 577 300 L 578 300 L 578 299 L 579 299 L 579 298 L 580 298 L 580 297 L 581 297 L 581 296 L 583 296 L 583 295 L 584 295 L 584 294 L 585 294 L 585 292 L 586 292 L 586 291 L 587 291 L 587 287 L 588 287 Z M 378 296 L 388 296 L 388 297 L 395 297 L 395 298 L 399 298 L 399 299 L 402 299 L 402 300 L 405 300 L 405 301 L 407 301 L 407 302 L 409 302 L 409 303 L 411 303 L 411 304 L 413 304 L 413 305 L 415 305 L 415 306 L 416 306 L 416 307 L 418 307 L 418 308 L 419 308 L 419 309 L 421 309 L 421 310 L 422 310 L 422 311 L 423 311 L 423 312 L 424 312 L 424 313 L 425 313 L 425 314 L 426 314 L 426 315 L 427 315 L 427 316 L 428 316 L 428 317 L 429 317 L 429 318 L 430 318 L 430 319 L 431 319 L 431 320 L 432 320 L 432 321 L 433 321 L 433 323 L 434 323 L 434 324 L 435 324 L 435 326 L 436 326 L 436 328 L 437 328 L 437 329 L 438 329 L 438 332 L 439 332 L 439 334 L 440 334 L 440 337 L 441 337 L 441 340 L 442 340 L 442 344 L 443 344 L 443 350 L 444 350 L 444 359 L 445 359 L 445 368 L 444 368 L 444 374 L 442 374 L 442 372 L 441 372 L 441 371 L 440 371 L 440 370 L 439 370 L 439 369 L 438 369 L 438 367 L 437 367 L 437 366 L 436 366 L 436 365 L 435 365 L 435 364 L 434 364 L 434 363 L 432 363 L 432 362 L 431 362 L 431 361 L 430 361 L 430 360 L 428 360 L 428 359 L 426 359 L 426 358 L 424 358 L 424 357 L 422 357 L 422 356 L 419 356 L 419 355 L 403 355 L 403 356 L 400 356 L 400 357 L 398 357 L 398 358 L 396 358 L 396 359 L 394 359 L 394 360 L 393 360 L 393 361 L 391 361 L 391 362 L 390 362 L 390 363 L 389 363 L 389 364 L 388 364 L 388 366 L 387 366 L 387 367 L 386 367 L 386 369 L 385 369 L 385 372 L 384 372 L 384 375 L 383 375 L 383 381 L 382 381 L 382 389 L 383 389 L 383 394 L 384 394 L 384 397 L 385 397 L 385 399 L 386 399 L 386 401 L 387 401 L 387 403 L 388 403 L 388 405 L 389 405 L 389 406 L 390 406 L 390 407 L 391 407 L 391 409 L 392 409 L 392 410 L 393 410 L 393 411 L 394 411 L 394 412 L 395 412 L 395 413 L 396 413 L 396 414 L 397 414 L 397 415 L 398 415 L 398 416 L 399 416 L 399 417 L 400 417 L 400 418 L 401 418 L 401 419 L 402 419 L 402 420 L 404 420 L 404 421 L 405 421 L 405 422 L 407 422 L 407 423 L 409 423 L 409 424 L 411 424 L 411 425 L 413 425 L 413 426 L 415 426 L 415 427 L 417 427 L 417 428 L 420 428 L 420 429 L 422 429 L 422 430 L 426 430 L 426 431 L 429 431 L 429 432 L 436 432 L 436 433 L 447 433 L 447 434 L 448 434 L 448 437 L 449 437 L 449 439 L 450 439 L 450 441 L 451 441 L 451 442 L 452 442 L 452 444 L 453 444 L 453 445 L 454 445 L 454 447 L 455 447 L 455 448 L 456 448 L 456 449 L 457 449 L 457 450 L 458 450 L 458 452 L 459 452 L 459 453 L 460 453 L 460 454 L 461 454 L 461 455 L 462 455 L 462 456 L 463 456 L 463 457 L 464 457 L 464 458 L 465 458 L 465 459 L 467 459 L 467 460 L 468 460 L 468 461 L 469 461 L 469 463 L 466 463 L 466 464 L 463 464 L 463 465 L 459 465 L 459 466 L 453 466 L 453 467 L 426 467 L 426 466 L 413 466 L 413 465 L 406 465 L 406 464 L 401 464 L 401 463 L 396 463 L 396 462 L 392 462 L 392 461 L 389 461 L 389 460 L 385 460 L 385 459 L 382 459 L 382 458 L 381 458 L 381 456 L 380 456 L 380 454 L 379 454 L 379 451 L 378 451 L 378 449 L 377 449 L 377 447 L 376 447 L 376 446 L 375 446 L 375 445 L 374 445 L 374 444 L 373 444 L 373 445 L 372 445 L 372 449 L 373 449 L 373 453 L 374 453 L 374 455 L 373 455 L 373 454 L 371 454 L 371 453 L 369 453 L 369 452 L 367 452 L 367 451 L 366 451 L 366 450 L 364 450 L 364 449 L 362 449 L 362 448 L 361 448 L 361 447 L 359 447 L 359 446 L 358 446 L 358 445 L 356 445 L 356 444 L 355 444 L 355 443 L 354 443 L 354 442 L 353 442 L 353 441 L 352 441 L 352 440 L 350 440 L 350 439 L 349 439 L 349 438 L 348 438 L 348 437 L 347 437 L 347 436 L 346 436 L 346 435 L 345 435 L 345 434 L 344 434 L 344 433 L 343 433 L 343 432 L 342 432 L 342 431 L 341 431 L 341 430 L 340 430 L 340 428 L 339 428 L 339 427 L 338 427 L 338 426 L 337 426 L 337 424 L 336 424 L 336 423 L 335 423 L 335 422 L 334 422 L 334 420 L 333 420 L 333 419 L 332 419 L 332 417 L 331 417 L 331 416 L 330 416 L 330 414 L 329 414 L 329 412 L 328 412 L 328 410 L 327 410 L 327 408 L 326 408 L 326 406 L 325 406 L 325 403 L 324 403 L 324 401 L 323 401 L 323 396 L 322 396 L 322 392 L 321 392 L 321 387 L 320 387 L 320 374 L 319 374 L 319 372 L 320 372 L 320 360 L 321 360 L 321 354 L 322 354 L 322 350 L 323 350 L 323 346 L 324 346 L 324 343 L 325 343 L 325 340 L 326 340 L 326 338 L 327 338 L 327 336 L 328 336 L 328 333 L 329 333 L 329 331 L 330 331 L 330 329 L 331 329 L 331 328 L 332 328 L 332 326 L 333 326 L 333 325 L 334 325 L 334 324 L 335 324 L 335 323 L 338 323 L 338 322 L 347 322 L 347 321 L 348 321 L 348 320 L 347 320 L 347 319 L 348 319 L 348 313 L 349 313 L 349 310 L 350 310 L 350 308 L 351 308 L 351 307 L 352 307 L 352 305 L 353 305 L 353 304 L 354 304 L 354 303 L 356 303 L 356 302 L 358 302 L 358 301 L 361 301 L 361 300 L 364 300 L 364 299 L 367 299 L 367 298 L 371 298 L 371 297 L 378 297 Z M 225 315 L 226 315 L 226 316 L 228 316 L 228 317 L 230 317 L 230 318 L 232 318 L 232 319 L 234 319 L 234 323 L 233 323 L 233 326 L 232 326 L 232 328 L 231 328 L 231 330 L 230 330 L 230 333 L 229 333 L 229 335 L 228 335 L 228 337 L 227 337 L 227 339 L 226 339 L 226 342 L 225 342 L 225 344 L 224 344 L 224 345 L 223 345 L 223 346 L 222 346 L 222 345 L 221 345 L 221 343 L 222 343 L 222 341 L 221 341 L 221 340 L 219 340 L 219 339 L 217 339 L 217 338 L 215 338 L 215 337 L 213 337 L 213 336 L 210 336 L 210 335 L 208 335 L 208 334 L 206 334 L 206 333 L 204 333 L 204 332 L 202 332 L 202 331 L 199 331 L 199 330 L 196 330 L 196 331 L 195 331 L 195 333 L 192 333 L 192 329 L 193 329 L 193 327 L 194 327 L 194 325 L 195 325 L 195 322 L 196 322 L 196 320 L 197 320 L 197 318 L 198 318 L 198 317 L 200 317 L 200 323 L 202 323 L 202 324 L 204 324 L 204 325 L 207 325 L 207 326 L 210 326 L 210 327 L 212 327 L 212 328 L 214 328 L 214 329 L 217 329 L 217 330 L 219 330 L 219 331 L 221 331 L 221 332 L 223 332 L 223 333 L 225 333 L 225 332 L 226 332 L 226 330 L 227 330 L 227 328 L 228 328 L 228 325 L 229 325 L 229 322 L 228 322 L 228 321 L 227 321 L 227 320 L 226 320 L 226 319 L 225 319 L 225 318 L 224 318 L 224 316 L 225 316 Z M 223 410 L 224 410 L 224 411 L 225 411 L 225 410 L 227 410 L 227 411 L 230 411 L 230 410 L 276 410 L 276 413 L 190 413 L 190 411 L 223 411 Z M 525 413 L 611 413 L 611 415 L 610 415 L 610 416 L 525 416 Z M 582 451 L 585 451 L 585 452 L 588 452 L 588 453 L 590 453 L 590 456 L 584 456 L 584 457 L 583 457 L 583 459 L 582 459 L 582 462 L 585 462 L 585 463 L 588 463 L 588 464 L 590 464 L 590 465 L 593 465 L 593 466 L 596 466 L 596 467 L 598 467 L 598 468 L 601 468 L 601 469 L 605 469 L 605 468 L 606 468 L 606 466 L 607 466 L 607 467 L 608 467 L 608 471 L 607 471 L 607 473 L 606 473 L 606 476 L 605 476 L 605 478 L 604 478 L 604 480 L 603 480 L 603 481 L 602 481 L 602 480 L 601 480 L 601 479 L 602 479 L 602 477 L 601 477 L 601 476 L 600 476 L 600 475 L 598 475 L 598 474 L 595 474 L 595 473 L 592 473 L 592 472 L 589 472 L 589 471 L 587 471 L 587 470 L 584 470 L 584 469 L 582 469 L 582 468 L 579 468 L 579 469 L 578 469 L 578 472 L 577 472 L 577 473 L 578 473 L 578 474 L 579 474 L 579 475 L 581 475 L 581 478 L 580 478 L 580 479 L 579 479 L 579 478 L 577 478 L 577 477 L 575 477 L 575 476 L 574 476 L 574 475 L 573 475 L 573 474 L 574 474 L 574 471 L 575 471 L 575 468 L 576 468 L 576 466 L 577 466 L 577 463 L 578 463 L 578 461 L 579 461 L 579 458 L 580 458 L 580 456 L 581 456 L 581 453 L 582 453 Z M 227 452 L 230 452 L 230 455 L 231 455 L 231 457 L 232 457 L 232 460 L 233 460 L 233 463 L 234 463 L 234 465 L 235 465 L 235 467 L 236 467 L 236 473 L 235 473 L 235 475 L 234 475 L 234 476 L 233 476 L 233 477 L 230 477 L 230 478 L 227 478 L 227 477 L 225 477 L 225 476 L 223 476 L 223 480 L 222 480 L 222 481 L 221 481 L 221 482 L 220 482 L 220 483 L 219 483 L 219 484 L 211 484 L 211 483 L 210 483 L 210 482 L 209 482 L 209 481 L 208 481 L 208 480 L 207 480 L 207 477 L 206 477 L 206 475 L 205 475 L 205 473 L 204 473 L 204 470 L 203 470 L 203 467 L 202 467 L 202 465 L 201 465 L 201 462 L 203 462 L 203 463 L 204 463 L 204 464 L 208 464 L 208 463 L 211 463 L 211 462 L 213 462 L 213 461 L 216 461 L 216 460 L 218 460 L 218 459 L 221 459 L 221 458 L 224 458 L 224 457 L 226 457 L 226 456 L 228 456 L 228 454 L 227 454 Z M 228 463 L 228 464 L 225 464 L 225 465 L 223 465 L 223 466 L 221 466 L 221 467 L 222 467 L 222 469 L 223 469 L 223 470 L 224 470 L 224 471 L 227 471 L 227 470 L 229 470 L 229 469 L 230 469 L 230 468 L 231 468 L 231 463 Z M 218 467 L 217 467 L 217 468 L 215 468 L 215 469 L 212 469 L 212 470 L 210 470 L 210 471 L 208 471 L 208 472 L 207 472 L 207 473 L 208 473 L 208 475 L 209 475 L 209 476 L 210 476 L 210 477 L 215 477 L 215 476 L 217 476 L 217 475 L 218 475 L 218 474 L 219 474 L 219 473 L 220 473 L 220 472 L 219 472 L 219 469 L 218 469 Z M 244 489 L 246 489 L 246 490 L 247 490 L 247 491 L 248 491 L 248 492 L 249 492 L 249 494 L 250 494 L 250 495 L 251 495 L 251 497 L 252 497 L 252 498 L 253 498 L 253 500 L 254 500 L 254 501 L 255 501 L 255 503 L 256 503 L 256 504 L 257 504 L 257 506 L 258 506 L 258 509 L 257 509 L 257 510 L 256 510 L 256 511 L 254 511 L 254 512 L 251 512 L 251 509 L 252 509 L 252 508 L 253 508 L 253 505 L 252 505 L 252 503 L 251 503 L 251 501 L 250 501 L 250 500 L 247 500 L 247 501 L 246 501 L 246 502 L 244 502 L 244 503 L 243 503 L 243 504 L 242 504 L 242 505 L 241 505 L 241 506 L 242 506 L 242 507 L 243 507 L 243 508 L 244 508 L 244 510 L 245 510 L 245 511 L 246 511 L 246 514 L 243 514 L 243 513 L 242 513 L 242 512 L 241 512 L 241 510 L 240 510 L 240 509 L 239 509 L 239 508 L 238 508 L 238 507 L 237 507 L 237 508 L 236 508 L 236 509 L 234 509 L 234 510 L 232 510 L 232 511 L 231 511 L 231 512 L 229 512 L 229 514 L 230 514 L 230 515 L 231 515 L 231 517 L 232 517 L 232 519 L 233 519 L 233 520 L 234 520 L 234 521 L 236 521 L 236 520 L 238 520 L 238 519 L 239 519 L 239 520 L 240 520 L 240 521 L 241 521 L 241 522 L 240 522 L 240 523 L 239 523 L 239 524 L 237 524 L 237 525 L 236 525 L 236 526 L 234 526 L 234 525 L 233 525 L 233 524 L 232 524 L 232 523 L 231 523 L 231 521 L 230 521 L 230 520 L 229 520 L 229 518 L 228 518 L 228 517 L 227 517 L 227 516 L 226 516 L 226 514 L 225 514 L 225 513 L 224 513 L 224 511 L 223 511 L 223 509 L 222 509 L 222 508 L 221 508 L 221 506 L 220 506 L 220 505 L 221 505 L 221 504 L 223 504 L 223 506 L 227 506 L 227 505 L 228 505 L 228 504 L 230 504 L 230 503 L 231 503 L 231 502 L 232 502 L 232 501 L 234 501 L 234 500 L 235 500 L 235 499 L 237 499 L 237 498 L 238 498 L 238 497 L 240 497 L 240 496 L 241 496 L 241 495 L 243 495 L 243 494 L 244 494 L 244 493 L 245 493 L 245 492 L 244 492 Z M 564 493 L 572 493 L 572 494 L 573 494 L 573 495 L 574 495 L 574 497 L 575 497 L 575 499 L 576 499 L 576 503 L 581 503 L 581 504 L 589 504 L 589 503 L 592 503 L 592 505 L 591 505 L 591 507 L 590 507 L 590 508 L 589 508 L 589 509 L 588 509 L 588 510 L 585 510 L 585 511 L 583 511 L 583 510 L 572 510 L 572 512 L 573 512 L 573 513 L 574 513 L 574 514 L 576 514 L 576 515 L 577 515 L 577 516 L 579 516 L 579 517 L 580 517 L 580 516 L 581 516 L 581 515 L 582 515 L 582 514 L 583 514 L 583 515 L 584 515 L 584 518 L 583 518 L 583 519 L 582 519 L 582 521 L 581 521 L 581 522 L 580 522 L 580 523 L 579 523 L 579 525 L 578 525 L 578 526 L 577 526 L 577 527 L 575 527 L 575 524 L 576 524 L 576 523 L 575 523 L 575 522 L 574 522 L 574 521 L 572 521 L 572 520 L 571 520 L 571 519 L 569 519 L 569 518 L 568 518 L 568 517 L 566 517 L 566 516 L 565 516 L 565 515 L 563 515 L 563 514 L 562 514 L 562 513 L 560 513 L 560 512 L 559 512 L 559 511 L 558 511 L 558 510 L 554 510 L 554 512 L 551 512 L 551 509 L 552 509 L 552 508 L 553 508 L 553 506 L 554 506 L 554 505 L 555 505 L 555 503 L 556 503 L 556 502 L 557 502 L 557 501 L 558 501 L 558 499 L 559 499 L 559 498 L 560 498 L 560 496 L 561 496 L 561 495 L 563 495 L 563 494 L 564 494 Z M 563 499 L 563 500 L 562 500 L 562 501 L 561 501 L 561 502 L 560 502 L 560 504 L 561 504 L 561 505 L 563 505 L 563 506 L 564 506 L 564 507 L 566 507 L 566 508 L 567 508 L 567 509 L 570 509 L 570 507 L 571 507 L 571 503 L 570 503 L 570 502 L 569 502 L 569 501 L 567 501 L 567 500 L 565 500 L 565 499 Z M 539 527 L 540 527 L 540 528 L 545 528 L 545 529 L 547 529 L 547 530 L 548 530 L 548 531 L 549 531 L 549 532 L 550 532 L 550 533 L 551 533 L 551 534 L 552 534 L 552 535 L 553 535 L 553 537 L 554 537 L 554 538 L 555 538 L 555 541 L 556 541 L 556 549 L 555 549 L 555 551 L 554 551 L 554 553 L 553 553 L 553 554 L 552 554 L 552 555 L 551 555 L 551 556 L 550 556 L 550 557 L 548 557 L 548 558 L 546 558 L 546 559 L 537 559 L 537 558 L 535 558 L 535 557 L 534 557 L 534 556 L 533 556 L 533 555 L 531 555 L 531 554 L 530 554 L 530 553 L 529 553 L 529 552 L 528 552 L 528 550 L 527 550 L 527 549 L 526 549 L 526 546 L 525 546 L 525 538 L 526 538 L 526 536 L 527 536 L 527 534 L 528 534 L 528 533 L 529 533 L 529 532 L 530 532 L 530 531 L 531 531 L 531 530 L 533 530 L 533 529 L 534 529 L 534 528 L 539 528 Z M 276 529 L 278 529 L 278 530 L 279 530 L 279 531 L 280 531 L 280 532 L 281 532 L 281 533 L 282 533 L 282 534 L 281 534 L 281 536 L 280 536 L 280 539 L 279 539 L 279 541 L 278 541 L 278 543 L 277 543 L 277 546 L 276 546 L 276 548 L 275 548 L 275 550 L 274 550 L 274 552 L 273 552 L 273 555 L 272 555 L 272 557 L 271 557 L 271 561 L 272 561 L 272 563 L 271 563 L 271 564 L 270 564 L 270 563 L 269 563 L 269 562 L 267 562 L 267 561 L 266 561 L 266 560 L 265 560 L 265 559 L 264 559 L 264 558 L 263 558 L 263 557 L 262 557 L 262 556 L 261 556 L 261 555 L 260 555 L 260 554 L 261 554 L 261 553 L 263 553 L 263 554 L 265 554 L 265 553 L 266 553 L 266 551 L 267 551 L 267 548 L 266 548 L 266 547 L 265 547 L 265 546 L 264 546 L 264 545 L 263 545 L 263 544 L 262 544 L 262 543 L 261 543 L 261 542 L 259 542 L 259 543 L 257 543 L 257 544 L 256 544 L 256 545 L 255 545 L 255 547 L 256 547 L 256 548 L 257 548 L 257 549 L 256 549 L 256 550 L 254 550 L 254 549 L 253 549 L 253 548 L 252 548 L 252 547 L 251 547 L 251 546 L 250 546 L 250 545 L 249 545 L 249 544 L 248 544 L 248 543 L 247 543 L 247 542 L 248 542 L 248 541 L 250 541 L 250 542 L 252 542 L 252 541 L 255 541 L 255 540 L 257 540 L 257 539 L 258 539 L 258 538 L 260 538 L 260 537 L 262 537 L 262 536 L 264 536 L 264 535 L 266 535 L 266 534 L 268 534 L 268 533 L 270 533 L 270 532 L 272 532 L 272 531 L 274 531 L 274 530 L 276 530 Z M 533 533 L 533 534 L 532 534 L 532 535 L 531 535 L 531 536 L 530 536 L 530 541 L 531 541 L 531 543 L 532 543 L 532 545 L 533 545 L 533 546 L 534 546 L 534 547 L 535 547 L 535 548 L 536 548 L 536 549 L 537 549 L 537 550 L 538 550 L 538 551 L 539 551 L 539 552 L 541 552 L 541 553 L 543 553 L 543 554 L 547 554 L 547 553 L 548 553 L 548 552 L 549 552 L 549 551 L 550 551 L 550 549 L 551 549 L 551 546 L 550 546 L 550 544 L 549 544 L 549 543 L 548 543 L 548 541 L 547 541 L 547 540 L 546 540 L 546 539 L 545 539 L 545 538 L 544 538 L 544 537 L 543 537 L 543 536 L 542 536 L 542 535 L 541 535 L 541 534 L 539 534 L 539 533 Z M 275 534 L 274 534 L 274 535 L 272 535 L 272 536 L 270 536 L 270 537 L 268 537 L 268 538 L 266 538 L 266 539 L 265 539 L 265 541 L 266 541 L 266 542 L 267 542 L 267 543 L 268 543 L 268 544 L 269 544 L 269 545 L 270 545 L 270 543 L 271 543 L 271 541 L 272 541 L 272 539 L 273 539 L 273 537 L 274 537 L 274 535 L 275 535 Z M 307 554 L 310 554 L 310 555 L 314 555 L 314 556 L 316 556 L 316 557 L 317 557 L 317 558 L 319 558 L 319 559 L 320 559 L 320 560 L 321 560 L 321 561 L 322 561 L 322 564 L 323 564 L 323 565 L 322 565 L 322 567 L 321 567 L 321 568 L 317 568 L 317 567 L 315 567 L 315 566 L 316 566 L 316 561 L 315 561 L 315 560 L 314 560 L 314 559 L 308 559 L 308 560 L 307 560 L 307 561 L 306 561 L 306 562 L 305 562 L 305 563 L 304 563 L 304 565 L 303 565 L 303 566 L 302 566 L 302 568 L 301 568 L 301 570 L 300 570 L 300 573 L 299 573 L 299 577 L 300 577 L 300 579 L 301 579 L 301 580 L 302 580 L 302 581 L 304 581 L 304 582 L 307 582 L 307 583 L 309 583 L 309 582 L 312 582 L 312 585 L 311 585 L 311 586 L 303 586 L 303 585 L 301 585 L 301 584 L 299 584 L 299 583 L 298 583 L 298 582 L 297 582 L 297 581 L 296 581 L 296 580 L 295 580 L 295 579 L 294 579 L 294 577 L 293 577 L 293 575 L 292 575 L 292 568 L 293 568 L 293 566 L 294 566 L 294 564 L 295 564 L 295 562 L 296 562 L 296 561 L 297 561 L 297 560 L 298 560 L 298 559 L 299 559 L 299 558 L 300 558 L 300 557 L 301 557 L 301 556 L 303 556 L 303 555 L 307 555 Z M 500 554 L 506 554 L 506 555 L 507 555 L 507 556 L 508 556 L 508 558 L 507 558 L 507 560 L 506 560 L 506 561 L 505 561 L 505 562 L 504 562 L 504 561 L 503 561 L 503 560 L 502 560 L 502 559 L 497 559 L 497 560 L 496 560 L 496 562 L 495 562 L 495 563 L 496 563 L 496 565 L 497 565 L 497 566 L 513 566 L 513 567 L 514 567 L 514 568 L 515 568 L 515 569 L 516 569 L 516 570 L 517 570 L 517 572 L 518 572 L 518 577 L 517 577 L 517 579 L 516 579 L 516 581 L 515 581 L 515 582 L 514 582 L 514 583 L 513 583 L 513 584 L 511 584 L 511 585 L 509 585 L 509 586 L 501 586 L 501 585 L 500 585 L 500 584 L 499 584 L 499 579 L 500 579 L 500 578 L 502 578 L 502 579 L 503 579 L 503 580 L 504 580 L 504 581 L 506 581 L 506 582 L 510 582 L 510 581 L 511 581 L 511 580 L 512 580 L 512 579 L 513 579 L 513 575 L 512 575 L 512 574 L 511 574 L 511 573 L 503 573 L 503 574 L 499 574 L 499 573 L 496 573 L 496 572 L 494 572 L 494 571 L 493 571 L 493 570 L 492 570 L 492 568 L 491 568 L 491 561 L 492 561 L 492 559 L 493 559 L 493 558 L 494 558 L 494 557 L 496 557 L 496 556 L 497 556 L 497 555 L 500 555 Z M 338 568 L 339 568 L 339 569 L 342 569 L 342 570 L 345 570 L 345 571 L 348 571 L 348 572 L 351 572 L 351 573 L 352 573 L 352 574 L 351 574 L 351 575 L 347 575 L 347 578 L 346 578 L 346 581 L 345 581 L 345 584 L 347 584 L 347 585 L 350 585 L 350 586 L 353 586 L 353 587 L 355 587 L 355 584 L 356 584 L 356 581 L 357 581 L 357 577 L 356 577 L 356 576 L 354 576 L 354 574 L 355 574 L 355 573 L 356 573 L 356 574 L 360 574 L 360 575 L 363 575 L 363 576 L 367 576 L 367 577 L 369 577 L 369 579 L 368 579 L 368 580 L 364 580 L 364 583 L 363 583 L 363 587 L 362 587 L 362 591 L 361 591 L 361 594 L 360 594 L 360 597 L 359 597 L 359 600 L 358 600 L 358 603 L 359 603 L 359 604 L 361 604 L 361 606 L 360 606 L 360 607 L 358 607 L 358 606 L 354 606 L 354 605 L 350 605 L 350 604 L 347 604 L 347 603 L 346 603 L 346 601 L 347 601 L 347 600 L 351 600 L 351 597 L 352 597 L 352 594 L 353 594 L 353 590 L 351 590 L 351 589 L 348 589 L 348 588 L 346 588 L 346 587 L 343 587 L 343 591 L 342 591 L 342 595 L 341 595 L 341 599 L 344 599 L 344 601 L 343 601 L 343 602 L 341 602 L 341 601 L 337 601 L 337 600 L 334 600 L 334 599 L 331 599 L 331 598 L 329 598 L 329 596 L 333 596 L 333 595 L 334 595 L 334 592 L 335 592 L 335 589 L 336 589 L 336 586 L 337 586 L 337 582 L 338 582 L 338 578 L 339 578 L 339 575 L 340 575 L 340 572 L 338 572 L 338 571 L 337 571 L 337 569 L 338 569 Z M 468 569 L 472 569 L 472 570 L 473 570 L 473 572 L 474 572 L 474 575 L 475 575 L 475 576 L 474 576 L 474 577 L 471 577 L 471 575 L 470 575 L 470 574 L 469 574 L 469 573 L 466 573 L 466 574 L 463 574 L 463 575 L 461 575 L 461 577 L 462 577 L 462 580 L 463 580 L 463 584 L 467 584 L 467 583 L 471 583 L 471 582 L 474 582 L 474 585 L 472 585 L 472 586 L 468 586 L 468 587 L 465 587 L 465 590 L 466 590 L 466 593 L 467 593 L 467 596 L 468 596 L 468 598 L 472 598 L 472 597 L 474 597 L 474 596 L 477 596 L 477 590 L 481 590 L 481 593 L 482 593 L 482 598 L 479 598 L 479 599 L 476 599 L 476 600 L 473 600 L 473 601 L 470 601 L 470 602 L 467 602 L 467 603 L 464 603 L 464 604 L 461 604 L 461 605 L 459 605 L 459 604 L 458 604 L 458 602 L 460 602 L 460 601 L 461 601 L 461 598 L 460 598 L 460 595 L 459 595 L 459 592 L 458 592 L 458 589 L 457 589 L 457 585 L 456 585 L 456 582 L 455 582 L 455 579 L 454 579 L 454 578 L 453 578 L 453 577 L 452 577 L 452 578 L 450 578 L 450 575 L 452 575 L 452 574 L 455 574 L 455 573 L 458 573 L 458 572 L 461 572 L 461 571 L 464 571 L 464 570 L 468 570 Z M 409 580 L 429 580 L 429 581 L 431 581 L 431 582 L 432 582 L 432 583 L 433 583 L 433 585 L 434 585 L 434 590 L 433 590 L 433 592 L 432 592 L 432 594 L 430 594 L 430 595 L 429 595 L 429 596 L 430 596 L 430 598 L 431 598 L 431 599 L 432 599 L 432 601 L 433 601 L 433 602 L 434 602 L 434 603 L 435 603 L 435 605 L 436 605 L 436 606 L 439 606 L 439 607 L 440 607 L 440 608 L 439 608 L 439 609 L 431 609 L 431 608 L 429 608 L 429 606 L 428 606 L 428 605 L 427 605 L 427 604 L 426 604 L 426 602 L 425 602 L 425 600 L 424 600 L 424 599 L 423 599 L 423 598 L 422 598 L 422 597 L 421 597 L 421 598 L 420 598 L 420 599 L 421 599 L 421 608 L 423 608 L 423 607 L 424 607 L 424 608 L 425 608 L 425 611 L 410 611 L 410 609 L 413 609 L 413 594 L 412 594 L 412 584 L 409 584 L 409 583 L 407 583 L 407 582 L 408 582 L 408 581 L 409 581 Z M 419 583 L 419 585 L 420 585 L 420 595 L 421 595 L 421 594 L 425 594 L 425 592 L 426 592 L 426 586 L 425 586 L 425 584 L 424 584 L 424 583 Z" fill="currentColor" transform="translate(8.000, 1.500) scale(0.040)" />
<text x="46" y="22" font-family="'Space Grotesk', sans-serif" font-weight="700" font-size="14.5" fill="currentColor" letter-spacing="0.06em">LeSparrow</text></svg>