<svg viewBox="0 0 160 35" fill="none" xmlns="http://www.w3.org/2000/svg">
  <g transform="translate(4, 2.5) scale(0.022338)">
    <path d="M0 0 C3.387199 1.4388102 5.3594104 3.22119499 7.75 6 C8.36359375 6.70125 8.9771875 7.4025 9.609375 8.125 C11 10 11 10 11 12 C11.66 12 12.32 12 13 12 C14.55078125 14.01171875 14.55078125 14.01171875 16.3125 16.6875 C18.93597001 20.55480983 21.64759777 23.73581888 25 27 C25.87368184 28.19429903 26.72708912 29.40362422 27.5625 30.625 C29.44693354 33.36599424 31.3119729 35.02878012 34 37 C35.0064275 38.66279327 36.00585407 40.32983484 37 42 C37.763125 42.763125 38.52625 43.52625 39.3125 44.3125 C41.49124643 46.49124643 43.19761835 48.5304128 45 51 C47.42247652 54.31071791 50.05650649 57.13396684 53 60 C55.35360398 62.74587131 56.85423387 64.56270161 58 68 C58.763125 68.598125 59.52625 69.19625 60.3125 69.8125 C63.30598005 72.24905353 65.05342619 74.68361499 67 78 C67 78.66 67 79.32 67 80 C67.8353125 80.2784375 67.8353125 80.2784375 68.6875 80.5625 C71.61580417 82.38279719 72.98725758 84.5855761 74.8515625 87.44140625 C75.93246934 89.15572515 75.93246934 89.15572515 78 90 C78.28628332 92.5263765 78.46717192 94.96566825 78.5625 97.5 C78.35294651 102.12221389 78.35294651 102.12221389 80 106 C80.10805665 107.56846119 80.14683786 109.14174465 80.15821838 110.71388245 C80.1680072 111.73336975 80.17779602 112.75285706 80.18788147 113.80323792 C80.19363693 114.931082 80.1993924 116.05892609 80.20532227 117.22094727 C80.21522186 118.40127533 80.22512146 119.58160339 80.23532104 120.79769897 C80.26157079 124.04339119 80.28340717 127.28907795 80.30332303 130.53481412 C80.32514552 133.92345952 80.35255243 137.31205952 80.37937927 140.70066833 C80.42935686 147.1215251 80.47427682 153.542407 80.51740164 159.96331304 C80.56673081 167.27157049 80.62166491 174.5797824 80.67708123 181.88799584 C80.79097901 196.92528814 80.89780098 211.9626233 81 227 C81.66 227 82.32 227 83 227 C83.66 225.68 84.32 224.36 85 223 C85.66 223 86.32 223 87 223 C87.12375 222.38125 87.2475 221.7625 87.375 221.125 C88 219 88 219 90 217 C90.99 217 91.98 217 93 217 C93.33 215.35 93.66 213.7 94 212 C94.99 211.67 95.98 211.34 97 211 C97.73323796 208.98491642 97.73323796 208.98491642 98 207 C98.66 207 99.32 207 100 207 C100.28875 206.401875 100.5775 205.80375 100.875 205.1875 C102 203 102 203 104 200 C104.66 200 105.32 200 106 200 C106.268125 199.2575 106.53625 198.515 106.8125 197.75 C108.2540231 194.41173598 109.46714614 191.64280968 112.9375 190.1875 C115.32248112 188.81432905 115.7900741 187.826941 117.0625 185.4375 C119 182 119 182 122 181 C122.33 180.01 122.66 179.02 123 178 C123.66 177.67 124.32 177.34 125 177 C126.58882856 174.20295362 128.01748702 171.34125339 129.46484375 168.46875 C131 166 131 166 134 165 C134 164.34 134 163.68 134 163 C134.639375 162.71125 135.27875 162.4225 135.9375 162.125 C138.15206079 161.17176549 138.15206079 161.17176549 139 159 C139.66 159 140.32 159 141 159 C141.33 157.68 141.66 156.36 142 155 C142.99 155 143.98 155 145 155 C145.33 153.35 145.66 151.7 146 150 C146.66 150 147.32 150 148 150 C148.33 148.35 148.66 146.7 149 145 C149.66 145 150.32 145 151 145 C151 144.34 151 143.68 151 143 C152.25 141.625 152.25 141.625 154 140 C154.66 139.34 155.32 138.68 156 138 C156.66 137.34 157.32 136.68 158 136 C158.515625 135.4225 159.03125 134.845 159.5625 134.25 C161 133 161 133 164 133 C164.103125 132.278125 164.20625 131.55625 164.3125 130.8125 C165.36724042 126.49765284 167.48495598 122.78274318 171 120 C171.99 120 172.98 120 174 120 C173.814375 118.9171875 173.814375 118.9171875 173.625 117.8125 C174 115 174 115 176.875 112.375 C178.421875 111.199375 178.421875 111.199375 180 110 C180.66 109.01 181.32 108.02 182 107 C183.32 107 184.64 107 186 107 C186.0825 106.0925 186.165 105.185 186.25 104.25 C187.09694174 100.57991912 188.07907263 99.30133672 191 97 C191.66 97 192.32 97 193 97 C193 95.35 193 93.7 193 92 C194.32 91.67 195.64 91.34 197 91 C197 90.01 197 89.02 197 88 C197.99 88 198.98 88 200 88 C200 87.01 200 86.02 200 85 C201.66205022 83.99234586 203.3295873 82.99372994 205 82 C206.41424447 80.28155955 207.7880368 78.5292286 209.125 76.75 C213.16025243 72.16115096 213.16025243 72.16115096 216.60546875 71.5 C219.49646332 71.7669894 222.17806771 72.32015359 225 73 C227.08211367 73.32052563 229.16547952 73.63301948 231.25 73.9375 C234.30196373 74.43913492 237.14503089 75.04511666 240.1015625 75.96484375 C259.24699586 81.52478109 281.22931447 80.29836485 300.9375 80.3125 C302.61286835 80.3176059 302.61286835 80.3176059 304.32208252 80.32281494 C318.83753005 80.348099 333.13864034 79.6914358 347.58036804 78.2331543 C353.04423963 77.70665888 358.52308242 77.36069821 364 77 C364 76.34 364 75.68 364 75 C365.03294189 74.80889648 366.06588379 74.61779297 367.13012695 74.42089844 C371.01409824 73.69973015 374.89563823 72.96612151 378.77661133 72.22900391 C380.44688541 71.9135059 382.11777533 71.6012483 383.78930664 71.29248047 C392.29008187 69.72005332 400.50250217 68.14611875 408.56958008 64.94628906 C413.49658963 63.02794763 418.63728974 61.71460857 423.72460938 60.2890625 C428.47064461 58.91297122 432.7289369 57.26033197 437.09985352 54.95898438 C440.10689245 53.44136277 443.19660076 52.36692121 446.375 51.25 C447.57898437 50.82203125 448.78296875 50.3940625 450.0234375 49.953125 C453 49 453 49 455 49 C455 48.34 455 47.68 455 47 C456.14597656 46.55269531 457.29195312 46.10539062 458.47265625 45.64453125 C460.00280213 45.03435038 461.53273902 44.42364521 463.0625 43.8125 C463.81466797 43.52052734 464.56683594 43.22855469 465.34179688 42.92773438 C469.82267689 41.12374372 473.57242278 39.06714641 477.42553711 36.1574707 C479.58045787 34.57327481 481.85663738 33.37289186 484.25 32.1875 C485.08015625 31.76855469 485.9103125 31.34960938 486.765625 30.91796875 C489 30 489 30 492 30 C492 29.34 492 28.68 492 28 C492.89460938 27.50371094 493.78921875 27.00742187 494.7109375 26.49609375 C501.39826559 22.75041102 507.83218864 18.90700704 514.01171875 14.34765625 C516 13 516 13 519 12 C519.763125 11.195625 520.52625 10.39125 521.3125 9.5625 C524.17295492 6.83508949 526.21806528 5.96747167 530 5 C530 9.68091299 529.00354129 10.62101604 526 14 C526.33 14.33 526.66 14.66 527 15 C527.74015057 19.52314239 527.81768543 21.76252071 525.25 25.6484375 C523.81645827 27.39428653 522.34959733 29.11341534 520.84765625 30.80078125 C518.81236055 32.94937518 518.81236055 32.94937518 518 36 C516.35697047 37.68997323 514.68528688 39.35216394 513 41 C511.98889965 42.15705972 510.98922192 43.32418067 510 44.5 C507.47639453 47.4919034 504.76800448 50.23199552 502 53 C501.34 53.99 500.68 54.98 500 56 C499.34 56 498.68 56 498 56 C497.62875 57.0828125 497.62875 57.0828125 497.25 58.1875 C495.88745796 61.25321959 494.14629658 63.43829118 492 66 C491.67 66.66 491.34 67.32 491 68 C490.34 68 489.68 68 489 68 C488.67 68.99 488.34 69.98 488 71 C487.071875 71.433125 487.071875 71.433125 486.125 71.875 C483.33206369 73.35361334 482.55624314 75.31194367 481 78 C480.34 78 479.68 78 479 78 C478.67 79.32 478.34 80.64 478 82 C477.34 82 476.68 82 476 82 C475.67 82.99 475.34 83.98 475 85 C474.34 85 473.68 85 473 85 C472.67 86.98 472.34 88.96 472 91 C471.34 91 470.68 91 470 91 C469.67 91.99 469.34 92.98 469 94 C468.34 94 467.68 94 467 94 C466.71125 94.598125 466.4225 95.19625 466.125 95.8125 C465 98 465 98 463 101 C462.01 101 461.02 101 460 101 C460 101.99 460 102.98 460 104 C459.01 104 458.02 104 457 104 C456.87625 104.639375 456.7525 105.27875 456.625 105.9375 C456.41875 106.618125 456.2125 107.29875 456 108 C455.34 108.33 454.68 108.66 454 109 C453.34786708 111.02463255 453.34786708 111.02463255 453 113 C452.01 113 451.02 113 450 113 C449.87625 113.804375 449.87625 113.804375 449.75 114.625 C448.72418729 117.87340691 447.03436106 120.28751859 445 123 C444.34 123 443.68 123 443 123 C443 123.66 443 124.32 443 125 C441.35 125.66 439.7 126.32 438 127 C438 127.99 438 128.98 438 130 C436.515 130.99 436.515 130.99 435 132 C434.67 132.99 434.34 133.98 434 135 C433.34 135.33 432.68 135.66 432 136 C431.67 136.99 431.34 137.98 431 139 C430.02149805 140.02104551 429.02019573 141.0206121 428 142 C427.34 142.99 426.68 143.98 426 145 C425.34 145 424.68 145 424 145 C423.67 146.32 423.34 147.64 423 149 C422.34 149 421.68 149 421 149 C421 149.99 421 150.98 421 152 C420.21625 152.2475 419.4325 152.495 418.625 152.75 C415.67682892 154.15389099 415.0975223 155.00675737 414 158 C413.34 158 412.68 158 412 158 C411.938125 158.53625 411.87625 159.0725 411.8125 159.625 C410.64294485 163.04369966 408.32405204 165.26923885 406 168 C405.67 168.99 405.34 169.98 405 171 C404.01 171 403.02 171 402 171 C401.67 172.32 401.34 173.64 401 175 C400.34 175 399.68 175 399 175 C398.773125 175.53625 398.54625 176.0725 398.3125 176.625 C396.54429911 179.82460161 394.46329797 182.29037223 392 185 C391.34 185 390.68 185 390 185 C389.34 186.65 388.68 188.3 388 190 C387.34 190 386.68 190 386 190 C385.67 191.32 385.34 192.64 385 194 C384.34 194 383.68 194 383 194 C382.67 194.99 382.34 195.98 382 197 C381.34 197 380.68 197 380 197 C379.87625 197.639375 379.7525 198.27875 379.625 198.9375 C379.41875 199.618125 379.2125 200.29875 379 201 C378.34 201.33 377.68 201.66 377 202 C376.34786708 204.02463255 376.34786708 204.02463255 376 206 C374.68 206.33 373.36 206.66 372 207 C372 207.66 372 208.32 372 209 C371.34 209 370.68 209 370 209 C369.67 210.32 369.34 211.64 369 213 C368.34 213 367.68 213 367 213 C367 213.99 367 214.98 367 216 C366.01 216 365.02 216 364 216 C364 216.99 364 217.98 364 219 C362.1875 221.1875 362.1875 221.1875 360 223 C359.01 223 358.02 223 357 223 C357 224.65 357 226.3 357 228 C356.01 228.33 355.02 228.66 354 229 C353.855625 229.61875 353.71125 230.2375 353.5625 230.875 C352.80448687 233.73860516 351.48303388 234.49513098 349 236 C348.34 236 347.68 236 347 236 C347 236.66 347 237.32 347 238 C346.34 238 345.68 238 345 238 C344.67 239.32 344.34 240.64 344 242 C343.34 242 342.68 242 342 242 C341.67 242.99 341.34 243.98 341 245 C340.01 245 339.02 245 338 245 C338.0825 245.721875 338.165 246.44375 338.25 247.1875 C337.92256852 250.87110419 336.53906064 252.38626111 334 255 C333.34 255 332.68 255 332 255 C331.814375 255.9075 331.62875 256.815 331.4375 257.75 C329.45770438 262.22605967 327.29002983 262.77837741 323 265 C322.34 265.99 321.68 266.98 321 268 C320.34 268 319.68 268 319 268 C318.67 269.98 318.34 271.96 318 274 C317.34 274 316.68 274 316 274 C315.938125 274.556875 315.87625 275.11375 315.8125 275.6875 C314.67045135 278.93794615 312.44372943 280.61587372 310 283 C308.70480005 285.16620544 308.70480005 285.16620544 308 287 C307.01 287 306.02 287 305 287 C305 287.99 305 288.98 305 290 C304.236875 290.185625 303.47375 290.37125 302.6875 290.5625 C299.48422421 292.27588007 299.08780888 293.74139107 297.8828125 297.05859375 C296.5615259 299.96425498 294.54601439 302.08729222 292.40234375 304.421875 C290.79601394 306.15643159 290.79601394 306.15643159 289 309 C288.34 309 287.68 309 287 309 C286.34 310.32 285.68 311.64 285 313 C284.34 313 283.68 313 283 313 C282.7525 313.61875 282.505 314.2375 282.25 314.875 C281 317 281 317 278.9375 318 C278.298125 318.33 277.65875 318.66 277 319 C276.34786708 321.02463255 276.34786708 321.02463255 276 323 C275.01 323.495 275.01 323.495 274 324 C273.34786708 326.02463255 273.34786708 326.02463255 273 328 C272.34 328 271.68 328 271 328 C270.9175 328.5775 270.835 329.155 270.75 329.75 C269.78202213 332.6539336 268.31305716 334.03740604 266 336 C265.34 336 264.68 336 264 336 C263.9175 336.556875 263.835 337.11375 263.75 337.6875 C262.75069325 340.76869581 261.18581223 342.62683244 259 345 C257.66666667 345.66666667 256.33333333 346.33333333 255 347 C253.73195434 349.0335948 253.73195434 349.0335948 253 351 C252.34 351 251.68 351 251 351 C250.67 352.32 250.34 353.64 250 355 C249.34 355 248.68 355 248 355 C247.67 355.99 247.34 356.98 247 358 C246.34 358 245.68 358 245 358 C244.731875 358.7425 244.46375 359.485 244.1875 360.25 C243.04723249 362.89061949 241.90619694 364.85552844 240 367 C239.34 367 238.68 367 238 367 C237.89558594 367.59296875 237.79117188 368.1859375 237.68359375 368.796875 C236.8994359 371.32410372 235.94945476 372.4230218 234.0625 374.25 C233.53785156 374.77078125 233.01320313 375.2915625 232.47265625 375.828125 C231 377 231 377 229 377 C228.34 378.32 227.68 379.64 227 381 C226.34 381 225.68 381 225 381 C224.9175 381.7425 224.835 382.485 224.75 383.25 C223.84717548 386.56035658 222.43029893 387.64334649 220 390 C219.71125 390.804375 219.4225 391.60875 219.125 392.4375 C217.56368562 395.99382721 215.0096434 397.61736564 212 400 C211.34 400.99 210.68 401.98 210 403 C208.68 403 207.36 403 206 403 C205.67 404.32 205.34 405.64 205 407 C204.34 407 203.68 407 203 407 C202.87625 407.804375 202.7525 408.60875 202.625 409.4375 C202.41875 410.283125 202.2125 411.12875 202 412 C201.01 412.495 201.01 412.495 200 413 C199.07133836 414.48867276 198.20294664 416.01554706 197.375 417.5625 C196.92898438 418.38878906 196.48296875 419.21507812 196.0234375 420.06640625 C195.68570313 420.70449219 195.34796875 421.34257813 195 422 C194.34 422 193.68 422 193 422 C192.67 422.99 192.34 423.98 192 425 C187.65714286 429 187.65714286 429 184 429 C183.87625 429.804375 183.7525 430.60875 183.625 431.4375 C183.41875 432.283125 183.2125 433.12875 183 434 C182.01 434.495 182.01 434.495 181 435 C180.27306096 436.97888961 179.60183749 438.97954558 179 441 C178.34 441 177.68 441 177 441 C177 441.99 177 442.98 177 444 C176.01 444 175.02 444 174 444 C173.8453125 444.8971875 173.8453125 444.8971875 173.6875 445.8125 C172.90175967 448.31258286 172.03081147 449.37535082 170 451 C169.34 451 168.68 451 168 451 C167.61328125 451.86625 167.61328125 451.86625 167.21875 452.75 C165.49064852 455.94034119 163.10391733 458.34490324 160.65625 461 C159.06105306 462.92627555 158.01567082 464.72489737 157 467 C156.34 467 155.68 467 155 467 C154.67 467.99 154.34 468.98 154 470 C153.01 470 152.02 470 151 470 C150.67 471.32 150.34 472.64 150 474 C149.34 474 148.68 474 148 474 C147.855625 474.639375 147.71125 475.27875 147.5625 475.9375 C147 478 147 478 146 479 C145.89764079 481.2975648 145.86782186 483.59835254 145.86412811 485.89819336 C145.86158549 486.63180179 145.85904287 487.36541021 145.8564232 488.1212492 C145.84902979 490.61079362 145.84882648 493.10028906 145.84851074 495.58984375 C145.84466463 497.38015844 145.84037787 499.17047224 145.83568525 500.96078491 C145.82399692 505.90487738 145.81854975 510.8489606 145.81405044 515.79306412 C145.80812007 521.11554909 145.79644796 526.43802164 145.78541565 531.76049805 C145.76703473 540.99039382 145.75220199 550.22028987 145.73963928 559.45019531 C145.72138206 572.79634643 145.69671693 586.14247983 145.67026538 599.48861694 C145.62743392 621.14084308 145.5883274 642.7930741 145.55224609 664.4453125 C145.55008329 665.7424115 145.54792049 667.0395105 145.54569215 668.37591553 C145.5303628 677.58394352 145.515166 686.79197173 145.5 696 C145.48267604 706.51822932 145.46529216 717.03645854 145.44775391 727.5546875 C145.44559504 728.85021545 145.44343617 730.14574341 145.44121188 731.48052979 C145.40514907 753.04912 145.36519924 774.61770132 145.32245111 796.1862793 C145.29624277 809.50580207 145.27359659 822.82532209 145.25546753 836.14485836 C145.2428345 845.26447978 145.22672132 854.38409064 145.20781839 863.50370121 C145.19702338 868.77357584 145.18791843 874.04344018 145.18312263 879.31332397 C145.17871478 884.12938561 145.16980284 888.94541625 145.15717942 893.76146317 C145.15341924 895.51177308 145.15138121 897.26208764 145.15115923 899.01240158 C145.15062422 901.37557355 145.14406238 903.73865072 145.13587189 906.10180664 C145.13375592 907.41927383 145.13163995 908.73674103 145.12945986 910.09413147 C145 913 145 913 144 914 C131.23163731 915.68758908 131.23163731 915.68758908 126.484375 912.09765625 C123.97689008 908.84740793 122.29803765 905.89411294 121 902 C118.49552484 900.78130071 118.49552484 900.78130071 116 900 C116 899.01 116 898.02 116 897 C115.401875 896.896875 114.80375 896.79375 114.1875 896.6875 C111.68741714 895.90175967 110.62464918 895.03081147 109 893 C109 892.34 109 891.68 109 891 C108.34 891 107.68 891 107 891 C105.31237149 889.3545622 103.6459651 887.68711423 102 886 C101.34 885.67 100.68 885.34 100 885 C100 884.01 100 883.02 100 882 C98.35 882 96.7 882 95 882 C94.67 881.01 94.34 880.02 94 879 C92.9171875 878.8453125 92.9171875 878.8453125 91.8125 878.6875 C88.66145861 877.91724544 86.71869493 876.77031298 84 875 C83.33226562 874.61457031 82.66453125 874.22914063 81.9765625 873.83203125 C81.26242187 873.41308594 80.54828125 872.99414062 79.8125 872.5625 C79.13832031 872.17191406 78.46414063 871.78132813 77.76953125 871.37890625 C76 870 76 870 74.95703125 867.88671875 C74.64121094 867.26410156 74.32539062 866.64148437 74 866 C70.94091587 865.18415432 70.94091587 865.18415432 68 865 C68 864.34 68 863.68 68 863 C66.081875 863.0309375 66.081875 863.0309375 64.125 863.0625 C60.25 863.125 60.25 863.125 58 862 C58 861.34 58 860.68 58 860 C56.6078125 860.061875 56.6078125 860.061875 55.1875 860.125 C52 860 52 860 49 858 C46.42286746 857.5437208 43.90701715 857.17054724 41.3125 856.875 C40.61060547 856.78863281 39.90871094 856.70226563 39.18554688 856.61328125 C37.45788855 856.40173125 35.7290434 856.199914 34 856 C33.67 855.01 33.34 854.02 33 853 C31.13794922 853.10441406 31.13794922 853.10441406 29.23828125 853.2109375 C27.59640842 853.26723028 25.95447689 853.32182881 24.3125 853.375 C23.08756836 853.45041016 23.08756836 853.45041016 21.83789062 853.52734375 C21.04189453 853.54667969 20.24589844 853.56601563 19.42578125 853.5859375 C18.69786377 853.6173584 17.96994629 853.6487793 17.2199707 853.68115234 C14.40373278 852.81704767 12.89416956 851.33269998 11.07709549 849.05158769 C8.78796109 844.69138007 9.3209484 839.71704794 9.36914349 834.9078846 C9.36168589 833.67351386 9.3542283 832.43914313 9.34654471 831.16736722 C9.33086437 827.73296278 9.33762517 824.29991513 9.35372983 820.86559925 C9.3657362 817.13269351 9.34876926 813.39990254 9.33544332 809.66701686 C9.31608538 803.12223046 9.31529873 796.57764492 9.32659721 790.03284264 C9.34331384 780.30098237 9.33145365 770.56930442 9.31368351 760.83745352 C9.28460476 744.46768105 9.27878275 728.0979771 9.28615379 711.72818375 C9.29337768 695.51690753 9.29030253 679.30568733 9.27343178 663.09441757 C9.27238913 662.0869559 9.27134648 661.07949423 9.27027224 660.04150342 C9.26492358 654.92524435 9.25939053 649.80898551 9.25378648 644.69272672 C9.21441099 608.44163448 9.19818867 572.19056509 9.19555664 535.93945312 C9.19294653 500.71906237 9.17986499 465.49870098 9.15258789 430.27832031 C9.15175147 429.19293082 9.15091504 428.10754133 9.15005327 426.98926125 C9.14164207 416.08946707 9.13301778 405.18967306 9.12423737 394.28987917 C9.10635503 372.08517059 9.08989508 349.88046103 9.07429504 327.67575073 C9.073576 326.65478403 9.07285697 325.63381732 9.07211614 324.58191223 C9.02425205 256.3879515 9.0095466 188.19397552 9 120 C8.01 119.67 7.02 119.34 6 119 C6 118.34 6 117.68 6 117 C5.01 116.67 4.02 116.34 3 116 C3 115.34 3 114.68 3 114 C-0.3 114 -3.6 114 -7 114 C-7.33 114.99 -7.66 115.98 -8 117 C-8.66 117 -9.32 117 -10 117 C-11.485 121.455 -11.485 121.455 -13 126 C-13.66 126 -14.32 126 -15 126 C-14.99968804 126.62237762 -14.99937608 127.24475525 -14.99905466 127.8859928 C-14.96517219 195.62454417 -14.93375995 263.36309651 -14.91531372 331.10165405 C-14.91503761 332.11301727 -14.91476149 333.12438048 -14.91447701 334.16639106 C-14.90849162 356.14441997 -14.9029512 378.12244896 -14.89786934 400.10047809 C-14.8953746 410.87802057 -14.8927815 421.65556302 -14.89013672 432.43310547 C-14.8898752 433.50561797 -14.88961368 434.57813047 -14.88934424 435.68314335 C-14.88081689 470.46550731 -14.86579081 505.2478648 -14.84740556 540.03022483 C-14.8285514 575.76449283 -14.81623167 611.49875725 -14.81217002 647.23303014 C-14.81159368 652.27670531 -14.81094241 657.32038048 -14.81024551 662.36405563 C-14.81011067 663.35675314 -14.80997582 664.34945065 -14.80983689 665.3722299 C-14.80747064 681.37161866 -14.79818695 697.37099634 -14.78633593 713.37038057 C-14.77457742 729.44322328 -14.77006003 745.51605497 -14.77299725 761.58890183 C-14.77452192 771.14577497 -14.77043153 780.70260787 -14.75840491 790.25947377 C-14.75092485 796.63747284 -14.75065876 803.01544545 -14.75633637 809.39344631 C-14.75936598 813.0313712 -14.75918522 816.66921979 -14.75023364 820.30713661 C-14.74067606 824.22093938 -14.74649618 828.13463146 -14.75390434 832.04844093 C-14.74865032 833.18459888 -14.74339629 834.32075682 -14.73798305 835.4913438 C-14.78774584 847.03557159 -14.78774584 847.03557159 -18.37866211 851.84741211 C-21.32685934 853.94324694 -25.05995622 853.50145982 -28.5625 853.5625 C-34.29425087 853.32995583 -34.29425087 853.32995583 -39 856 C-41.30006992 856.4104214 -43.61655135 856.73173762 -45.9375 857 C-51.29780258 857.56496553 -51.29780258 857.56496553 -56 860 C-58.04296875 860.1953125 -58.04296875 860.1953125 -60.1875 860.125 C-61.445625 860.08375 -62.70375 860.0425 -64 860 C-64.33 860.99 -64.66 861.98 -65 863 C-67.97 863 -70.94 863 -74 863 C-74.33 863.99 -74.66 864.98 -75 866 C-76.65532623 867.01866229 -78.32260138 868.01810813 -80 869 C-80.66 869.99 -81.32 870.98 -82 872 C-85.125 872.1875 -85.125 872.1875 -88 872 C-88.33 872.99 -88.66 873.98 -89 875 C-90.32 875 -91.64 875 -93 875 C-93 875.99 -93 876.98 -93 878 C-93.969375 878.28875 -94.93875 878.5775 -95.9375 878.875 C-99.10664203 879.64214682 -99.10664203 879.64214682 -100 882 C-100.99 882 -101.98 882 -103 882 C-103 882.66 -103 883.32 -103 884 C-108.35714286 889 -108.35714286 889 -112 889 C-112.33 889.99 -112.66 890.98 -113 892 C-114.65532623 893.01866229 -116.32260138 894.01810813 -118 895 C-118.66 895.99 -119.32 896.98 -120 898 C-120.66 898 -121.32 898 -122 898 C-122 898.99 -122 899.98 -122 901 C-122.99 901 -123.98 901 -125 901 C-125.33 902.32 -125.66 903.64 -126 905 C-126.66 905 -127.32 905 -128 905 C-128.33 905.99 -128.66 906.98 -129 908 C-129.66 908 -130.32 908 -131 908 C-131.33 909.65 -131.66 911.3 -132 913 C-135.25469015 914.08489672 -137.70543209 914.13323992 -141.125 914.125 C-142.20007813 914.12757813 -143.27515625 914.13015625 -144.3828125 914.1328125 C-147 914 -147 914 -148 913 C-148.09869291 910.72970707 -148.12478999 908.45626639 -148.12469864 906.18382931 C-148.12604287 905.45907155 -148.12738711 904.73431379 -148.12877208 903.98759368 C-148.13211477 901.52808027 -148.12827644 899.0686278 -148.12457275 896.6091156 C-148.12555795 894.84028963 -148.12699422 893.07146386 -148.12884593 891.30263859 C-148.13191658 887.44076458 -148.13178872 883.57890778 -148.12928963 879.71703339 C-148.1252446 873.43470807 -148.12799157 867.15239633 -148.13163757 860.87007141 C-148.13573432 852.9326973 -148.13796734 844.99532622 -148.13805357 837.05795104 C-148.13825596 821.45887275 -148.1506962 805.85982568 -148.16766357 790.26075745 C-148.17026946 787.80745696 -148.17286827 785.35415646 -148.1754601 782.90085596 C-148.17939871 779.18226443 -148.18334519 775.46367292 -148.18732132 771.74508144 C-148.20227906 757.71278664 -148.21589741 743.68049089 -148.22802734 729.64819336 C-148.22969769 727.72324281 -148.22969769 727.72324281 -148.23140177 725.75940437 C-148.24897257 704.96851896 -148.25184628 684.17765301 -148.25017694 663.38676142 C-148.24889845 642.05654359 -148.26662081 620.7263983 -148.30119491 599.39620835 C-148.32186582 586.23173034 -148.32716645 573.06742593 -148.3128666 559.90293867 C-148.3044153 550.88040044 -148.31411875 541.85799729 -148.3381761 532.8354876 C-148.35150045 527.62742063 -148.35664308 522.41967755 -148.34005547 517.2116127 C-148.32503759 512.44370626 -148.33299268 507.67641072 -148.359225 502.9085579 C-148.36464978 501.18369776 -148.36162841 499.45878606 -148.34930804 497.7339614 C-148.25864651 485.54716449 -148.25864651 485.54716449 -154 475 C-154.3125 472 -154.3125 472 -154 470 C-154.99 470 -155.98 470 -157 470 C-158.2032112 468.56283107 -159.3997296 467.1190241 -160.546875 465.63671875 C-162.07343391 463.91728815 -163.56664575 462.8564626 -165.5 461.625 C-169.5132353 458.92023748 -172.0067414 455.39068023 -174 451 C-174 450.01 -174 449.02 -174 448 C-174.99 447.67 -175.98 447.34 -177 447 C-177 446.34 -177 445.68 -177 445 C-177.99 444.67 -178.98 444.34 -180 444 C-180 443.01 -180 442.02 -180 441 C-180.99 441 -181.98 441 -183 441 C-183.33 440.01 -183.66 439.02 -184 438 C-185.64429829 436.31126121 -187.31384218 434.64694485 -189 433 C-193 428.35135135 -193 428.35135135 -193 426 C-193.99 425.67 -194.98 425.34 -196 425 C-196 424.01 -196 423.02 -196 422 C-196.99 422 -197.98 422 -199 422 C-201.35723489 419.46815512 -202 418.52809907 -202 415 C-202.99 415 -203.98 415 -205 415 C-205.350625 414.13375 -205.70125 413.2675 -206.0625 412.375 C-208.11595997 408.79800522 -210.13006829 406.99286331 -213.28125 404.44921875 C-215.55127918 402.53517142 -217.30962154 400.43414499 -219 398 C-219 397.34 -219 396.68 -219 396 C-219.99 395.67 -220.98 395.34 -222 395 C-222 394.34 -222 393.68 -222 393 C-222.66 393 -223.32 393 -224 393 C-225.81242323 388.9811485 -227.33501617 385.38889325 -228 381 C-229.65 380.67 -231.3 380.34 -233 380 C-233.33 379.01 -233.66 378.02 -234 377 C-236.01508358 376.26676204 -236.01508358 376.26676204 -238 376 C-238 375.34 -238 374.68 -238 374 C-238.66 374 -239.32 374 -240 374 C-240.33 372.68 -240.66 371.36 -241 370 C-241.66 370 -242.32 370 -243 370 C-243 369.01 -243 368.02 -243 367 C-243.66 367 -244.32 367 -245 367 C-248 361.375 -248 361.375 -248 358 C-248.99 357.67 -249.98 357.34 -251 357 C-251 356.34 -251 355.68 -251 355 C-251.7425 354.731875 -252.485 354.46375 -253.25 354.1875 C-255.90909879 353.0392528 -257.87781485 351.96498625 -260 350 C-260 349.01 -260 348.02 -260 347 C-260.66 347 -261.32 347 -262 347 C-267.17700113 341.44419391 -267.17700113 341.44419391 -268 337 C-268.66 336.67 -269.32 336.34 -270 336 C-270 335.01 -270 334.02 -270 333 C-270.804375 332.690625 -270.804375 332.690625 -271.625 332.375 C-274.91978009 330.46749574 -277.59363628 327.95180616 -280 325 C-280 324.34 -280 323.68 -280 323 C-280.99 322.67 -281.98 322.34 -283 322 C-283 321.34 -283 320.68 -283 320 C-283.99 319.67 -284.98 319.34 -286 319 C-286.04125 318.278125 -286.0825 317.55625 -286.125 316.8125 C-287.35151039 312.87014518 -289.79294066 311.50150628 -293 309 C-296 305.5 -296 305.5 -296 303 C-296.66 303 -297.32 303 -298 303 C-298 302.01 -298 301.02 -298 300 C-298.78375 299.71125 -299.5675 299.4225 -300.375 299.125 C-303 298 -303 298 -305 296 C-305.0825 295.21625 -305.165 294.4325 -305.25 293.625 C-306.32782076 289.85262734 -308.78746235 289.05055595 -312 287 C-312 286.01 -312 285.02 -312 284 C-312.99 283.67 -313.98 283.34 -315 283 C-315 282.34 -315 281.68 -315 281 C-315.99 280.67 -316.98 280.34 -318 280 C-318.33 278.35 -318.66 276.7 -319 275 C-319.99 274.67 -320.98 274.34 -322 274 C-322 272.02 -322 270.04 -322 268 C-323.65 268 -325.3 268 -327 268 C-327.33 267.01 -327.66 266.02 -328 265 C-328.99 264.67 -329.98 264.34 -331 264 C-331 263.34 -331 262.68 -331 262 C-331.99 261.67 -332.98 261.34 -334 261 C-334 260.01 -334 259.02 -334 258 C-334.99 257.67 -335.98 257.34 -337 257 C-339.86935543 253.31082874 -341 251.75567676 -341 247 C-341.66 247 -342.32 247 -343 247 C-344.625 245.625 -344.625 245.625 -346 244 C-346 243.34 -346 242.68 -346 242 C-346.8971875 241.8453125 -346.8971875 241.8453125 -347.8125 241.6875 C-350.33421352 240.89496146 -351.39685699 240.08408591 -353 238 C-353 237.01 -353 236.02 -353 235 C-353.99 235 -354.98 235 -356 235 C-356.226875 234.2575 -356.45375 233.515 -356.6875 232.75 C-358.24388416 229.48900462 -360.20033601 228.21026104 -363 226 C-363 225.01 -363 224.02 -363 223 C-363.66 223 -364.32 223 -365 223 C-367 220 -367 220 -367 216 C-368.65 216 -370.3 216 -372 216 C-372 215.01 -372 214.02 -372 213 C-372.99 212.67 -373.98 212.34 -375 212 C-377.1875 210.125 -377.1875 210.125 -379 208 C-379 207.01 -379 206.02 -379 205 C-379.99 204.67 -380.98 204.34 -382 204 C-382.70381157 202.01276732 -383.3711811 200.01222047 -384 198 C-384.66 197.67 -385.32 197.34 -386 197 C-386 196.01 -386 195.02 -386 194 C-386.99 194 -387.98 194 -389 194 C-389.33 193.01 -389.66 192.02 -390 191 C-391.75881906 189.21744992 -391.75881906 189.21744992 -393.875 187.5 C-398.28045762 183.79356333 -400.87155994 181.39204816 -403 176 C-403.66 175.67 -404.32 175.34 -405 175 C-405 174.01 -405 173.02 -405 172 C-405.99 171.67 -406.98 171.34 -408 171 C-408 170.01 -408 169.02 -408 168 C-408.99 168 -409.98 168 -411 168 C-411 167.01 -411 166.02 -411 165 C-411.99 165 -412.98 165 -414 165 C-414.33 163.68 -414.66 162.36 -415 161 C-415.59554687 160.938125 -416.19109375 160.87625 -416.8046875 160.8125 C-419.92721845 159.65683018 -420.5604326 157.88339123 -422.125 155 C-423.91256419 151.34006946 -423.91256419 151.34006946 -427 149 C-427 148.01 -427 147.02 -427 146 C-427.99 145.67 -428.98 145.34 -430 145 C-433.12331544 141.97663065 -435.67417699 138.49367122 -438.0625 134.875 C-439.93719255 131.89549796 -439.93719255 131.89549796 -442.625 129.375 C-444.73810464 127.26189536 -445.88809049 125.72923244 -447 123 C-447.66 123 -448.32 123 -449 123 C-452.03765592 120.35429968 -454.19846615 117.6030677 -456 114 C-456 112.68 -456 111.36 -456 110 C-456.66 110 -457.32 110 -458 110 C-460 107 -460 107 -460 104 C-461.65 104 -463.3 104 -465 104 C-465.33 103.01 -465.66 102.02 -466 101 C-466.99 100.67 -467.98 100.34 -469 100 C-471.62225892 98.08373387 -471.98538152 97.0677766 -472.6875 93.8125 C-472.8421875 92.4203125 -472.8421875 92.4203125 -473 91 C-473.66 91 -474.32 91 -475 91 C-475.33 90.01 -475.66 89.02 -476 88 C-476.515625 87.505 -477.03125 87.01 -477.5625 86.5 C-479 85 -479 85 -479 82 C-479.99 82 -480.98 82 -482 82 C-482 81.01 -482 80.02 -482 79 C-482.721875 78.773125 -483.44375 78.54625 -484.1875 78.3125 C-487.56432417 76.73664872 -489.55767039 74.79123384 -492 72 C-492 71.34 -492 70.68 -492 70 C-492.66 70 -493.32 70 -494 70 C-494.33 68.35 -494.66 66.7 -495 65 C-495.66 65 -496.32 65 -497 65 C-498.21875 63.28515625 -498.21875 63.28515625 -499.5 61.0625 C-501.18454879 57.94567974 -501.18454879 57.94567974 -504 56 C-504 55.01 -504 54.02 -504 53 C-504.556875 52.9175 -505.11375 52.835 -505.6875 52.75 C-508.79888018 51.74090373 -510.6312518 50.24407724 -513 48 C-513.72159424 46.35636866 -514.39351421 44.68949614 -515 43 C-515.53625 42.46375 -516.0725 41.9275 -516.625 41.375 C-517.305625 40.694375 -517.305625 40.694375 -518 40 C-518 39.01 -518 38.02 -518 37 C-518.99 36.67 -519.98 36.34 -521 36 C-522.6875 34.625 -522.6875 34.625 -524 33 C-524 32.01 -524 31.02 -524 30 C-524.99 29.67 -525.98 29.34 -527 29 C-529.28062828 25.57905758 -529.21925007 24.31812778 -529.125 20.3125 C-529.10695313 19.31863281 -529.08890625 18.32476562 -529.0703125 17.30078125 C-529.04710937 16.54152344 -529.02390625 15.78226562 -529 15 C-525.535 14.505 -525.535 14.505 -522 14 C-522.45375 13.566875 -522.9075 13.13375 -523.375 12.6875 C-525.87043494 10.09608679 -527 8.6595435 -527 5 C-523.56072421 6.2419607 -520.74792181 7.55740284 -518 10 C-518 10.66 -518 11.32 -518 12 C-517.34 12.226875 -516.68 12.45375 -516 12.6875 C-512.11341372 14.3878815 -508.36320183 16.39623084 -505 19 C-505 19.66 -505 20.32 -505 21 C-504.154375 21.2475 -503.30875 21.495 -502.4375 21.75 C-497.69952303 23.47290072 -493.61837997 25.62011813 -489.7734375 28.8984375 C-486.43356013 31.42921782 -482.99828556 33.05064491 -479.1875 34.75 C-478.14819336 35.22373047 -478.14819336 35.22373047 -477.08789062 35.70703125 C-475.39479329 36.47768245 -473.69778588 37.23973362 -472 38 C-472 38.66 -472 39.32 -472 40 C-471.46632813 40.17015625 -470.93265625 40.3403125 -470.3828125 40.515625 C-464.4828829 42.43463324 -458.73695531 44.64054239 -453 47 C-453 47.66 -453 48.32 -453 49 C-452.42894531 49.15855469 -451.85789062 49.31710937 -451.26953125 49.48046875 C-444.00973874 51.56953464 -437.01935413 54.21646302 -430 57 C-430 57.66 -430 58.32 -430 59 C-429.06027344 59.10183594 -428.12054688 59.20367187 -427.15234375 59.30859375 C-422.13897328 60.02478953 -417.3882978 61.56507822 -412.5625 63.0625 C-411.64017578 63.34416016 -410.71785156 63.62582031 -409.76757812 63.91601562 C-407.51026202 64.60607599 -405.25450816 65.30083123 -403 66 C-403 66.66 -403 67.32 -403 68 C-401.9996875 68.10183594 -400.999375 68.20367187 -399.96875 68.30859375 C-393.08102425 69.16955947 -386.29731485 70.67765485 -379.5 72.0625 C-378.09120027 72.34727464 -376.68234651 72.63178213 -375.2734375 72.91601562 C-371.84832956 73.60759626 -368.42396827 74.30279605 -365 75 C-365 75.66 -365 76.32 -365 77 C-364.18587646 77.05406006 -363.37175293 77.10812012 -362.53295898 77.16381836 C-355.96148333 77.61496949 -349.40469421 78.13083668 -342.84765625 78.75390625 C-308.66990142 81.96152408 -274.14568766 82.44373784 -240.09375 77.3671875 C-236.70472331 76.96495453 -233.40965343 76.93972835 -230 77 C-230 76.34 -230 75.68 -230 75 C-223.73 74.01 -217.46 73.02 -211 72 C-210.113125 73.216875 -209.22625 74.43375 -208.3125 75.6875 C-206.44837237 78.18175528 -204.64744567 80.35255433 -202.4375 82.5625 C-199.9846988 85.0153012 -198.14774089 87.53585896 -196.18359375 90.375 C-194.65471016 92.4740613 -192.86300427 94.19521462 -191 96 C-186 101.40229885 -186 101.40229885 -186 105 C-185.1646875 105.309375 -185.1646875 105.309375 -184.3125 105.625 C-181.02987629 107.57683032 -179.29326754 109.94230994 -177 113 C-177 113.66 -177 114.32 -177 115 C-176.01 115.33 -175.02 115.66 -174 116 C-169.53080569 120.90521327 -169.53080569 120.90521327 -168 124.0625 C-166.53340424 126.90402928 -164.27820577 128.77603723 -162 131 C-158 135.64864865 -158 135.64864865 -158 138 C-157.4225 138.20625 -156.845 138.4125 -156.25 138.625 C-153.77111144 140.13987634 -152.7660223 141.72955061 -151.2578125 144.1640625 C-149.12729659 147.27382175 -146.54055559 149.97808021 -144.015625 152.76953125 C-141.78057409 155.24281433 -139.60677321 157.76054264 -137.453125 160.3046875 C-136.41809405 161.51222361 -135.36378012 162.70334399 -134.296875 163.8828125 C-133.74515625 164.49898437 -133.1934375 165.11515625 -132.625 165.75 C-131.87089844 166.57757813 -131.87089844 166.57757813 -131.1015625 167.421875 C-130 169 -130 169 -130 172 C-129.40058594 172.25136719 -128.80117188 172.50273437 -128.18359375 172.76171875 C-125.70637847 174.16650809 -124.67039712 175.48305348 -123.0625 177.8125 C-121.25864669 180.33425967 -119.58292414 182.41707586 -117.375 184.625 C-114.79357342 187.20642658 -113.00577288 189.95898951 -111 193 C-110.360625 193.639375 -109.72125 194.27875 -109.0625 194.9375 C-106.83642417 197.16357583 -105.18105587 199.50858857 -103.44140625 202.12109375 C-101.93891343 204.16433628 -101.93891343 204.16433628 -99.62890625 206.37109375 C-97.00342777 208.99657223 -94.69628629 211.72937484 -92.375 214.625 C-90.01874257 217.56026949 -87.68671718 220.36692138 -85 223 C-84.99576806 222.38947124 -84.99153612 221.77894247 -84.98717594 221.14991283 C-84.88392573 206.30270386 -84.77529642 191.45554159 -84.66066074 176.60841656 C-84.60535416 169.42849544 -84.55187637 162.24856935 -84.50268555 155.06860352 C-84.4598123 148.811434 -84.41352637 142.55430069 -84.36312145 136.29718715 C-84.33654581 132.98330344 -84.3122023 129.66942758 -84.29092598 126.35550499 C-84.26690022 122.65842036 -84.23684295 118.96143153 -84.20532227 115.2644043 C-84.1995668 114.16245224 -84.19381134 113.06050018 -84.18788147 111.92515564 C-84.17809265 110.91974731 -84.16830383 109.91433899 -84.15821838 108.87846375 C-84.14853956 107.56629143 -84.14853956 107.56629143 -84.1386652 106.22761059 C-84 104 -84 104 -83 101 C-82.34 100.67 -81.68 100.34 -81 100 C-80.690625 99.21625 -80.38125 98.4325 -80.0625 97.625 C-78.96470104 94.9127908 -78.14607649 93.90762354 -76 92 C-72.43881723 88.62337035 -72.43881723 88.62337035 -69.62109375 84.64453125 C-67.86072383 81.77279527 -65.86336707 79.5185689 -63.5625 77.0625 C-59.89458641 73.07748282 -59.89458641 73.07748282 -56.75 68.6875 C-54.8087288 65.70626209 -52.51078242 63.51078242 -50 61 C-49.34 60.01 -48.68 59.02 -48 58 C-45.9370785 54.90561775 -43.62378924 52.62378924 -41 50 C-40.12619083 48.80579413 -39.27245012 47.59669081 -38.4375 46.375 C-36.55306646 43.63400576 -34.6880271 41.97121988 -32 40 C-31.2575 38.7315625 -31.2575 38.7315625 -30.5 37.4375 C-29 35 -29 35 -26.9375 34 C-24.78602686 33.15730547 -24.78602686 33.15730547 -24.125 30.8125 C-22.56615398 26.91538494 -20.05003677 23.87598576 -17 21 C-16.34 21 -15.68 21 -15 21 C-14.62294922 20.15888672 -14.62294922 20.15888672 -14.23828125 19.30078125 C-12.81178021 16.65027931 -11.1007898 14.51051917 -9.1875 12.1875 C-5.96081817 8.22026824 -2.91965097 4.19699827 0 0 Z " fill="currentColor" fill-opacity="0.5" transform="translate(607,243)"/>
  <path d="M0 0 C-1.37154504 2.95409701 -2.98863724 5.44008376 -5 8 C-4.67 8.33 -4.34 8.66 -4 9 C-3.25984943 13.52314239 -3.18231457 15.76252071 -5.75 19.6484375 C-7.18354173 21.39428653 -8.65040267 23.11341534 -10.15234375 24.80078125 C-12.18763945 26.94937518 -12.18763945 26.94937518 -13 30 C-14.64302953 31.68997323 -16.31471312 33.35216394 -18 35 C-19.01110035 36.15705972 -20.01077808 37.32418067 -21 38.5 C-23.52360547 41.4919034 -26.23199552 44.23199552 -29 47 C-29.66 47.99 -30.32 48.98 -31 50 C-31.66 50 -32.32 50 -33 50 C-33.37125 51.0828125 -33.37125 51.0828125 -33.75 52.1875 C-35.11254204 55.25321959 -36.85370342 57.43829118 -39 60 C-39.33 60.66 -39.66 61.32 -40 62 C-40.66 62 -41.32 62 -42 62 C-42.33 62.99 -42.66 63.98 -43 65 C-43.928125 65.433125 -43.928125 65.433125 -44.875 65.875 C-47.66793631 67.35361334 -48.44375686 69.31194367 -50 72 C-50.66 72 -51.32 72 -52 72 C-52.33 73.32 -52.66 74.64 -53 76 C-53.66 76 -54.32 76 -55 76 C-55.33 76.99 -55.66 77.98 -56 79 C-56.66 79 -57.32 79 -58 79 C-58.33 80.98 -58.66 82.96 -59 85 C-59.66 85 -60.32 85 -61 85 C-61.33 85.99 -61.66 86.98 -62 88 C-62.66 88 -63.32 88 -64 88 C-64.28875 88.598125 -64.5775 89.19625 -64.875 89.8125 C-66 92 -66 92 -68 95 C-68.99 95 -69.98 95 -71 95 C-71 95.99 -71 96.98 -71 98 C-71.99 98 -72.98 98 -74 98 C-74.12375 98.639375 -74.2475 99.27875 -74.375 99.9375 C-74.58125 100.618125 -74.7875 101.29875 -75 102 C-75.66 102.33 -76.32 102.66 -77 103 C-77.65213292 105.02463255 -77.65213292 105.02463255 -78 107 C-78.99 107 -79.98 107 -81 107 C-81.12375 107.804375 -81.12375 107.804375 -81.25 108.625 C-82.27581271 111.87340691 -83.96563894 114.28751859 -86 117 C-86.66 117 -87.32 117 -88 117 C-88 117.66 -88 118.32 -88 119 C-89.65 119.66 -91.3 120.32 -93 121 C-93 121.99 -93 122.98 -93 124 C-94.485 124.99 -94.485 124.99 -96 126 C-96.33 126.99 -96.66 127.98 -97 129 C-97.66 129.33 -98.32 129.66 -99 130 C-99.33 130.99 -99.66 131.98 -100 133 C-100.97850195 134.02104551 -101.97980427 135.0206121 -103 136 C-103.66 136.99 -104.32 137.98 -105 139 C-105.66 139 -106.32 139 -107 139 C-107.33 140.32 -107.66 141.64 -108 143 C-108.66 143 -109.32 143 -110 143 C-110 143.99 -110 144.98 -110 146 C-110.78375 146.2475 -111.5675 146.495 -112.375 146.75 C-115.32317108 148.15389099 -115.9024777 149.00675737 -117 152 C-117.66 152 -118.32 152 -119 152 C-119.061875 152.53625 -119.12375 153.0725 -119.1875 153.625 C-120.35705515 157.04369966 -122.67594796 159.26923885 -125 162 C-125.33 162.99 -125.66 163.98 -126 165 C-126.99 165 -127.98 165 -129 165 C-129.33 166.32 -129.66 167.64 -130 169 C-130.66 169 -131.32 169 -132 169 C-132.226875 169.53625 -132.45375 170.0725 -132.6875 170.625 C-134.45570089 173.82460161 -136.53670203 176.29037223 -139 179 C-139.66 179 -140.32 179 -141 179 C-141.66 180.65 -142.32 182.3 -143 184 C-143.66 184 -144.32 184 -145 184 C-145.33 185.32 -145.66 186.64 -146 188 C-146.66 188 -147.32 188 -148 188 C-148.33 188.99 -148.66 189.98 -149 191 C-149.66 191 -150.32 191 -151 191 C-151.12375 191.639375 -151.2475 192.27875 -151.375 192.9375 C-151.58125 193.618125 -151.7875 194.29875 -152 195 C-152.66 195.33 -153.32 195.66 -154 196 C-154.65213292 198.02463255 -154.65213292 198.02463255 -155 200 C-156.32 200.33 -157.64 200.66 -159 201 C-159 201.66 -159 202.32 -159 203 C-159.66 203 -160.32 203 -161 203 C-161.33 204.32 -161.66 205.64 -162 207 C-162.66 207 -163.32 207 -164 207 C-164 207.99 -164 208.98 -164 210 C-164.99 210 -165.98 210 -167 210 C-167 210.99 -167 211.98 -167 213 C-168.8125 215.1875 -168.8125 215.1875 -171 217 C-171.99 217 -172.98 217 -174 217 C-174 218.65 -174 220.3 -174 222 C-174.99 222.33 -175.98 222.66 -177 223 C-177.144375 223.61875 -177.28875 224.2375 -177.4375 224.875 C-178.19551313 227.73860516 -179.51696612 228.49513098 -182 230 C-182.66 230 -183.32 230 -184 230 C-184 230.66 -184 231.32 -184 232 C-184.66 232 -185.32 232 -186 232 C-186.33 233.32 -186.66 234.64 -187 236 C-187.66 236 -188.32 236 -189 236 C-189.33 236.99 -189.66 237.98 -190 239 C-190.99 239 -191.98 239 -193 239 C-192.9175 239.721875 -192.835 240.44375 -192.75 241.1875 C-193.07743148 244.87110419 -194.46093936 246.38626111 -197 249 C-197.66 249 -198.32 249 -199 249 C-199.185625 249.9075 -199.37125 250.815 -199.5625 251.75 C-201.54229562 256.22605967 -203.70997017 256.77837741 -208 259 C-208.66 259.99 -209.32 260.98 -210 262 C-210.66 262 -211.32 262 -212 262 C-212.33 263.98 -212.66 265.96 -213 268 C-213.66 268 -214.32 268 -215 268 C-215.061875 268.556875 -215.12375 269.11375 -215.1875 269.6875 C-216.32954865 272.93794615 -218.55627057 274.61587372 -221 277 C-222.29519995 279.16620544 -222.29519995 279.16620544 -223 281 C-223.99 281 -224.98 281 -226 281 C-226 281.99 -226 282.98 -226 284 C-226.763125 284.185625 -227.52625 284.37125 -228.3125 284.5625 C-231.51577579 286.27588007 -231.91219112 287.74139107 -233.1171875 291.05859375 C-234.4384741 293.96425498 -236.45398561 296.08729222 -238.59765625 298.421875 C-240.20398606 300.15643159 -240.20398606 300.15643159 -242 303 C-242.66 303 -243.32 303 -244 303 C-244.66 304.32 -245.32 305.64 -246 307 C-246.66 307 -247.32 307 -248 307 C-248.2475 307.61875 -248.495 308.2375 -248.75 308.875 C-250 311 -250 311 -252.0625 312 C-252.701875 312.33 -253.34125 312.66 -254 313 C-254.65213292 315.02463255 -254.65213292 315.02463255 -255 317 C-255.99 317.495 -255.99 317.495 -257 318 C-257.65213292 320.02463255 -257.65213292 320.02463255 -258 322 C-258.66 322 -259.32 322 -260 322 C-260.0825 322.5775 -260.165 323.155 -260.25 323.75 C-261.21797787 326.6539336 -262.68694284 328.03740604 -265 330 C-265.66 330 -266.32 330 -267 330 C-267.0825 330.556875 -267.165 331.11375 -267.25 331.6875 C-268.24930675 334.76869581 -269.81418777 336.62683244 -272 339 C-273.33333333 339.66666667 -274.66666667 340.33333333 -276 341 C-277.26804566 343.0335948 -277.26804566 343.0335948 -278 345 C-278.66 345 -279.32 345 -280 345 C-280.33 346.32 -280.66 347.64 -281 349 C-281.66 349 -282.32 349 -283 349 C-283.33 349.99 -283.66 350.98 -284 352 C-284.66 352 -285.32 352 -286 352 C-286.268125 352.7425 -286.53625 353.485 -286.8125 354.25 C-287.95276751 356.89061949 -289.09380306 358.85552844 -291 361 C-291.66 361 -292.32 361 -293 361 C-293.10441406 361.59296875 -293.20882812 362.1859375 -293.31640625 362.796875 C-294.1005641 365.32410372 -295.05054524 366.4230218 -296.9375 368.25 C-297.46214844 368.77078125 -297.98679687 369.2915625 -298.52734375 369.828125 C-300 371 -300 371 -302 371 C-302.66 372.32 -303.32 373.64 -304 375 C-304.66 375 -305.32 375 -306 375 C-306.0825 375.7425 -306.165 376.485 -306.25 377.25 C-307.15282452 380.56035658 -308.56970107 381.64334649 -311 384 C-311.28875 384.804375 -311.5775 385.60875 -311.875 386.4375 C-313.43631438 389.99382721 -315.9903566 391.61736564 -319 394 C-319.66 394.99 -320.32 395.98 -321 397 C-322.32 397 -323.64 397 -325 397 C-325.33 398.32 -325.66 399.64 -326 401 C-326.66 401 -327.32 401 -328 401 C-328.12375 401.804375 -328.2475 402.60875 -328.375 403.4375 C-328.58125 404.283125 -328.7875 405.12875 -329 406 C-329.99 406.495 -329.99 406.495 -331 407 C-331.92866164 408.48867276 -332.79705336 410.01554706 -333.625 411.5625 C-334.07101562 412.38878906 -334.51703125 413.21507812 -334.9765625 414.06640625 C-335.31429687 414.70449219 -335.65203125 415.34257813 -336 416 C-336.66 416 -337.32 416 -338 416 C-338.33 416.99 -338.66 417.98 -339 419 C-343.34285714 423 -343.34285714 423 -347 423 C-347.12375 423.804375 -347.2475 424.60875 -347.375 425.4375 C-347.58125 426.283125 -347.7875 427.12875 -348 428 C-348.99 428.495 -348.99 428.495 -350 429 C-350.72693904 430.97888961 -351.39816251 432.97954558 -352 435 C-352.66 435 -353.32 435 -354 435 C-354 435.99 -354 436.98 -354 438 C-354.99 438 -355.98 438 -357 438 C-357.1546875 438.8971875 -357.1546875 438.8971875 -357.3125 439.8125 C-358.09824033 442.31258286 -358.96918853 443.37535082 -361 445 C-361.66 445 -362.32 445 -363 445 C-363.38671875 445.86625 -363.38671875 445.86625 -363.78125 446.75 C-365.50935148 449.94034119 -367.89608267 452.34490324 -370.34375 455 C-371.93894694 456.92627555 -372.98432918 458.72489737 -374 461 C-374.66 461 -375.32 461 -376 461 C-376.33 461.99 -376.66 462.98 -377 464 C-377.99 464 -378.98 464 -380 464 C-380.33 465.32 -380.66 466.64 -381 468 C-381.66 468 -382.32 468 -383 468 C-383.144375 468.639375 -383.28875 469.27875 -383.4375 469.9375 C-384 472 -384 472 -385 473 C-385.10235921 475.2975648 -385.13217814 477.59835254 -385.13587189 479.89819336 C-385.13841451 480.63180179 -385.14095713 481.36541021 -385.1435768 482.1212492 C-385.15097021 484.61079362 -385.15117352 487.10028906 -385.15148926 489.58984375 C-385.15533537 491.38015844 -385.15962213 493.17047224 -385.16431475 494.96078491 C-385.17600308 499.90487738 -385.18145025 504.8489606 -385.18594956 509.79306412 C-385.19187993 515.11554909 -385.20355204 520.43802164 -385.21458435 525.76049805 C-385.23296527 534.99039382 -385.24779801 544.22028987 -385.26036072 553.45019531 C-385.27861794 566.79634643 -385.30328307 580.14247983 -385.32973462 593.48861694 C-385.37256608 615.14084308 -385.4116726 636.7930741 -385.44775391 658.4453125 C-385.44991671 659.7424115 -385.45207951 661.0395105 -385.45430785 662.37591553 C-385.4696372 671.58394352 -385.484834 680.79197173 -385.5 690 C-385.51732396 700.51822932 -385.53470784 711.03645854 -385.55224609 721.5546875 C-385.55440496 722.85021545 -385.55656383 724.14574341 -385.55878812 725.48052979 C-385.59485093 747.04912 -385.63480076 768.61770132 -385.67754889 790.1862793 C-385.70375723 803.50580207 -385.72640341 816.82532209 -385.74453247 830.14485836 C-385.7571655 839.26447978 -385.77327868 848.38409064 -385.79218161 857.50370121 C-385.80297662 862.77357584 -385.81208157 868.04344018 -385.81687737 873.31332397 C-385.82128522 878.12938561 -385.83019716 882.94541625 -385.84282058 887.76146317 C-385.84658076 889.51177308 -385.84861879 891.26208764 -385.84884077 893.01240158 C-385.84937578 895.37557355 -385.85593762 897.73865072 -385.86412811 900.10180664 C-385.86624408 901.41927383 -385.86836005 902.73674103 -385.87054014 904.09413147 C-386 907 -386 907 -387 908 C-399.76836269 909.68758908 -399.76836269 909.68758908 -404.515625 906.09765625 C-407.02310992 902.84740793 -408.70196235 899.89411294 -410 896 C-412.50447516 894.78130071 -412.50447516 894.78130071 -415 894 C-415 893.01 -415 892.02 -415 891 C-415.598125 890.896875 -416.19625 890.79375 -416.8125 890.6875 C-419.31258286 889.90175967 -420.37535082 889.03081147 -422 887 C-422 886.34 -422 885.68 -422 885 C-422.66 885 -423.32 885 -424 885 C-425.68762851 883.3545622 -427.3540349 881.68711423 -429 880 C-429.66 879.67 -430.32 879.34 -431 879 C-431 878.01 -431 877.02 -431 876 C-432.65 876 -434.3 876 -436 876 C-436.33 875.01 -436.66 874.02 -437 873 C-438.0828125 872.8453125 -438.0828125 872.8453125 -439.1875 872.6875 C-442.33854139 871.91724544 -444.28130507 870.77031298 -447 869 C-447.66773438 868.61457031 -448.33546875 868.22914063 -449.0234375 867.83203125 C-449.73757813 867.41308594 -450.45171875 866.99414062 -451.1875 866.5625 C-451.86167969 866.17191406 -452.53585937 865.78132813 -453.23046875 865.37890625 C-455 864 -455 864 -456.04296875 861.88671875 C-456.35878906 861.26410156 -456.67460938 860.64148437 -457 860 C-460.05908413 859.18415432 -460.05908413 859.18415432 -463 859 C-463 858.34 -463 857.68 -463 857 C-464.918125 857.0309375 -464.918125 857.0309375 -466.875 857.0625 C-470.75 857.125 -470.75 857.125 -473 856 C-473 855.34 -473 854.68 -473 854 C-474.3921875 854.061875 -474.3921875 854.061875 -475.8125 854.125 C-479 854 -479 854 -482 852 C-484.57713254 851.5437208 -487.09298285 851.17054724 -489.6875 850.875 C-490.38939453 850.78863281 -491.09128906 850.70226563 -491.81445312 850.61328125 C-493.54211145 850.40173125 -495.2709566 850.199914 -497 850 C-497.33 849.01 -497.66 848.02 -498 847 C-499.86205078 847.10441406 -499.86205078 847.10441406 -501.76171875 847.2109375 C-503.40359158 847.26723028 -505.04552311 847.32182881 -506.6875 847.375 C-507.91243164 847.45041016 -507.91243164 847.45041016 -509.16210938 847.52734375 C-509.95810547 847.54667969 -510.75410156 847.56601563 -511.57421875 847.5859375 C-512.30213623 847.6173584 -513.03005371 847.6487793 -513.7800293 847.68115234 C-516.59626722 846.81704767 -518.10583044 845.33269998 -519.92290451 843.05158769 C-522.21203891 838.69138007 -521.6790516 833.71704794 -521.63085651 828.9078846 C-521.63831411 827.67351386 -521.6457717 826.43914313 -521.65345529 825.16736722 C-521.66913563 821.73296278 -521.66237483 818.29991513 -521.64627017 814.86559925 C-521.6342638 811.13269351 -521.65123074 807.39990254 -521.66455668 803.66701686 C-521.68391462 797.12223046 -521.68470127 790.57764492 -521.67340279 784.03284264 C-521.65668616 774.30098237 -521.66854635 764.56930442 -521.68631649 754.83745352 C-521.71539524 738.46768105 -521.72121725 722.0979771 -521.71384621 705.72818375 C-521.70662232 689.51690753 -521.70969747 673.30568733 -521.72656822 657.09441757 C-521.72761087 656.0869559 -521.72865352 655.07949423 -521.72972776 654.04150342 C-521.73507642 648.92524435 -521.74060947 643.80898551 -521.74621352 638.69272672 C-521.78558901 602.44163448 -521.80181133 566.19056509 -521.80444336 529.93945312 C-521.80705347 494.71906237 -521.82013501 459.49870098 -521.84741211 424.27832031 C-521.84824853 423.19293082 -521.84908496 422.10754133 -521.84994673 420.98926125 C-521.85835793 410.08946707 -521.86698222 399.18967306 -521.87576263 388.28987917 C-521.89364497 366.08517059 -521.91010492 343.88046103 -521.92570496 321.67575073 C-521.926424 320.65478403 -521.92714303 319.63381732 -521.92788386 318.58191223 C-521.97574795 250.3879515 -521.9904534 182.19397552 -522 114 C-522.99 113.67 -523.98 113.34 -525 113 C-525 112.34 -525 111.68 -525 111 C-525.99 110.67 -526.98 110.34 -528 110 C-528 109.34 -528 108.68 -528 108 C-531.3 108 -534.6 108 -538 108 C-538.33 108.99 -538.66 109.98 -539 111 C-539.66 111 -540.32 111 -541 111 C-542.485 115.455 -542.485 115.455 -544 120 C-544.66 120 -545.32 120 -546 120 C-545.99968804 120.62237762 -545.99937608 121.24475525 -545.99905466 121.8859928 C-545.96517219 189.62454417 -545.93375995 257.36309651 -545.91531372 325.10165405 C-545.91503761 326.11301727 -545.91476149 327.12438048 -545.91447701 328.16639106 C-545.90849162 350.14441997 -545.9029512 372.12244896 -545.89786934 394.10047809 C-545.8953746 404.87802057 -545.8927815 415.65556302 -545.89013672 426.43310547 C-545.8898752 427.50561797 -545.88961368 428.57813047 -545.88934424 429.68314335 C-545.88081689 464.46550731 -545.86579081 499.2478648 -545.84740556 534.03022483 C-545.8285514 569.76449283 -545.81623167 605.49875725 -545.81217002 641.23303014 C-545.81159368 646.27670531 -545.81094241 651.32038048 -545.81024551 656.36405563 C-545.81011067 657.35675314 -545.80997582 658.34945065 -545.80983689 659.3722299 C-545.80747064 675.37161866 -545.79818695 691.37099634 -545.78633593 707.37038057 C-545.77457742 723.44322328 -545.77006003 739.51605497 -545.77299725 755.58890183 C-545.77452192 765.14577497 -545.77043153 774.70260787 -545.75840491 784.25947377 C-545.75092485 790.63747284 -545.75065876 797.01544545 -545.75633637 803.39344631 C-545.75936598 807.0313712 -545.75918522 810.66921979 -545.75023364 814.30713661 C-545.74067606 818.22093938 -545.74649618 822.13463146 -545.75390434 826.04844093 C-545.74865032 827.18459888 -545.74339629 828.32075682 -545.73798305 829.4913438 C-545.78774584 841.03557159 -545.78774584 841.03557159 -549.37866211 845.84741211 C-552.32685934 847.94324694 -556.05995622 847.50145982 -559.5625 847.5625 C-565.29425087 847.32995583 -565.29425087 847.32995583 -570 850 C-572.30006992 850.4104214 -574.61655135 850.73173762 -576.9375 851 C-582.29780258 851.56496553 -582.29780258 851.56496553 -587 854 C-589.04296875 854.1953125 -589.04296875 854.1953125 -591.1875 854.125 C-592.445625 854.08375 -593.70375 854.0425 -595 854 C-595.33 854.99 -595.66 855.98 -596 857 C-598.97 857 -601.94 857 -605 857 C-605.33 857.99 -605.66 858.98 -606 860 C-607.65532623 861.01866229 -609.32260138 862.01810813 -611 863 C-611.66 863.99 -612.32 864.98 -613 866 C-616.125 866.1875 -616.125 866.1875 -619 866 C-619.33 866.99 -619.66 867.98 -620 869 C-621.32 869 -622.64 869 -624 869 C-624 869.99 -624 870.98 -624 872 C-624.969375 872.28875 -625.93875 872.5775 -626.9375 872.875 C-630.10664203 873.64214682 -630.10664203 873.64214682 -631 876 C-631.99 876 -632.98 876 -634 876 C-634 876.66 -634 877.32 -634 878 C-639.35714286 883 -639.35714286 883 -643 883 C-643.33 883.99 -643.66 884.98 -644 886 C-645.65532623 887.01866229 -647.32260138 888.01810813 -649 889 C-649.66 889.99 -650.32 890.98 -651 892 C-651.66 892 -652.32 892 -653 892 C-653 892.99 -653 893.98 -653 895 C-653.99 895 -654.98 895 -656 895 C-656.33 896.32 -656.66 897.64 -657 899 C-657.66 899 -658.32 899 -659 899 C-659.33 899.99 -659.66 900.98 -660 902 C-660.66 902 -661.32 902 -662 902 C-662.33 903.65 -662.66 905.3 -663 907 C-666.25469015 908.08489672 -668.70543209 908.13323992 -672.125 908.125 C-673.20007813 908.12757813 -674.27515625 908.13015625 -675.3828125 908.1328125 C-678 908 -678 908 -679 907 C-679.09869291 904.72970707 -679.12478999 902.45626639 -679.12469864 900.18382931 C-679.12604287 899.45907155 -679.12738711 898.73431379 -679.12877208 897.98759368 C-679.13211477 895.52808027 -679.12827644 893.0686278 -679.12457275 890.6091156 C-679.12555795 888.84028963 -679.12699422 887.07146386 -679.12884593 885.30263859 C-679.13191658 881.44076458 -679.13178872 877.57890778 -679.12928963 873.71703339 C-679.1252446 867.43470807 -679.12799157 861.15239633 -679.13163757 854.87007141 C-679.13573432 846.9326973 -679.13796734 838.99532622 -679.13805357 831.05795104 C-679.13825596 815.45887275 -679.1506962 799.85982568 -679.16766357 784.26075745 C-679.17026946 781.80745696 -679.17286827 779.35415646 -679.1754601 776.90085596 C-679.17939871 773.18226443 -679.18334519 769.46367292 -679.18732132 765.74508144 C-679.20227906 751.71278664 -679.21589741 737.68049089 -679.22802734 723.64819336 C-679.22969769 721.72324281 -679.22969769 721.72324281 -679.23140177 719.75940437 C-679.24897257 698.96851896 -679.25184628 678.17765301 -679.25017694 657.38676142 C-679.24889845 636.05654359 -679.26662081 614.7263983 -679.30119491 593.39620835 C-679.32186582 580.23173034 -679.32716645 567.06742593 -679.3128666 553.90293867 C-679.3044153 544.88040044 -679.31411875 535.85799729 -679.3381761 526.8354876 C-679.35150045 521.62742063 -679.35664308 516.41967755 -679.34005547 511.2116127 C-679.32503759 506.44370626 -679.33299268 501.67641072 -679.359225 496.9085579 C-679.36464978 495.18369776 -679.36162841 493.45878606 -679.34930804 491.7339614 C-679.25864651 479.54716449 -679.25864651 479.54716449 -685 469 C-685.3125 466 -685.3125 466 -685 464 C-685.99 464 -686.98 464 -688 464 C-689.2032112 462.56283107 -690.3997296 461.1190241 -691.546875 459.63671875 C-693.07343391 457.91728815 -694.56664575 456.8564626 -696.5 455.625 C-700.5132353 452.92023748 -703.0067414 449.39068023 -705 445 C-705 444.01 -705 443.02 -705 442 C-705.99 441.67 -706.98 441.34 -708 441 C-708 440.34 -708 439.68 -708 439 C-708.99 438.67 -709.98 438.34 -711 438 C-711 437.01 -711 436.02 -711 435 C-711.99 435 -712.98 435 -714 435 C-714.33 434.01 -714.66 433.02 -715 432 C-716.64429829 430.31126121 -718.31384218 428.64694485 -720 427 C-724 422.35135135 -724 422.35135135 -724 420 C-724.99 419.67 -725.98 419.34 -727 419 C-727 418.01 -727 417.02 -727 416 C-727.99 416 -728.98 416 -730 416 C-732.35723489 413.46815512 -733 412.52809907 -733 409 C-733.99 409 -734.98 409 -736 409 C-736.350625 408.13375 -736.70125 407.2675 -737.0625 406.375 C-739.11595997 402.79800522 -741.13006829 400.99286331 -744.28125 398.44921875 C-746.55127918 396.53517142 -748.30962154 394.43414499 -750 392 C-750 391.34 -750 390.68 -750 390 C-750.99 389.67 -751.98 389.34 -753 389 C-753 388.34 -753 387.68 -753 387 C-753.66 387 -754.32 387 -755 387 C-756.81242323 382.9811485 -758.33501617 379.38889325 -759 375 C-760.65 374.67 -762.3 374.34 -764 374 C-764.33 373.01 -764.66 372.02 -765 371 C-767.01508358 370.26676204 -767.01508358 370.26676204 -769 370 C-769 369.34 -769 368.68 -769 368 C-769.66 368 -770.32 368 -771 368 C-771.33 366.68 -771.66 365.36 -772 364 C-772.66 364 -773.32 364 -774 364 C-774 363.01 -774 362.02 -774 361 C-774.66 361 -775.32 361 -776 361 C-779 355.375 -779 355.375 -779 352 C-779.99 351.67 -780.98 351.34 -782 351 C-782 350.34 -782 349.68 -782 349 C-782.7425 348.731875 -783.485 348.46375 -784.25 348.1875 C-786.90909879 347.0392528 -788.87781485 345.96498625 -791 344 C-791 343.01 -791 342.02 -791 341 C-791.66 341 -792.32 341 -793 341 C-798.17700113 335.44419391 -798.17700113 335.44419391 -799 331 C-799.66 330.67 -800.32 330.34 -801 330 C-801 329.01 -801 328.02 -801 327 C-801.804375 326.690625 -801.804375 326.690625 -802.625 326.375 C-805.91978009 324.46749574 -808.59363628 321.95180616 -811 319 C-811 318.34 -811 317.68 -811 317 C-811.99 316.67 -812.98 316.34 -814 316 C-814 315.34 -814 314.68 -814 314 C-814.99 313.67 -815.98 313.34 -817 313 C-817.04125 312.278125 -817.0825 311.55625 -817.125 310.8125 C-818.35151039 306.87014518 -820.79294066 305.50150628 -824 303 C-827 299.5 -827 299.5 -827 297 C-827.66 297 -828.32 297 -829 297 C-829 296.01 -829 295.02 -829 294 C-829.78375 293.71125 -830.5675 293.4225 -831.375 293.125 C-834 292 -834 292 -836 290 C-836.0825 289.21625 -836.165 288.4325 -836.25 287.625 C-837.32782076 283.85262734 -839.78746235 283.05055595 -843 281 C-843 280.01 -843 279.02 -843 278 C-843.99 277.67 -844.98 277.34 -846 277 C-846 276.34 -846 275.68 -846 275 C-846.99 274.67 -847.98 274.34 -849 274 C-849.33 272.35 -849.66 270.7 -850 269 C-850.99 268.67 -851.98 268.34 -853 268 C-853 266.02 -853 264.04 -853 262 C-854.65 262 -856.3 262 -858 262 C-858.33 261.01 -858.66 260.02 -859 259 C-859.99 258.67 -860.98 258.34 -862 258 C-862 257.34 -862 256.68 -862 256 C-862.99 255.67 -863.98 255.34 -865 255 C-865 254.01 -865 253.02 -865 252 C-865.99 251.67 -866.98 251.34 -868 251 C-870.86935543 247.31082874 -872 245.75567676 -872 241 C-872.66 241 -873.32 241 -874 241 C-875.625 239.625 -875.625 239.625 -877 238 C-877 237.34 -877 236.68 -877 236 C-877.8971875 235.8453125 -877.8971875 235.8453125 -878.8125 235.6875 C-881.33421352 234.89496146 -882.39685699 234.08408591 -884 232 C-884 231.01 -884 230.02 -884 229 C-884.99 229 -885.98 229 -887 229 C-887.226875 228.2575 -887.45375 227.515 -887.6875 226.75 C-889.24388416 223.48900462 -891.20033601 222.21026104 -894 220 C-894 219.01 -894 218.02 -894 217 C-894.66 217 -895.32 217 -896 217 C-898 214 -898 214 -898 210 C-899.65 210 -901.3 210 -903 210 C-903 209.01 -903 208.02 -903 207 C-903.99 206.67 -904.98 206.34 -906 206 C-908.1875 204.125 -908.1875 204.125 -910 202 C-910 201.01 -910 200.02 -910 199 C-910.99 198.67 -911.98 198.34 -913 198 C-913.70381157 196.01276732 -914.3711811 194.01222047 -915 192 C-915.66 191.67 -916.32 191.34 -917 191 C-917 190.01 -917 189.02 -917 188 C-917.99 188 -918.98 188 -920 188 C-920.33 187.01 -920.66 186.02 -921 185 C-922.75881906 183.21744992 -922.75881906 183.21744992 -924.875 181.5 C-929.28045762 177.79356333 -931.87155994 175.39204816 -934 170 C-934.66 169.67 -935.32 169.34 -936 169 C-936 168.01 -936 167.02 -936 166 C-936.99 165.67 -937.98 165.34 -939 165 C-939 164.01 -939 163.02 -939 162 C-939.99 162 -940.98 162 -942 162 C-942 161.01 -942 160.02 -942 159 C-942.99 159 -943.98 159 -945 159 C-945.33 157.68 -945.66 156.36 -946 155 C-946.59554687 154.938125 -947.19109375 154.87625 -947.8046875 154.8125 C-950.92721845 153.65683018 -951.5604326 151.88339123 -953.125 149 C-954.91256419 145.34006946 -954.91256419 145.34006946 -958 143 C-958 142.01 -958 141.02 -958 140 C-958.99 139.67 -959.98 139.34 -961 139 C-964.12331544 135.97663065 -966.67417699 132.49367122 -969.0625 128.875 C-970.93719255 125.89549796 -970.93719255 125.89549796 -973.625 123.375 C-975.73810464 121.26189536 -976.88809049 119.72923244 -978 117 C-978.66 117 -979.32 117 -980 117 C-983.03765592 114.35429968 -985.19846615 111.6030677 -987 108 C-987 106.68 -987 105.36 -987 104 C-987.66 104 -988.32 104 -989 104 C-991 101 -991 101 -991 98 C-992.65 98 -994.3 98 -996 98 C-996.33 97.01 -996.66 96.02 -997 95 C-997.99 94.67 -998.98 94.34 -1000 94 C-1002.62225892 92.08373387 -1002.98538152 91.0677766 -1003.6875 87.8125 C-1003.8421875 86.4203125 -1003.8421875 86.4203125 -1004 85 C-1004.66 85 -1005.32 85 -1006 85 C-1006.33 84.01 -1006.66 83.02 -1007 82 C-1007.515625 81.505 -1008.03125 81.01 -1008.5625 80.5 C-1010 79 -1010 79 -1010 76 C-1010.99 76 -1011.98 76 -1013 76 C-1013 75.01 -1013 74.02 -1013 73 C-1013.721875 72.773125 -1014.44375 72.54625 -1015.1875 72.3125 C-1018.56432417 70.73664872 -1020.55767039 68.79123384 -1023 66 C-1023 65.34 -1023 64.68 -1023 64 C-1023.66 64 -1024.32 64 -1025 64 C-1025.33 62.35 -1025.66 60.7 -1026 59 C-1026.66 59 -1027.32 59 -1028 59 C-1029.21875 57.28515625 -1029.21875 57.28515625 -1030.5 55.0625 C-1032.18454879 51.94567974 -1032.18454879 51.94567974 -1035 50 C-1035 49.01 -1035 48.02 -1035 47 C-1035.556875 46.9175 -1036.11375 46.835 -1036.6875 46.75 C-1039.79888018 45.74090373 -1041.6312518 44.24407724 -1044 42 C-1044.72159424 40.35636866 -1045.39351421 38.68949614 -1046 37 C-1046.53625 36.46375 -1047.0725 35.9275 -1047.625 35.375 C-1048.305625 34.694375 -1048.305625 34.694375 -1049 34 C-1049 33.01 -1049 32.02 -1049 31 C-1049.99 30.67 -1050.98 30.34 -1052 30 C-1053.6875 28.625 -1053.6875 28.625 -1055 27 C-1055 26.01 -1055 25.02 -1055 24 C-1055.99 23.67 -1056.98 23.34 -1058 23 C-1060.28062828 19.57905758 -1060.21925007 18.31812778 -1060.125 14.3125 C-1060.10695313 13.31863281 -1060.08890625 12.32476562 -1060.0703125 11.30078125 C-1060.04710937 10.54152344 -1060.02390625 9.78226562 -1060 9 C-1056.45648643 8.43753753 -1054.41599797 8.14858057 -1051 9 C-1047.47778993 11.93517506 -1044.77409007 15.36663156 -1042 19 C-1040.04787986 21.47411563 -1038.16581706 23.83418294 -1035.9375 26.0625 C-1034.05846838 27.94153162 -1032.47350369 29.78974447 -1031 32 C-1031 32.66 -1031 33.32 -1031 34 C-1030.4225 34.20625 -1029.845 34.4125 -1029.25 34.625 C-1025.33149206 37.01964374 -1023.42416226 40.72751322 -1022 45 C-1021.01 45.33 -1020.02 45.66 -1019 46 C-1017.30859375 47.8984375 -1017.30859375 47.8984375 -1015.4375 50.375 C-1012.40067594 54.28987448 -1009.24147492 57.98941019 -1005.875 61.625 C-1002.47919794 65.31113018 -999.36464819 69.03735704 -996.43359375 73.09765625 C-994.84476584 75.20599193 -993.13443982 77.15725441 -991.375 79.125 C-988.59058339 82.24599444 -986.30340319 85.50518137 -984 89 C-983.37738281 89.62261719 -982.75476563 90.24523437 -982.11328125 90.88671875 C-979.99774468 93.00225532 -978.20564702 95.19823885 -976.375 97.5625 C-973.40152057 101.32486173 -970.31156353 104.91052279 -967.0625 108.4375 C-963.01128841 112.84018656 -959.19052749 117.36956856 -955.4375 122.02734375 C-952.06671372 126.13819048 -948.58135139 130.14818103 -945.07275391 134.1418457 C-942.34193054 137.28641645 -940.09442437 140.3823579 -938 144 C-937.2575 144.7425 -936.515 145.485 -935.75 146.25 C-933.51499405 148.48500595 -931.7074141 150.61925477 -929.8125 153.125 C-927.05884929 156.7346769 -924.14038864 160.09997351 -921.0625 163.4375 C-917.26820148 167.55653578 -913.73002052 171.78163025 -910.27734375 176.1875 C-906.82913045 180.44601385 -903.20267642 184.54831697 -899.56713867 188.64746094 C-891.86054792 197.41835623 -891.86054792 197.41835623 -890 203 C-889.4225 203.2475 -888.845 203.495 -888.25 203.75 C-885.34979748 205.36122362 -884.13214018 207.40543364 -882.34375 210.1484375 C-880.75815713 212.33323697 -878.91502496 214.09951033 -877 216 C-875.8335637 217.42083308 -874.6890204 218.85981557 -873.5625 220.3125 C-870.01567653 224.798967 -866.3226137 229.13059902 -862.5625 233.4375 C-848.3733667 249.71796503 -848.3733667 249.71796503 -844.75 255.375 C-843.0694578 258.08171506 -843.0694578 258.08171506 -840.6875 260.3125 C-838.46072561 262.53927439 -836.6455257 264.69223523 -834.75 267.1875 C-831.4820212 271.46699604 -827.94976862 275.42449063 -824.3203125 279.3984375 C-821.96459657 282.03969476 -819.72489719 284.74794947 -817.5 287.5 C-813.82462503 292.04433402 -809.99514518 296.40601672 -806.04296875 300.7109375 C-803.26878657 303.81929459 -800.64259698 306.88244004 -798.5625 310.5 C-797.05074954 313.12726423 -797.05074954 313.12726423 -794.625 315.375 C-792.09513003 317.90486997 -790.20668619 320.45065455 -788.18359375 323.375 C-786.65471016 325.4740613 -784.86300427 327.19521462 -783 329 C-778 334.5316092 -778 334.5316092 -778 337 C-777.01 337.33 -776.02 337.66 -775 338 C-773.37890625 339.79296875 -773.37890625 339.79296875 -771.5625 342.1875 C-768.13385027 346.61115528 -764.55461399 350.84950973 -760.875 355.0625 C-756.93433797 359.59606449 -753.37578374 364.1522667 -750.1640625 369.2421875 C-748.69555574 371.45973127 -746.93963356 373.18967534 -745 375 C-744.360625 375.804375 -743.72125 376.60875 -743.0625 377.4375 C-741.06514731 380.02527134 -741.06514731 380.02527134 -738.75 382.1875 C-736.38512351 384.60612368 -734.33851872 387.03541274 -732.25 389.6875 C-729.44665349 393.24437762 -726.55422403 396.65615128 -723.5 400 C-719.74567209 404.11681474 -716.23072304 408.36892242 -712.78515625 412.74609375 C-711.28765281 414.63681472 -709.75640192 416.48133388 -708.1875 418.3125 C-706 421 -706 421 -704.5 423.5625 C-702.68970451 426.50423018 -700.46918797 428.58960222 -698 431 C-693 436.50408719 -693 436.50408719 -693 439 C-692.01 439.33 -691.02 439.66 -690 440 C-688.2835504 441.92682225 -686.83544885 444.00054237 -685.32038665 446.08940494 C-683.60554346 448.24043185 -681.98807861 450.04169368 -680.03033853 451.93485749 C-672.32002263 459.60510836 -669.47827166 465.45100317 -669.42485118 476.32330883 C-669.45514433 478.01144728 -669.48656078 479.69956587 -669.51898193 481.38766479 C-669.50960087 483.21469304 -669.49495162 485.04170042 -669.47553754 486.8686496 C-669.43760584 491.85475847 -669.47375175 496.8379241 -669.52266955 501.82383418 C-669.56233292 507.21296096 -669.53235261 512.60176824 -669.5110321 517.99093628 C-669.48357635 527.31643046 -669.49978341 536.64101811 -669.5460434 545.96642685 C-669.6128621 559.44905188 -669.61321571 572.93104185 -669.59759203 586.41379358 C-669.57403509 608.29084246 -669.60388002 630.16747721 -669.66748047 652.04443359 C-669.72913034 673.28991305 -669.76552266 694.53518941 -669.76806641 715.78076172 C-669.76831494 717.74666161 -669.76831494 717.74666161 -669.76856849 719.75227664 C-669.7692443 726.32747914 -669.76942482 732.90268153 -669.76935911 739.47788405 C-669.7694547 793.98545126 -669.85628907 848.4926353 -670 903 C-667.99450457 902.13082198 -667.99450457 902.13082198 -666 901 C-665.63724355 899.67436934 -665.30746906 898.33953412 -665 897 C-663.3203125 894.91625977 -663.3203125 894.91625977 -661.125 892.69140625 C-660.31232666 891.86745361 -659.49965332 891.04350098 -658.66235352 890.19458008 C-657.78377686 889.32599365 -656.9052002 888.45740723 -656 887.5625 C-655.10531006 886.67393311 -654.21062012 885.78536621 -653.28881836 884.86987305 C-647.63189736 879.34298471 -641.83331277 874.1333615 -635.5625 869.3125 C-634.87220703 868.77890869 -634.18191406 868.24531738 -633.47070312 867.69555664 C-630.04518389 865.1574578 -627.37782235 863.36270975 -623 863 C-622.67 862.01 -622.34 861.02 -622 860 C-619.6015625 858.61328125 -619.6015625 858.61328125 -616.625 857.3125 C-615.15933594 856.65701172 -615.15933594 856.65701172 -613.6640625 855.98828125 C-611 855 -611 855 -608 855 C-608 854.34 -608 853.68 -608 853 C-599.78311921 849.51604255 -591.9139678 846.21649443 -583 845 C-583 844.34 -583 843.68 -583 843 C-579.96045668 842.34255351 -576.918935 841.69903923 -573.875 841.0625 C-573.03839844 840.88009766 -572.20179688 840.69769531 -571.33984375 840.50976562 C-566.10621766 839.42762489 -560.9767735 838.79208204 -555.64111328 838.43920898 C-554.39355255 838.35517319 -553.14599182 838.27113739 -551.86062622 838.18455505 C-550.44461624 838.0932003 -550.44461624 838.0932003 -549 838 C-549.00093588 837.04038982 -549.00093588 837.04038982 -549.00189067 836.06139358 C-549.06965513 766.43364869 -549.13247968 696.8059 -549.16937256 627.1781311 C-549.16992479 626.13857314 -549.17047702 625.09901518 -549.17104598 624.02795546 C-549.18301674 601.43726288 -549.19409759 578.84656996 -549.20426132 556.2558765 C-549.2092508 545.17790848 -549.214437 534.09994054 -549.21972656 523.02197266 C-549.2202496 521.9195633 -549.22077263 520.81715395 -549.22131152 519.68133825 C-549.23836644 483.92892806 -549.26841877 448.1765431 -549.30518888 412.4241482 C-549.3428966 375.69351644 -549.36753651 338.96289865 -549.37565996 302.23224785 C-549.37681263 297.0480267 -549.37811518 291.8638056 -549.37950897 286.6795845 C-549.37991351 285.14904373 -549.37991351 285.14904373 -549.38032622 283.58758294 C-549.38505885 267.14185923 -549.40362658 250.69617865 -549.42732814 234.25047255 C-549.4508443 217.72954024 -549.45988016 201.20865082 -549.45400551 184.68770234 C-549.45095597 174.86416925 -549.45913835 165.04079273 -549.48319017 155.21728782 C-549.49814906 148.66154745 -549.49868346 142.10591005 -549.48732725 135.55016268 C-549.48126722 131.81065233 -549.48163205 128.07143885 -549.49953273 124.33195989 C-549.51864448 120.30905314 -549.50701028 116.28683095 -549.49219131 112.26390648 C-549.50269937 111.09566163 -549.51320742 109.92741677 -549.5240339 108.72377056 C-549.46043778 101.14427134 -548.50427394 97.59470682 -543.18359375 92.13671875 C-542.60738281 91.65847656 -542.03117188 91.18023437 -541.4375 90.6875 C-540.85871094 90.19636719 -540.27992188 89.70523438 -539.68359375 89.19921875 C-535.34509127 86.10891652 -530.08121669 86.47149306 -525 87 C-518.80408587 88.80759533 -514.55501235 92.69823417 -511 98 C-509.96877543 101.09367372 -509.87570375 103.20263849 -509.87695217 106.44478893 C-509.87496112 107.58286564 -509.87297007 108.72094235 -509.87091869 109.89350623 C-509.87383153 111.1493259 -509.87674437 112.40514557 -509.87974548 113.69902039 C-509.87930962 115.04216988 -509.87843444 116.38531929 -509.87715632 117.72846824 C-509.87491431 121.4272125 -509.87892865 125.12592794 -509.88393438 128.82466853 C-509.88824288 132.81033811 -509.88679217 136.79600599 -509.8860321 140.78167725 C-509.88550712 147.6897438 -509.88865123 154.59780092 -509.89426994 161.5058651 C-509.90238844 171.49383185 -509.90500052 181.48179404 -509.90625793 191.46976373 C-509.9084479 207.67361135 -509.9151065 223.87745394 -509.92456055 240.08129883 C-509.93373609 255.82413711 -509.94081623 271.56697403 -509.94506836 287.30981445 C-509.94533108 288.27979985 -509.94559381 289.24978524 -509.94586449 290.24916413 C-509.94716951 295.11517537 -509.94843322 299.98118663 -509.94967639 304.84719789 C-509.96004729 345.23146895 -509.97793885 385.61573376 -510 426 C-491.52 426 -473.04 426 -454 426 C-454 317.76 -454 209.52 -454 98 C-453.01 98.66 -452.02 99.32 -451 100 C-450.61523914 102.1357975 -450.61523914 102.1357975 -450.60127258 104.83413696 C-450.58873444 105.85499893 -450.57619629 106.8758609 -450.5632782 107.92765808 C-450.56471329 109.05190689 -450.56614838 110.1761557 -450.56762695 111.33447266 C-450.5574353 112.51494675 -450.54724365 113.69542084 -450.53674316 114.91166687 C-450.51167864 118.15324415 -450.49987834 121.39454942 -450.49388909 124.63620806 C-450.48452539 128.02222212 -450.45832376 131.40810411 -450.43388367 134.79403687 C-450.39015952 141.20777583 -450.36164903 147.62148926 -450.33856028 154.03533208 C-450.31154017 161.33640352 -450.26762682 168.63734247 -450.22227156 175.93831944 C-450.12934068 190.95880829 -450.05769876 205.97933142 -450 221 C-449.34 221 -448.68 221 -448 221 C-447.34 219.68 -446.68 218.36 -446 217 C-445.34 217 -444.68 217 -444 217 C-443.87625 216.38125 -443.7525 215.7625 -443.625 215.125 C-443 213 -443 213 -441 211 C-440.01 211 -439.02 211 -438 211 C-437.67 209.35 -437.34 207.7 -437 206 C-436.01 205.67 -435.02 205.34 -434 205 C-433.26676204 202.98491642 -433.26676204 202.98491642 -433 201 C-432.34 201 -431.68 201 -431 201 C-430.71125 200.401875 -430.4225 199.80375 -430.125 199.1875 C-429 197 -429 197 -427 194 C-426.34 194 -425.68 194 -425 194 C-424.731875 193.2575 -424.46375 192.515 -424.1875 191.75 C-422.7459769 188.41173598 -421.53285386 185.64280968 -418.0625 184.1875 C-415.67751888 182.81432905 -415.2099259 181.826941 -413.9375 179.4375 C-412 176 -412 176 -409 175 C-408.67 174.01 -408.34 173.02 -408 172 C-407.34 171.67 -406.68 171.34 -406 171 C-404.41117144 168.20295362 -402.98251298 165.34125339 -401.53515625 162.46875 C-400 160 -400 160 -397 159 C-397 158.34 -397 157.68 -397 157 C-396.360625 156.71125 -395.72125 156.4225 -395.0625 156.125 C-392.84793921 155.17176549 -392.84793921 155.17176549 -392 153 C-391.34 153 -390.68 153 -390 153 C-389.67 151.68 -389.34 150.36 -389 149 C-388.01 149 -387.02 149 -386 149 C-385.67 147.35 -385.34 145.7 -385 144 C-384.34 144 -383.68 144 -383 144 C-382.67 142.35 -382.34 140.7 -382 139 C-381.34 139 -380.68 139 -380 139 C-380 138.34 -380 137.68 -380 137 C-378.75 135.625 -378.75 135.625 -377 134 C-376.34 133.34 -375.68 132.68 -375 132 C-374.34 131.34 -373.68 130.68 -373 130 C-372.484375 129.4225 -371.96875 128.845 -371.4375 128.25 C-370 127 -370 127 -367 127 C-366.896875 126.278125 -366.79375 125.55625 -366.6875 124.8125 C-365.63275958 120.49765284 -363.51504402 116.78274318 -360 114 C-359.01 114 -358.02 114 -357 114 C-357.185625 112.9171875 -357.185625 112.9171875 -357.375 111.8125 C-357 109 -357 109 -354.125 106.375 C-352.578125 105.199375 -352.578125 105.199375 -351 104 C-350.34 103.01 -349.68 102.02 -349 101 C-347.68 101 -346.36 101 -345 101 C-344.9175 100.0925 -344.835 99.185 -344.75 98.25 C-343.90305826 94.57991912 -342.92092737 93.30133672 -340 91 C-339.34 91 -338.68 91 -338 91 C-338 89.35 -338 87.7 -338 86 C-336.68 85.67 -335.36 85.34 -334 85 C-334 84.01 -334 83.02 -334 82 C-333.01 82 -332.02 82 -331 82 C-331 81.01 -331 80.02 -331 79 C-329.33794978 77.99234586 -327.6704127 76.99372994 -326 76 C-324.58575553 74.28155955 -323.2119632 72.5292286 -321.875 70.75 C-317.83974757 66.16115096 -317.83974757 66.16115096 -314.39453125 65.5 C-311.50353668 65.7669894 -308.82193229 66.32015359 -306 67 C-303.91788633 67.32052563 -301.83452048 67.63301948 -299.75 67.9375 C-296.69803627 68.43913492 -293.85496911 69.04511666 -290.8984375 69.96484375 C-271.75300414 75.52478109 -249.77068553 74.29836485 -230.0625 74.3125 C-228.38713165 74.3176059 -228.38713165 74.3176059 -226.67791748 74.32281494 C-212.16246995 74.348099 -197.86135966 73.6914358 -183.41963196 72.2331543 C-177.95576037 71.70665888 -172.47691758 71.36069821 -167 71 C-167 70.34 -167 69.68 -167 69 C-165.96705811 68.80889648 -164.93411621 68.61779297 -163.86987305 68.42089844 C-159.98590176 67.69973015 -156.10436177 66.96612151 -152.22338867 66.22900391 C-150.55311459 65.9135059 -148.88222467 65.6012483 -147.21069336 65.29248047 C-138.70991813 63.72005332 -130.49749783 62.14611875 -122.43041992 58.94628906 C-117.50341037 57.02794763 -112.36271026 55.71460857 -107.27539062 54.2890625 C-102.52935539 52.91297122 -98.2710631 51.26033197 -93.90014648 48.95898438 C-90.89310755 47.44136277 -87.80339924 46.36692121 -84.625 45.25 C-83.42101563 44.82203125 -82.21703125 44.3940625 -80.9765625 43.953125 C-78 43 -78 43 -76 43 C-76 42.34 -76 41.68 -76 41 C-74.85402344 40.55269531 -73.70804688 40.10539062 -72.52734375 39.64453125 C-70.99719787 39.03435038 -69.46726098 38.42364521 -67.9375 37.8125 C-67.18533203 37.52052734 -66.43316406 37.22855469 -65.65820312 36.92773438 C-61.17732311 35.12374372 -57.42757722 33.06714641 -53.57446289 30.1574707 C-51.41954213 28.57327481 -49.14336262 27.37289186 -46.75 26.1875 C-45.91984375 25.76855469 -45.0896875 25.34960938 -44.234375 24.91796875 C-42 24 -42 24 -39 24 C-39 23.34 -39 22.68 -39 22 C-38.10539062 21.50371094 -37.21078125 21.00742187 -36.2890625 20.49609375 C-29.60173441 16.75041102 -23.16781136 12.90700704 -16.98828125 8.34765625 C-15 7 -15 7 -12 6 C-11.195625 5.195625 -10.39125 4.39125 -9.5625 3.5625 C-4.5 -1.5 -4.5 -1.5 0 0 Z " fill="currentColor" fill-opacity="0.8" transform="translate(1138,249)"/>
  <path d="M0 0 C3.387199 1.4388102 5.3594104 3.22119499 7.75 6 C8.36359375 6.70125 8.9771875 7.4025 9.609375 8.125 C11 10 11 10 11 12 C11.66 12 12.32 12 13 12 C14.55078125 14.01171875 14.55078125 14.01171875 16.3125 16.6875 C18.93597001 20.55480983 21.64759777 23.73581888 25 27 C25.87368184 28.19429903 26.72708912 29.40362422 27.5625 30.625 C29.44693354 33.36599424 31.3119729 35.02878012 34 37 C35.0064275 38.66279327 36.00585407 40.32983484 37 42 C38.1446875 43.1446875 38.1446875 43.1446875 39.3125 44.3125 C41.49124643 46.49124643 43.19761835 48.5304128 45 51 C47.42247652 54.31071791 50.05650649 57.13396684 53 60 C55.35360398 62.74587131 56.85423387 64.56270161 58 68 C58.763125 68.598125 59.52625 69.19625 60.3125 69.8125 C63.30598005 72.24905353 65.05342619 74.68361499 67 78 C67 78.66 67 79.32 67 80 C67.556875 80.185625 68.11375 80.37125 68.6875 80.5625 C71.61580417 82.38279719 72.98725758 84.5855761 74.8515625 87.44140625 C75.93246934 89.15572515 75.93246934 89.15572515 78 90 C77.67 202.86 77.34 315.72 77 432 C58.52 432 40.04 432 21 432 C20.99413376 427.94169891 20.98826752 423.88339783 20.98222351 419.70211792 C20.92706645 382.50042675 20.85712103 345.29878697 20.77101372 308.09715413 C20.75974534 303.2229728 20.74860692 298.34879119 20.73754883 293.47460938 C20.73534514 292.50423344 20.73314146 291.5338575 20.730871 290.53407623 C20.69548317 274.81477889 20.67062742 259.0954816 20.64965298 243.37615918 C20.62790276 227.25082132 20.59485976 211.12553523 20.55129844 195.0002414 C20.5247683 185.0473108 20.50708297 175.09444473 20.50065396 165.14148052 C20.49540425 158.31955414 20.4792013 151.49770899 20.45433434 144.67582612 C20.44030505 140.73792502 20.43115385 136.8001694 20.43499184 132.86224174 C20.43839891 129.25717911 20.42805572 125.65242734 20.40676448 122.04742838 C20.398992 120.12521674 20.40594514 118.20296299 20.41341704 116.28075016 C20.40339137 108.20183918 20.40339137 108.20183918 17 101 C11.90164863 96.12331609 8.06169084 93.93859205 1.0625 93.6875 C-4.24129822 93.82893462 -7.83487608 94.79921522 -11.66015625 98.6875 C-15.49278165 103.03657847 -17.12283895 105.44547318 -17.1386652 111.33735847 C-17.14413964 112.47692753 -17.14961409 113.61649658 -17.15525442 114.79059803 C-17.15623253 116.0532215 -17.15721064 117.31584496 -17.15821838 118.61672974 C-17.16278153 119.96314227 -17.16778119 121.30955339 -17.17318195 122.65596282 C-17.18680063 126.36835408 -17.19419217 130.08073615 -17.20060861 133.7931459 C-17.20859622 137.79179577 -17.22229961 141.79042642 -17.23532104 145.7890625 C-17.25710711 152.72114588 -17.27524379 159.65323119 -17.29092598 166.58533096 C-17.31360524 176.60807536 -17.34175074 186.63079848 -17.37124526 196.65352486 C-17.41894504 212.91337569 -17.46220274 229.17323519 -17.50268555 245.43310547 C-17.54202834 261.23128943 -17.58345164 277.02946566 -17.62768555 292.82763672 C-17.63040982 293.80087183 -17.63313409 294.77410694 -17.63594092 295.77683403 C-17.64962019 300.65910008 -17.66334051 305.54136602 -17.67708123 310.42363191 C-17.79108349 350.94907205 -17.89761167 391.47452897 -18 432 C-36.48 432 -54.96 432 -74 432 C-74.21779996 388.48236942 -74.41684594 344.96470654 -74.58644359 301.44685955 C-74.60646758 296.31344938 -74.62666617 291.18003992 -74.64697266 286.04663086 C-74.65101251 285.02462754 -74.65505237 284.00262422 -74.65921465 282.9496511 C-74.72511194 266.38437484 -74.80516519 249.81919552 -74.89041659 233.25400885 C-74.97752726 216.26656472 -75.04950288 199.2791055 -75.10732102 182.29153615 C-75.14350092 171.80262062 -75.19159693 161.31389694 -75.25476131 150.82510862 C-75.29690023 143.64023997 -75.32438642 136.45541008 -75.3401753 129.27043553 C-75.34973368 125.12015513 -75.36591912 120.97016918 -75.39944649 116.82000732 C-75.42996642 113.02453618 -75.44219078 109.22947314 -75.43952778 105.4338843 C-75.44185162 104.05695964 -75.45103626 102.68002693 -75.4675779 101.30319967 C-75.48899666 99.43901516 -75.48355095 97.57457874 -75.47657394 95.71028423 C-75.48113059 94.67250857 -75.48568723 93.63473291 -75.49038196 92.5655095 C-75 90 -75 90 -73.06225514 88.29178888 C-72.38171095 87.86549855 -71.70116675 87.43920822 -71 87 C-69.97695052 85.34738161 -68.97857108 83.67933809 -68 82 C-66.55661599 80.32269741 -65.0753644 78.67741259 -63.5625 77.0625 C-59.89458641 73.07748282 -59.89458641 73.07748282 -56.75 68.6875 C-54.8087288 65.70626209 -52.51078242 63.51078242 -50 61 C-49.34 60.01 -48.68 59.02 -48 58 C-45.9370785 54.90561775 -43.62378924 52.62378924 -41 50 C-40.12619083 48.80579413 -39.27245012 47.59669081 -38.4375 46.375 C-36.55306646 43.63400576 -34.6880271 41.97121988 -32 40 C-31.505 39.154375 -31.01 38.30875 -30.5 37.4375 C-29 35 -29 35 -26.9375 34 C-24.78602686 33.15730547 -24.78602686 33.15730547 -24.125 30.8125 C-22.56615398 26.91538494 -20.05003677 23.87598576 -17 21 C-16.34 21 -15.68 21 -15 21 C-14.62294922 20.15888672 -14.62294922 20.15888672 -14.23828125 19.30078125 C-12.81178021 16.65027931 -11.1007898 14.51051917 -9.1875 12.1875 C-5.96081817 8.22026824 -2.91965097 4.19699827 0 0 Z " fill="currentColor" fill-opacity="1.0" transform="translate(607,243)"/>
  <path d="M0 0 C0.99 0 1.98 0 3 0 C2.40165905 3.73535708 0.77382385 5.81168994 -1.625 8.6875 C-4.3512831 11.9813545 -6.96955752 15.30416704 -9.5 18.75 C-12.32696394 22.42892568 -15.33991979 24.88864094 -19.1328125 27.515625 C-22.1373505 29.90416985 -23.94119233 32.78311301 -26 36 C-26.66 35.67 -27.32 35.34 -28 35 C-27.05016642 33.49460339 -26.08988109 31.99579653 -25.125 30.5 C-24.59132813 29.6646875 -24.05765625 28.829375 -23.5078125 27.96875 C-23.01023437 27.3190625 -22.51265625 26.669375 -22 26 C-21.34 26 -20.68 26 -20 26 C-19.67 25.01 -19.34 24.02 -19 23 C-18.34 22.67 -17.68 22.34 -17 22 C-15.41117144 19.20295362 -13.98251298 16.34125339 -12.53515625 13.46875 C-11 11 -11 11 -8 10 C-8 9.34 -8 8.68 -8 8 C-7.0409375 7.566875 -7.0409375 7.566875 -6.0625 7.125 C-3.84793921 6.17176549 -3.84793921 6.17176549 -3 4 C-2.34 4 -1.68 4 -1 4 C-0.67 2.68 -0.34 1.36 0 0 Z " fill="currentColor" fill-opacity="0.8" transform="translate(749,398)"/>
  <path d="M0 0 C-1.21252868 3.63758605 -2.60772531 4.12831024 -5.91796875 5.80078125 C-6.56378906 6.11402344 -7.20960937 6.42726563 -7.875 6.75 C-8.51308594 7.07871094 -9.15117188 7.40742188 -9.80859375 7.74609375 C-14.61997768 10.12667411 -14.61997768 10.12667411 -18 9 C-5.33333333 0 -5.33333333 0 0 0 Z " fill="currentColor" fill-opacity="0.8" transform="translate(1098,273)"/>
  <path d="M0 0 C0.886875 0.12375 1.77375 0.2475 2.6875 0.375 C1.6875 2.375 1.6875 2.375 -0.6875 3.3125 C-3.27232105 4.35873709 -4.5171169 5.29613535 -6.3125 7.375 C-6.9725 7.045 -7.6325 6.715 -8.3125 6.375 C-4.12788462 0.46730769 -4.12788462 0.46730769 0 0 Z " fill="currentColor" fill-opacity="0.8" transform="translate(824.3125,314.625)"/>
  <path d="M0 0 C0 0.99 0 1.98 0 3 C-2 4.6875 -2 4.6875 -4 6 C-2.25 1.125 -2.25 1.125 0 0 Z M-5 6 C-5 6.99 -5 7.98 -5 9 C-5.99 9.66 -6.98 10.32 -8 11 C-6.125 7.125 -6.125 7.125 -5 6 Z " fill="currentColor" fill-opacity="0.8" transform="translate(713,445)"/>
  <path d="M0 0 C-1 3 -1 3 -3.9375 4.6875 C-7 6 -7 6 -9 6 C-9 5.34 -9 4.68 -9 4 C-2.25 0 -2.25 0 0 0 Z " fill="currentColor" fill-opacity="0.8" transform="translate(1108,267)"/>
  <path d="M0 0 C0.66 0.33 1.32 0.66 2 1 C1.23883449 2.15227823 0.46567307 3.2966386 -0.3125 4.4375 C-0.74175781 5.07558594 -1.17101562 5.71367187 -1.61328125 6.37109375 C-3 8 -3 8 -6 9 C-4.47291037 5.56404834 -2.40072955 2.88087546 0 0 Z " fill="currentColor" fill-opacity="0.8" transform="translate(777,367)"/>
  </g>
  <text x="36" y="22" font-family="'Space Grotesk', sans-serif" font-weight="700" font-size="14" fill="currentColor" letter-spacing="0.08em">YAMUNA</text>
</svg>