<svg viewBox="0 0 120 35" fill="none" xmlns="http://www.w3.org/2000/svg">
  <path d="M 694 150 L 698 150 L 698 161 L 699 161 L 699 168 L 700 168 L 700 172 L 701 172 L 701 176 L 702 176 L 702 178 L 703 178 L 703 180 L 704 180 L 704 182 L 705 182 L 705 184 L 706 184 L 706 186 L 707 186 L 707 187 L 708 187 L 708 189 L 709 189 L 709 190 L 710 190 L 710 192 L 711 192 L 711 193 L 712 193 L 712 194 L 713 194 L 713 195 L 714 195 L 714 196 L 715 196 L 715 197 L 716 197 L 716 198 L 718 198 L 718 199 L 719 199 L 719 200 L 720 200 L 720 201 L 722 201 L 722 202 L 723 202 L 723 203 L 725 203 L 725 204 L 727 204 L 727 205 L 729 205 L 729 206 L 732 206 L 732 207 L 735 207 L 735 208 L 739 208 L 739 209 L 745 209 L 745 210 L 757 210 L 757 212 L 758 212 L 758 213 L 757 213 L 757 215 L 741 215 L 741 216 L 737 216 L 737 217 L 734 217 L 734 218 L 731 218 L 731 219 L 729 219 L 729 220 L 727 220 L 727 221 L 725 221 L 725 222 L 723 222 L 723 223 L 722 223 L 722 224 L 720 224 L 720 225 L 719 225 L 719 226 L 718 226 L 718 227 L 716 227 L 716 228 L 715 228 L 715 229 L 714 229 L 714 230 L 713 230 L 713 231 L 712 231 L 712 232 L 711 232 L 711 234 L 710 234 L 710 235 L 709 235 L 709 236 L 708 236 L 708 238 L 707 238 L 707 239 L 706 239 L 706 241 L 705 241 L 705 243 L 704 243 L 704 244 L 703 244 L 703 247 L 702 247 L 702 249 L 701 249 L 701 252 L 700 252 L 700 256 L 699 256 L 699 267 L 698 267 L 698 272 L 697 272 L 697 273 L 695 273 L 695 272 L 694 272 L 694 266 L 693 266 L 693 257 L 692 257 L 692 252 L 691 252 L 691 249 L 690 249 L 690 247 L 689 247 L 689 244 L 688 244 L 688 242 L 687 242 L 687 241 L 686 241 L 686 239 L 685 239 L 685 237 L 684 237 L 684 236 L 683 236 L 683 235 L 682 235 L 682 233 L 681 233 L 681 232 L 680 232 L 680 231 L 679 231 L 679 230 L 678 230 L 678 229 L 677 229 L 677 228 L 676 228 L 676 227 L 674 227 L 674 226 L 673 226 L 673 225 L 672 225 L 672 224 L 670 224 L 670 223 L 669 223 L 669 222 L 667 222 L 667 221 L 665 221 L 665 220 L 663 220 L 663 219 L 661 219 L 661 218 L 658 218 L 658 217 L 654 217 L 654 216 L 650 216 L 650 215 L 639 215 L 639 214 L 637 214 L 637 211 L 642 211 L 642 210 L 649 210 L 649 209 L 654 209 L 654 208 L 658 208 L 658 207 L 660 207 L 660 206 L 663 206 L 663 205 L 665 205 L 665 204 L 667 204 L 667 203 L 669 203 L 669 202 L 670 202 L 670 201 L 672 201 L 672 200 L 673 200 L 673 199 L 675 199 L 675 198 L 676 198 L 676 197 L 677 197 L 677 196 L 678 196 L 678 195 L 679 195 L 679 194 L 680 194 L 680 193 L 681 193 L 681 191 L 682 191 L 682 190 L 683 190 L 683 189 L 684 189 L 684 187 L 685 187 L 685 186 L 686 186 L 686 184 L 687 184 L 687 182 L 688 182 L 688 180 L 689 180 L 689 178 L 690 178 L 690 175 L 691 175 L 691 172 L 692 172 L 692 167 L 693 167 L 693 162 L 694 162 Z M 584 151 L 610 151 L 610 152 L 615 152 L 615 153 L 618 153 L 618 154 L 621 154 L 621 155 L 623 155 L 623 156 L 625 156 L 625 157 L 627 157 L 627 158 L 628 158 L 628 159 L 630 159 L 630 160 L 631 160 L 631 161 L 632 161 L 632 163 L 633 163 L 633 167 L 631 167 L 631 166 L 629 166 L 629 165 L 627 165 L 627 164 L 626 164 L 626 163 L 625 163 L 625 162 L 623 162 L 623 161 L 621 161 L 621 160 L 619 160 L 619 159 L 616 159 L 616 158 L 613 158 L 613 157 L 608 157 L 608 156 L 584 156 L 584 157 L 578 157 L 578 158 L 574 158 L 574 159 L 570 159 L 570 160 L 566 160 L 566 161 L 563 161 L 563 162 L 560 162 L 560 163 L 557 163 L 557 164 L 555 164 L 555 165 L 552 165 L 552 166 L 550 166 L 550 167 L 547 167 L 547 168 L 545 168 L 545 169 L 543 169 L 543 170 L 541 170 L 541 171 L 539 171 L 539 172 L 537 172 L 537 173 L 535 173 L 535 174 L 534 174 L 534 175 L 532 175 L 532 176 L 530 176 L 530 177 L 528 177 L 528 178 L 527 178 L 527 179 L 525 179 L 525 180 L 523 180 L 523 181 L 522 181 L 522 182 L 520 182 L 520 183 L 518 183 L 518 184 L 517 184 L 517 185 L 515 185 L 515 186 L 514 186 L 514 187 L 512 187 L 512 188 L 511 188 L 511 189 L 509 189 L 509 190 L 508 190 L 508 191 L 507 191 L 507 192 L 505 192 L 505 193 L 504 193 L 504 194 L 503 194 L 503 195 L 501 195 L 501 196 L 500 196 L 500 197 L 499 197 L 499 198 L 498 198 L 498 199 L 497 199 L 497 200 L 495 200 L 495 201 L 494 201 L 494 202 L 493 202 L 493 203 L 492 203 L 492 204 L 491 204 L 491 205 L 490 205 L 490 206 L 489 206 L 489 207 L 488 207 L 488 208 L 487 208 L 487 209 L 486 209 L 486 210 L 485 210 L 485 211 L 484 211 L 484 212 L 483 212 L 483 213 L 482 213 L 482 214 L 481 214 L 481 215 L 480 215 L 480 216 L 479 216 L 479 217 L 478 217 L 478 218 L 477 218 L 477 219 L 476 219 L 476 220 L 475 220 L 475 221 L 474 221 L 474 222 L 473 222 L 473 223 L 472 223 L 472 224 L 471 224 L 471 225 L 470 225 L 470 227 L 469 227 L 469 228 L 468 228 L 468 229 L 467 229 L 467 230 L 466 230 L 466 231 L 465 231 L 465 232 L 464 232 L 464 234 L 463 234 L 463 235 L 462 235 L 462 236 L 461 236 L 461 237 L 460 237 L 460 238 L 459 238 L 459 240 L 458 240 L 458 241 L 457 241 L 457 242 L 456 242 L 456 244 L 455 244 L 455 245 L 454 245 L 454 246 L 453 246 L 453 248 L 452 248 L 452 249 L 451 249 L 451 250 L 450 250 L 450 252 L 449 252 L 449 253 L 448 253 L 448 255 L 447 255 L 447 256 L 446 256 L 446 257 L 445 257 L 445 259 L 444 259 L 444 260 L 443 260 L 443 262 L 442 262 L 442 263 L 441 263 L 441 265 L 440 265 L 440 266 L 439 266 L 439 268 L 438 268 L 438 269 L 437 269 L 437 271 L 436 271 L 436 273 L 435 273 L 435 274 L 434 274 L 434 276 L 433 276 L 433 277 L 432 277 L 432 279 L 431 279 L 431 281 L 430 281 L 430 282 L 429 282 L 429 284 L 428 284 L 428 286 L 427 286 L 427 287 L 426 287 L 426 289 L 425 289 L 425 291 L 424 291 L 424 293 L 423 293 L 423 294 L 422 294 L 422 296 L 421 296 L 421 298 L 420 298 L 420 300 L 419 300 L 419 302 L 418 302 L 418 304 L 417 304 L 417 306 L 416 306 L 416 308 L 415 308 L 415 309 L 414 309 L 414 311 L 413 311 L 413 313 L 412 313 L 412 315 L 411 315 L 411 317 L 410 317 L 410 319 L 409 319 L 409 321 L 408 321 L 408 323 L 407 323 L 407 326 L 406 326 L 406 328 L 405 328 L 405 330 L 404 330 L 404 332 L 403 332 L 403 334 L 402 334 L 402 336 L 401 336 L 401 339 L 400 339 L 400 341 L 399 341 L 399 343 L 398 343 L 398 345 L 397 345 L 397 347 L 396 347 L 396 350 L 395 350 L 395 352 L 394 352 L 394 354 L 393 354 L 393 357 L 392 357 L 392 359 L 391 359 L 391 361 L 390 361 L 390 364 L 389 364 L 389 366 L 388 366 L 388 368 L 387 368 L 387 371 L 386 371 L 386 373 L 385 373 L 385 375 L 384 375 L 384 378 L 383 378 L 383 380 L 382 380 L 382 383 L 381 383 L 381 385 L 380 385 L 380 387 L 379 387 L 379 390 L 378 390 L 378 392 L 377 392 L 377 395 L 376 395 L 376 397 L 375 397 L 375 400 L 374 400 L 374 402 L 373 402 L 373 405 L 372 405 L 372 407 L 371 407 L 371 410 L 370 410 L 370 412 L 369 412 L 369 415 L 368 415 L 368 417 L 367 417 L 367 420 L 366 420 L 366 422 L 365 422 L 365 425 L 364 425 L 364 427 L 363 427 L 363 430 L 362 430 L 362 432 L 361 432 L 361 435 L 360 435 L 360 437 L 359 437 L 359 440 L 358 440 L 358 442 L 357 442 L 357 445 L 356 445 L 356 447 L 355 447 L 355 450 L 354 450 L 354 452 L 353 452 L 353 455 L 352 455 L 352 457 L 351 457 L 351 459 L 350 459 L 350 462 L 349 462 L 349 464 L 348 464 L 348 467 L 347 467 L 347 469 L 346 469 L 346 471 L 345 471 L 345 474 L 344 474 L 344 476 L 343 476 L 343 479 L 342 479 L 342 481 L 341 481 L 341 483 L 340 483 L 340 485 L 339 485 L 339 487 L 338 487 L 338 490 L 337 490 L 337 492 L 336 492 L 336 494 L 335 494 L 335 497 L 334 497 L 334 499 L 333 499 L 333 501 L 332 501 L 332 503 L 331 503 L 331 506 L 330 506 L 330 508 L 329 508 L 329 510 L 328 510 L 328 512 L 327 512 L 327 514 L 326 514 L 326 517 L 325 517 L 325 519 L 324 519 L 324 521 L 323 521 L 323 523 L 322 523 L 322 525 L 321 525 L 321 527 L 320 527 L 320 529 L 319 529 L 319 531 L 318 531 L 318 534 L 317 534 L 317 536 L 316 536 L 316 538 L 315 538 L 315 540 L 314 540 L 314 542 L 313 542 L 313 544 L 312 544 L 312 546 L 311 546 L 311 547 L 310 547 L 310 549 L 309 549 L 309 551 L 308 551 L 308 553 L 307 553 L 307 555 L 306 555 L 306 557 L 305 557 L 305 559 L 304 559 L 304 561 L 303 561 L 303 563 L 302 563 L 302 565 L 301 565 L 301 566 L 300 566 L 300 568 L 299 568 L 299 570 L 298 570 L 298 572 L 297 572 L 297 573 L 296 573 L 296 575 L 295 575 L 295 577 L 294 577 L 294 578 L 293 578 L 293 580 L 292 580 L 292 582 L 291 582 L 291 583 L 290 583 L 290 585 L 289 585 L 289 587 L 288 587 L 288 588 L 287 588 L 287 590 L 286 590 L 286 592 L 285 592 L 285 593 L 284 593 L 284 595 L 283 595 L 283 596 L 282 596 L 282 598 L 281 598 L 281 599 L 280 599 L 280 601 L 279 601 L 279 602 L 278 602 L 278 604 L 277 604 L 277 605 L 276 605 L 276 607 L 275 607 L 275 608 L 274 608 L 274 610 L 273 610 L 273 611 L 272 611 L 272 613 L 271 613 L 271 614 L 270 614 L 270 615 L 269 615 L 269 617 L 268 617 L 268 618 L 267 618 L 267 620 L 266 620 L 266 621 L 265 621 L 265 622 L 264 622 L 264 624 L 263 624 L 263 625 L 262 625 L 262 626 L 261 626 L 261 627 L 260 627 L 260 629 L 259 629 L 259 630 L 258 630 L 258 631 L 257 631 L 257 633 L 256 633 L 256 634 L 255 634 L 255 635 L 254 635 L 254 636 L 253 636 L 253 637 L 252 637 L 252 639 L 251 639 L 251 640 L 250 640 L 250 641 L 249 641 L 249 642 L 248 642 L 248 643 L 247 643 L 247 644 L 246 644 L 246 645 L 245 645 L 245 646 L 244 646 L 244 647 L 243 647 L 243 649 L 242 649 L 242 650 L 241 650 L 241 651 L 240 651 L 240 652 L 239 652 L 239 653 L 238 653 L 238 654 L 237 654 L 237 655 L 236 655 L 236 656 L 235 656 L 235 657 L 234 657 L 234 658 L 233 658 L 233 659 L 232 659 L 232 660 L 231 660 L 231 661 L 230 661 L 230 662 L 229 662 L 229 663 L 228 663 L 228 664 L 227 664 L 227 665 L 226 665 L 226 666 L 224 666 L 224 668 L 222 668 L 222 669 L 221 669 L 221 670 L 220 670 L 220 671 L 219 671 L 219 672 L 218 672 L 218 673 L 217 673 L 217 674 L 215 674 L 215 675 L 214 675 L 214 676 L 213 676 L 213 677 L 212 677 L 212 678 L 210 678 L 210 679 L 209 679 L 209 680 L 208 680 L 208 681 L 207 681 L 207 682 L 205 682 L 205 683 L 204 683 L 204 684 L 202 684 L 202 685 L 201 685 L 201 686 L 200 686 L 200 687 L 198 687 L 198 688 L 197 688 L 197 689 L 195 689 L 195 690 L 194 690 L 194 691 L 192 691 L 192 692 L 191 692 L 191 693 L 189 693 L 189 694 L 187 694 L 187 695 L 186 695 L 186 696 L 184 696 L 184 697 L 182 697 L 182 698 L 181 698 L 181 699 L 179 699 L 179 700 L 177 700 L 177 701 L 175 701 L 175 702 L 173 702 L 173 703 L 171 703 L 171 704 L 169 704 L 169 705 L 168 705 L 168 706 L 166 706 L 166 707 L 164 707 L 164 708 L 161 708 L 161 709 L 159 709 L 159 710 L 157 710 L 157 711 L 154 711 L 154 712 L 152 712 L 152 713 L 149 713 L 149 714 L 146 714 L 146 715 L 144 715 L 144 716 L 141 716 L 141 717 L 138 717 L 138 718 L 135 718 L 135 719 L 131 719 L 131 720 L 128 720 L 128 721 L 123 721 L 123 722 L 70 722 L 70 721 L 67 721 L 67 720 L 65 720 L 65 719 L 64 719 L 64 718 L 63 718 L 63 717 L 62 717 L 62 716 L 61 716 L 61 715 L 60 715 L 60 714 L 59 714 L 59 713 L 58 713 L 58 712 L 57 712 L 57 711 L 56 711 L 56 710 L 55 710 L 55 709 L 54 709 L 54 707 L 53 707 L 53 705 L 52 705 L 52 703 L 51 703 L 51 700 L 50 700 L 50 697 L 49 697 L 49 692 L 48 692 L 48 683 L 47 683 L 47 670 L 48 670 L 48 657 L 49 657 L 49 651 L 50 651 L 50 647 L 51 647 L 51 643 L 52 643 L 52 640 L 53 640 L 53 637 L 54 637 L 54 634 L 55 634 L 55 632 L 56 632 L 56 629 L 57 629 L 57 627 L 58 627 L 58 624 L 59 624 L 59 622 L 60 622 L 60 620 L 61 620 L 61 618 L 62 618 L 62 616 L 63 616 L 63 614 L 64 614 L 64 612 L 65 612 L 65 610 L 66 610 L 66 608 L 67 608 L 67 606 L 68 606 L 68 604 L 69 604 L 69 602 L 70 602 L 70 601 L 71 601 L 71 599 L 72 599 L 72 597 L 73 597 L 73 595 L 74 595 L 74 594 L 75 594 L 75 592 L 76 592 L 76 590 L 77 590 L 77 588 L 78 588 L 78 587 L 79 587 L 79 585 L 80 585 L 80 583 L 81 583 L 81 582 L 82 582 L 82 580 L 83 580 L 83 579 L 84 579 L 84 577 L 85 577 L 85 576 L 86 576 L 86 574 L 87 574 L 87 573 L 88 573 L 88 571 L 89 571 L 89 570 L 90 570 L 90 568 L 91 568 L 91 567 L 92 567 L 92 566 L 93 566 L 93 564 L 94 564 L 94 563 L 95 563 L 95 561 L 96 561 L 96 560 L 97 560 L 97 559 L 98 559 L 98 557 L 99 557 L 99 556 L 100 556 L 100 555 L 101 555 L 101 553 L 102 553 L 102 552 L 103 552 L 103 551 L 104 551 L 104 549 L 105 549 L 105 548 L 106 548 L 106 547 L 107 547 L 107 546 L 108 546 L 108 545 L 109 545 L 109 543 L 110 543 L 110 542 L 111 542 L 111 541 L 112 541 L 112 540 L 113 540 L 113 539 L 114 539 L 114 538 L 115 538 L 115 537 L 116 537 L 116 536 L 117 536 L 117 534 L 118 534 L 118 533 L 119 533 L 119 532 L 120 532 L 120 531 L 121 531 L 121 530 L 122 530 L 122 529 L 123 529 L 123 528 L 124 528 L 124 527 L 125 527 L 125 526 L 126 526 L 126 525 L 127 525 L 127 524 L 128 524 L 128 523 L 129 523 L 129 522 L 130 522 L 130 521 L 131 521 L 131 520 L 132 520 L 132 519 L 133 519 L 133 518 L 134 518 L 134 517 L 135 517 L 135 516 L 136 516 L 136 515 L 137 515 L 137 514 L 138 514 L 138 513 L 139 513 L 139 512 L 140 512 L 140 511 L 142 511 L 142 510 L 143 510 L 143 509 L 144 509 L 144 508 L 145 508 L 145 507 L 146 507 L 146 506 L 147 506 L 147 505 L 149 505 L 149 504 L 150 504 L 150 503 L 151 503 L 151 502 L 152 502 L 152 501 L 153 501 L 153 500 L 155 500 L 155 499 L 156 499 L 156 498 L 157 498 L 157 497 L 159 497 L 159 496 L 160 496 L 160 495 L 161 495 L 161 494 L 163 494 L 163 493 L 164 493 L 164 492 L 165 492 L 165 491 L 167 491 L 167 490 L 168 490 L 168 489 L 169 489 L 169 488 L 171 488 L 171 487 L 172 487 L 172 486 L 174 486 L 174 485 L 175 485 L 175 484 L 177 484 L 177 483 L 178 483 L 178 482 L 180 482 L 180 481 L 181 481 L 181 480 L 183 480 L 183 479 L 184 479 L 184 478 L 186 478 L 186 477 L 187 477 L 187 476 L 189 476 L 189 475 L 191 475 L 191 474 L 192 474 L 192 473 L 194 473 L 194 472 L 196 472 L 196 471 L 198 471 L 198 470 L 199 470 L 199 469 L 201 469 L 201 468 L 203 468 L 203 467 L 205 467 L 205 466 L 207 466 L 207 465 L 209 465 L 209 464 L 210 464 L 210 463 L 212 463 L 212 462 L 214 462 L 214 461 L 216 461 L 216 460 L 218 460 L 218 459 L 220 459 L 220 458 L 222 458 L 222 457 L 224 457 L 224 456 L 226 456 L 226 455 L 229 455 L 229 454 L 231 454 L 231 453 L 233 453 L 233 452 L 235 452 L 235 451 L 237 451 L 237 450 L 239 450 L 239 449 L 242 449 L 242 448 L 244 448 L 244 447 L 246 447 L 246 446 L 248 446 L 248 445 L 250 445 L 250 444 L 252 444 L 252 443 L 255 443 L 255 447 L 254 447 L 254 448 L 252 448 L 252 449 L 251 449 L 251 450 L 249 450 L 249 451 L 246 451 L 246 452 L 244 452 L 244 453 L 242 453 L 242 454 L 239 454 L 239 455 L 237 455 L 237 456 L 234 456 L 234 457 L 232 457 L 232 458 L 229 458 L 229 459 L 227 459 L 227 460 L 225 460 L 225 461 L 223 461 L 223 462 L 221 462 L 221 463 L 219 463 L 219 464 L 217 464 L 217 465 L 215 465 L 215 466 L 213 466 L 213 467 L 211 467 L 211 468 L 209 468 L 209 469 L 208 469 L 208 470 L 206 470 L 206 471 L 204 471 L 204 472 L 202 472 L 202 473 L 201 473 L 201 474 L 199 474 L 199 475 L 197 475 L 197 476 L 196 476 L 196 477 L 195 477 L 195 478 L 193 478 L 193 479 L 192 479 L 192 480 L 190 480 L 190 481 L 189 481 L 189 482 L 187 482 L 187 483 L 186 483 L 186 484 L 184 484 L 184 485 L 183 485 L 183 486 L 181 486 L 181 487 L 180 487 L 180 488 L 179 488 L 179 489 L 177 489 L 177 490 L 176 490 L 176 491 L 175 491 L 175 492 L 173 492 L 173 493 L 172 493 L 172 494 L 171 494 L 171 495 L 169 495 L 169 496 L 168 496 L 168 497 L 167 497 L 167 498 L 166 498 L 166 499 L 164 499 L 164 500 L 163 500 L 163 501 L 162 501 L 162 502 L 161 502 L 161 503 L 159 503 L 159 504 L 158 504 L 158 505 L 157 505 L 157 506 L 156 506 L 156 507 L 155 507 L 155 508 L 154 508 L 154 509 L 152 509 L 152 510 L 151 510 L 151 511 L 150 511 L 150 512 L 149 512 L 149 513 L 148 513 L 148 514 L 147 514 L 147 515 L 146 515 L 146 516 L 145 516 L 145 517 L 144 517 L 144 518 L 143 518 L 143 519 L 142 519 L 142 520 L 141 520 L 141 521 L 140 521 L 140 522 L 139 522 L 139 523 L 138 523 L 138 524 L 137 524 L 137 525 L 136 525 L 136 526 L 135 526 L 135 527 L 134 527 L 134 528 L 133 528 L 133 529 L 132 529 L 132 530 L 131 530 L 131 531 L 130 531 L 130 532 L 129 532 L 129 533 L 128 533 L 128 534 L 127 534 L 127 535 L 126 535 L 126 536 L 125 536 L 125 538 L 124 538 L 124 539 L 123 539 L 123 540 L 122 540 L 122 541 L 121 541 L 121 542 L 120 542 L 120 543 L 119 543 L 119 545 L 118 545 L 118 546 L 117 546 L 117 547 L 116 547 L 116 548 L 115 548 L 115 549 L 114 549 L 114 551 L 113 551 L 113 552 L 112 552 L 112 553 L 111 553 L 111 554 L 110 554 L 110 556 L 109 556 L 109 557 L 108 557 L 108 558 L 107 558 L 107 560 L 106 560 L 106 561 L 105 561 L 105 563 L 104 563 L 104 564 L 103 564 L 103 565 L 102 565 L 102 567 L 101 567 L 101 568 L 100 568 L 100 570 L 99 570 L 99 571 L 98 571 L 98 573 L 97 573 L 97 574 L 96 574 L 96 576 L 95 576 L 95 578 L 94 578 L 94 579 L 93 579 L 93 581 L 92 581 L 92 583 L 91 583 L 91 584 L 90 584 L 90 586 L 89 586 L 89 588 L 88 588 L 88 590 L 87 590 L 87 592 L 86 592 L 86 594 L 85 594 L 85 596 L 84 596 L 84 598 L 83 598 L 83 600 L 82 600 L 82 602 L 81 602 L 81 604 L 80 604 L 80 607 L 79 607 L 79 609 L 78 609 L 78 612 L 77 612 L 77 614 L 76 614 L 76 617 L 75 617 L 75 620 L 74 620 L 74 623 L 73 623 L 73 626 L 72 626 L 72 629 L 71 629 L 71 633 L 70 633 L 70 637 L 69 637 L 69 642 L 68 642 L 68 646 L 67 646 L 67 653 L 66 653 L 66 680 L 67 680 L 67 686 L 68 686 L 68 689 L 69 689 L 69 693 L 70 693 L 70 696 L 71 696 L 71 699 L 72 699 L 72 701 L 73 701 L 73 703 L 74 703 L 74 704 L 75 704 L 75 706 L 76 706 L 76 708 L 77 708 L 77 709 L 78 709 L 78 710 L 79 710 L 79 711 L 80 711 L 80 712 L 81 712 L 81 713 L 83 713 L 83 714 L 84 714 L 84 715 L 86 715 L 86 716 L 89 716 L 89 717 L 96 717 L 96 718 L 103 718 L 103 717 L 113 717 L 113 716 L 119 716 L 119 715 L 123 715 L 123 714 L 127 714 L 127 713 L 130 713 L 130 712 L 134 712 L 134 711 L 137 711 L 137 710 L 139 710 L 139 709 L 142 709 L 142 708 L 145 708 L 145 707 L 147 707 L 147 706 L 149 706 L 149 705 L 151 705 L 151 704 L 153 704 L 153 703 L 155 703 L 155 702 L 157 702 L 157 701 L 160 701 L 160 700 L 161 700 L 161 699 L 163 699 L 163 698 L 165 698 L 165 697 L 167 697 L 167 696 L 169 696 L 169 695 L 170 695 L 170 694 L 172 694 L 172 693 L 174 693 L 174 692 L 175 692 L 175 691 L 177 691 L 177 690 L 178 690 L 178 689 L 180 689 L 180 688 L 181 688 L 181 687 L 182 687 L 182 686 L 184 686 L 184 685 L 185 685 L 185 684 L 186 684 L 186 683 L 188 683 L 188 682 L 189 682 L 189 681 L 190 681 L 190 680 L 191 680 L 191 679 L 192 679 L 192 678 L 193 678 L 193 677 L 194 677 L 194 676 L 195 676 L 195 675 L 197 675 L 197 674 L 198 674 L 198 673 L 199 673 L 199 671 L 200 671 L 200 670 L 201 670 L 201 669 L 202 669 L 202 668 L 203 668 L 203 667 L 204 667 L 204 666 L 205 666 L 205 665 L 206 665 L 206 664 L 207 664 L 207 663 L 208 663 L 208 661 L 209 661 L 209 660 L 210 660 L 210 659 L 211 659 L 211 658 L 212 658 L 212 656 L 213 656 L 213 655 L 214 655 L 214 654 L 215 654 L 215 652 L 216 652 L 216 651 L 217 651 L 217 650 L 218 650 L 218 648 L 219 648 L 219 647 L 220 647 L 220 645 L 221 645 L 221 644 L 222 644 L 222 642 L 223 642 L 223 641 L 224 641 L 224 639 L 225 639 L 225 637 L 226 637 L 226 636 L 227 636 L 227 634 L 228 634 L 228 633 L 229 633 L 229 631 L 230 631 L 230 629 L 231 629 L 231 627 L 232 627 L 232 626 L 233 626 L 233 624 L 234 624 L 234 622 L 235 622 L 235 620 L 236 620 L 236 618 L 237 618 L 237 616 L 238 616 L 238 615 L 239 615 L 239 613 L 240 613 L 240 611 L 241 611 L 241 609 L 242 609 L 242 607 L 243 607 L 243 605 L 244 605 L 244 603 L 245 603 L 245 601 L 246 601 L 246 599 L 247 599 L 247 597 L 248 597 L 248 594 L 249 594 L 249 593 L 250 593 L 250 590 L 251 590 L 251 588 L 252 588 L 252 586 L 253 586 L 253 584 L 254 584 L 254 581 L 255 581 L 255 579 L 256 579 L 256 577 L 257 577 L 257 575 L 258 575 L 258 572 L 259 572 L 259 570 L 260 570 L 260 568 L 261 568 L 261 565 L 262 565 L 262 563 L 263 563 L 263 561 L 264 561 L 264 558 L 265 558 L 265 556 L 266 556 L 266 553 L 267 553 L 267 551 L 268 551 L 268 548 L 269 548 L 269 546 L 270 546 L 270 543 L 271 543 L 271 541 L 272 541 L 272 538 L 273 538 L 273 536 L 274 536 L 274 533 L 275 533 L 275 531 L 276 531 L 276 528 L 277 528 L 277 526 L 278 526 L 278 523 L 279 523 L 279 521 L 280 521 L 280 518 L 281 518 L 281 516 L 282 516 L 282 513 L 283 513 L 283 511 L 284 511 L 284 508 L 285 508 L 285 506 L 286 506 L 286 504 L 287 504 L 287 501 L 288 501 L 288 499 L 289 499 L 289 497 L 290 497 L 290 494 L 291 494 L 291 492 L 292 492 L 292 489 L 293 489 L 293 487 L 294 487 L 294 485 L 295 485 L 295 483 L 296 483 L 296 481 L 297 481 L 297 478 L 298 478 L 298 476 L 299 476 L 299 474 L 300 474 L 300 471 L 301 471 L 301 469 L 302 469 L 302 467 L 303 467 L 303 465 L 304 465 L 304 463 L 305 463 L 305 460 L 306 460 L 306 458 L 307 458 L 307 456 L 308 456 L 308 454 L 309 454 L 309 452 L 310 452 L 310 449 L 311 449 L 311 447 L 312 447 L 312 445 L 313 445 L 313 443 L 314 443 L 314 441 L 315 441 L 315 439 L 316 439 L 316 436 L 317 436 L 317 434 L 318 434 L 318 432 L 319 432 L 319 430 L 320 430 L 320 428 L 321 428 L 321 426 L 322 426 L 322 424 L 323 424 L 323 422 L 324 422 L 324 420 L 325 420 L 325 418 L 326 418 L 326 416 L 327 416 L 327 414 L 328 414 L 328 412 L 329 412 L 329 410 L 330 410 L 330 408 L 331 408 L 331 406 L 332 406 L 332 404 L 333 404 L 333 402 L 334 402 L 334 400 L 335 400 L 335 398 L 336 398 L 336 396 L 337 396 L 337 394 L 338 394 L 338 392 L 339 392 L 339 391 L 340 391 L 340 389 L 341 389 L 341 387 L 342 387 L 342 385 L 343 385 L 343 383 L 344 383 L 344 382 L 345 382 L 345 380 L 346 380 L 346 378 L 347 378 L 347 376 L 348 376 L 348 374 L 349 374 L 349 372 L 350 372 L 350 371 L 351 371 L 351 369 L 352 369 L 352 367 L 353 367 L 353 365 L 354 365 L 354 364 L 355 364 L 355 362 L 356 362 L 356 360 L 357 360 L 357 358 L 358 358 L 358 356 L 359 356 L 359 355 L 360 355 L 360 353 L 361 353 L 361 351 L 362 351 L 362 350 L 363 350 L 363 348 L 364 348 L 364 346 L 365 346 L 365 345 L 366 345 L 366 343 L 367 343 L 367 341 L 368 341 L 368 340 L 369 340 L 369 338 L 370 338 L 370 336 L 371 336 L 371 335 L 372 335 L 372 333 L 373 333 L 373 332 L 374 332 L 374 330 L 375 330 L 375 328 L 376 328 L 376 327 L 377 327 L 377 325 L 378 325 L 378 324 L 379 324 L 379 322 L 380 322 L 380 321 L 381 321 L 381 319 L 382 319 L 382 317 L 383 317 L 383 316 L 384 316 L 384 314 L 385 314 L 385 313 L 386 313 L 386 312 L 387 312 L 387 310 L 388 310 L 388 309 L 389 309 L 389 307 L 390 307 L 390 306 L 391 306 L 391 304 L 392 304 L 392 303 L 393 303 L 393 301 L 394 301 L 394 300 L 395 300 L 395 299 L 396 299 L 396 297 L 397 297 L 397 296 L 398 296 L 398 294 L 399 294 L 399 293 L 400 293 L 400 292 L 401 292 L 401 290 L 402 290 L 402 289 L 403 289 L 403 287 L 404 287 L 404 286 L 405 286 L 405 285 L 406 285 L 406 283 L 407 283 L 407 282 L 408 282 L 408 281 L 409 281 L 409 279 L 410 279 L 410 278 L 411 278 L 411 277 L 412 277 L 412 275 L 413 275 L 413 274 L 414 274 L 414 273 L 415 273 L 415 271 L 416 271 L 416 270 L 417 270 L 417 269 L 418 269 L 418 268 L 419 268 L 419 266 L 420 266 L 420 265 L 421 265 L 421 264 L 422 264 L 422 263 L 423 263 L 423 261 L 424 261 L 424 260 L 425 260 L 425 259 L 426 259 L 426 258 L 427 258 L 427 257 L 428 257 L 428 255 L 429 255 L 429 254 L 430 254 L 430 253 L 431 253 L 431 252 L 432 252 L 432 251 L 433 251 L 433 250 L 434 250 L 434 248 L 435 248 L 435 247 L 436 247 L 436 246 L 437 246 L 437 245 L 438 245 L 438 244 L 439 244 L 439 243 L 440 243 L 440 242 L 441 242 L 441 241 L 442 241 L 442 239 L 443 239 L 443 238 L 444 238 L 444 237 L 445 237 L 445 236 L 446 236 L 446 235 L 447 235 L 447 234 L 448 234 L 448 233 L 449 233 L 449 232 L 450 232 L 450 231 L 451 231 L 451 230 L 452 230 L 452 229 L 453 229 L 453 228 L 454 228 L 454 227 L 455 227 L 455 226 L 456 226 L 456 225 L 457 225 L 457 224 L 458 224 L 458 223 L 459 223 L 459 222 L 460 222 L 460 221 L 461 221 L 461 220 L 462 220 L 462 219 L 463 219 L 463 218 L 464 218 L 464 217 L 465 217 L 465 216 L 466 216 L 466 215 L 467 215 L 467 214 L 468 214 L 468 213 L 469 213 L 469 212 L 470 212 L 470 211 L 471 211 L 471 210 L 472 210 L 472 209 L 473 209 L 473 208 L 474 208 L 474 207 L 475 207 L 475 206 L 477 206 L 477 205 L 478 205 L 478 204 L 479 204 L 479 203 L 480 203 L 480 202 L 481 202 L 481 201 L 482 201 L 482 200 L 484 200 L 484 199 L 485 199 L 485 198 L 486 198 L 486 197 L 487 197 L 487 196 L 489 196 L 489 195 L 490 195 L 490 194 L 491 194 L 491 193 L 493 193 L 493 192 L 494 192 L 494 191 L 495 191 L 495 190 L 497 190 L 497 189 L 498 189 L 498 188 L 500 188 L 500 187 L 501 187 L 501 186 L 502 186 L 502 185 L 504 185 L 504 184 L 505 184 L 505 183 L 507 183 L 507 182 L 509 182 L 509 181 L 510 181 L 510 180 L 512 180 L 512 179 L 513 179 L 513 178 L 515 178 L 515 177 L 517 177 L 517 176 L 518 176 L 518 175 L 520 175 L 520 174 L 522 174 L 522 173 L 524 173 L 524 172 L 526 172 L 526 171 L 527 171 L 527 170 L 529 170 L 529 169 L 531 169 L 531 168 L 533 168 L 533 167 L 535 167 L 535 166 L 538 166 L 538 165 L 540 165 L 540 164 L 542 164 L 542 163 L 544 163 L 544 162 L 547 162 L 547 161 L 549 161 L 549 160 L 552 160 L 552 159 L 555 159 L 555 158 L 558 158 L 558 157 L 561 157 L 561 156 L 564 156 L 564 155 L 568 155 L 568 154 L 572 154 L 572 153 L 577 153 L 577 152 L 584 152 Z" fill="currentColor" transform="translate(8.000, 1.500) scale(0.040000)"/>
  <text x="48" y="22.5" font-family="'Space Grotesk', sans-serif" font-weight="700" font-size="14.5" fill="currentColor" letter-spacing="0.08em">Skycity</text>
</svg>