<svg viewBox="0 0 94 35" fill="none" xmlns="http://www.w3.org/2000/svg">
  <path d="M 60 7 L 76 7 L 76 9 L 75 9 L 75 11 L 74 11 L 74 12 L 61 12 L 61 13 L 58 13 L 58 14 L 57 14 L 57 15 L 56 15 L 56 17 L 55 17 L 55 19 L 65 19 L 65 18 L 68 18 L 68 22 L 67 22 L 67 24 L 53 24 L 53 26 L 52 26 L 52 28 L 51 28 L 51 31 L 50 31 L 50 34 L 49 34 L 49 36 L 48 36 L 48 39 L 47 39 L 47 42 L 46 42 L 46 45 L 45 45 L 45 46 L 40 46 L 40 43 L 41 43 L 41 40 L 42 40 L 42 37 L 43 37 L 43 34 L 44 34 L 44 31 L 45 31 L 45 29 L 46 29 L 46 26 L 47 26 L 47 23 L 48 23 L 48 20 L 49 20 L 49 17 L 50 17 L 50 16 L 51 16 L 51 14 L 52 14 L 52 12 L 53 12 L 53 11 L 54 11 L 54 10 L 55 10 L 55 9 L 57 9 L 57 8 L 60 8 Z M 25 8 L 33 8 L 33 9 L 34 9 L 34 10 L 31 10 L 31 11 L 29 11 L 29 12 L 28 12 L 28 13 L 26 13 L 26 14 L 25 14 L 25 16 L 24 16 L 24 17 L 23 17 L 23 19 L 22 19 L 22 20 L 21 20 L 21 22 L 20 22 L 20 24 L 23 24 L 23 23 L 26 23 L 26 22 L 27 22 L 27 20 L 28 20 L 28 18 L 29 18 L 29 16 L 30 16 L 30 15 L 31 15 L 31 13 L 32 13 L 32 12 L 33 12 L 33 11 L 34 11 L 34 10 L 35 10 L 35 11 L 36 11 L 36 13 L 37 13 L 37 22 L 36 22 L 36 26 L 35 26 L 35 29 L 34 29 L 34 30 L 33 30 L 33 32 L 32 32 L 32 34 L 31 34 L 31 36 L 30 36 L 30 37 L 29 37 L 29 38 L 28 38 L 28 39 L 27 39 L 27 40 L 26 40 L 26 41 L 25 41 L 25 42 L 24 42 L 24 43 L 22 43 L 22 44 L 20 44 L 20 45 L 18 45 L 18 46 L 12 46 L 12 45 L 11 45 L 11 44 L 10 44 L 10 43 L 9 43 L 9 42 L 8 42 L 8 40 L 7 40 L 7 34 L 8 34 L 8 32 L 10 32 L 10 31 L 11 31 L 11 30 L 13 30 L 13 29 L 14 29 L 14 28 L 15 28 L 15 27 L 9 27 L 9 26 L 10 26 L 10 23 L 11 23 L 11 22 L 12 22 L 12 20 L 13 20 L 13 18 L 14 18 L 14 17 L 15 17 L 15 16 L 16 16 L 16 15 L 17 15 L 17 14 L 18 14 L 18 13 L 19 13 L 19 12 L 20 12 L 20 11 L 21 11 L 21 10 L 23 10 L 23 9 L 25 9 Z M 171 8 L 172 8 L 172 10 L 170 10 L 170 11 L 168 11 L 168 12 L 167 12 L 167 13 L 166 13 L 166 14 L 165 14 L 165 16 L 164 16 L 164 17 L 163 17 L 163 18 L 168 18 L 168 21 L 167 21 L 167 23 L 166 23 L 166 24 L 161 24 L 161 25 L 160 25 L 160 28 L 159 28 L 159 31 L 158 31 L 158 34 L 157 34 L 157 36 L 156 36 L 156 40 L 155 40 L 155 42 L 154 42 L 154 45 L 153 45 L 153 46 L 148 46 L 148 44 L 149 44 L 149 41 L 150 41 L 150 38 L 151 38 L 151 35 L 152 35 L 152 32 L 153 32 L 153 29 L 154 29 L 154 27 L 155 27 L 155 24 L 141 24 L 141 20 L 142 20 L 142 19 L 143 19 L 143 18 L 158 18 L 158 17 L 159 17 L 159 15 L 160 15 L 160 14 L 161 14 L 161 13 L 162 13 L 162 12 L 164 12 L 164 11 L 165 11 L 165 10 L 167 10 L 167 9 L 171 9 Z M 72 18 L 133 18 L 133 20 L 132 20 L 132 23 L 131 23 L 131 24 L 70 24 L 70 21 L 71 21 L 71 19 L 72 19 Z M 171 18 L 175 18 L 175 19 L 176 19 L 176 20 L 175 20 L 175 22 L 174 22 L 174 24 L 168 24 L 168 23 L 169 23 L 169 21 L 170 21 L 170 19 L 171 19 Z M 134 19 L 140 19 L 140 21 L 139 21 L 139 24 L 138 24 L 138 26 L 137 26 L 137 29 L 136 29 L 136 32 L 137 32 L 137 31 L 138 31 L 138 30 L 139 30 L 139 29 L 141 29 L 141 28 L 142 28 L 142 27 L 143 27 L 143 26 L 144 26 L 144 25 L 150 25 L 150 26 L 149 26 L 149 27 L 148 27 L 148 28 L 147 28 L 147 29 L 145 29 L 145 30 L 144 30 L 144 31 L 143 31 L 143 32 L 141 32 L 141 33 L 143 33 L 143 34 L 145 34 L 145 39 L 144 39 L 144 43 L 143 43 L 143 45 L 142 45 L 142 46 L 137 46 L 137 44 L 138 44 L 138 41 L 139 41 L 139 38 L 133 38 L 133 41 L 132 41 L 132 44 L 131 44 L 131 46 L 125 46 L 125 45 L 126 45 L 126 42 L 127 42 L 127 39 L 128 39 L 128 36 L 129 36 L 129 34 L 130 34 L 130 31 L 131 31 L 131 28 L 132 28 L 132 25 L 133 25 L 133 22 L 134 22 Z M 69 25 L 80 25 L 80 26 L 82 26 L 82 27 L 83 27 L 83 31 L 82 31 L 82 34 L 81 34 L 81 35 L 76 35 L 76 33 L 77 33 L 77 30 L 73 30 L 73 32 L 72 32 L 72 35 L 71 35 L 71 37 L 70 37 L 70 40 L 69 40 L 69 43 L 68 43 L 68 46 L 62 46 L 62 44 L 63 44 L 63 41 L 64 41 L 64 39 L 65 39 L 65 36 L 66 36 L 66 33 L 67 33 L 67 30 L 68 30 L 68 27 L 69 27 Z M 87 25 L 101 25 L 101 26 L 102 26 L 102 27 L 103 27 L 103 33 L 102 33 L 102 36 L 101 36 L 101 39 L 100 39 L 100 42 L 99 42 L 99 45 L 98 45 L 98 46 L 82 46 L 82 45 L 81 45 L 81 44 L 80 44 L 80 40 L 81 40 L 81 38 L 82 38 L 82 37 L 83 37 L 83 35 L 85 35 L 85 34 L 88 34 L 88 33 L 97 33 L 97 30 L 86 30 L 86 27 L 87 27 Z M 110 25 L 124 25 L 124 26 L 125 26 L 125 28 L 126 28 L 126 32 L 125 32 L 125 35 L 124 35 L 124 38 L 123 38 L 123 41 L 122 41 L 122 43 L 121 43 L 121 46 L 115 46 L 115 45 L 116 45 L 116 42 L 117 42 L 117 39 L 118 39 L 118 36 L 119 36 L 119 33 L 120 33 L 120 30 L 114 30 L 114 31 L 113 31 L 113 34 L 112 34 L 112 37 L 111 37 L 111 39 L 110 39 L 110 42 L 109 42 L 109 45 L 108 45 L 108 46 L 103 46 L 103 44 L 104 44 L 104 41 L 105 41 L 105 38 L 106 38 L 106 35 L 107 35 L 107 32 L 108 32 L 108 29 L 109 29 L 109 26 L 110 26 Z M 168 25 L 173 25 L 173 28 L 172 28 L 172 31 L 171 31 L 171 34 L 170 34 L 170 36 L 169 36 L 169 39 L 168 39 L 168 42 L 167 42 L 167 45 L 166 45 L 166 46 L 161 46 L 161 44 L 162 44 L 162 41 L 163 41 L 163 38 L 164 38 L 164 35 L 165 35 L 165 32 L 166 32 L 166 29 L 167 29 L 167 27 L 168 27 Z M 178 25 L 192 25 L 192 26 L 193 26 L 193 27 L 194 27 L 194 33 L 193 33 L 193 35 L 192 35 L 192 39 L 191 39 L 191 41 L 190 41 L 190 45 L 189 45 L 189 46 L 184 46 L 184 43 L 185 43 L 185 40 L 186 40 L 186 37 L 187 37 L 187 34 L 188 34 L 188 30 L 182 30 L 182 32 L 181 32 L 181 34 L 180 34 L 180 38 L 179 38 L 179 40 L 178 40 L 178 43 L 177 43 L 177 46 L 171 46 L 171 44 L 172 44 L 172 41 L 173 41 L 173 39 L 174 39 L 174 36 L 175 36 L 175 33 L 176 33 L 176 30 L 177 30 L 177 27 L 178 27 Z M 201 25 L 214 25 L 214 26 L 216 26 L 216 34 L 215 34 L 215 37 L 214 37 L 214 40 L 213 40 L 213 44 L 214 44 L 214 45 L 215 45 L 215 46 L 206 46 L 206 44 L 207 44 L 207 41 L 208 41 L 208 38 L 209 38 L 209 35 L 210 35 L 210 32 L 211 32 L 211 30 L 204 30 L 204 33 L 203 33 L 203 36 L 202 36 L 202 39 L 201 39 L 201 41 L 200 41 L 200 45 L 199 45 L 199 46 L 194 46 L 194 43 L 195 43 L 195 40 L 196 40 L 196 37 L 197 37 L 197 34 L 198 34 L 198 32 L 199 32 L 199 28 L 200 28 L 200 26 L 201 26 Z M 22 27 L 22 28 L 19 28 L 19 29 L 18 29 L 18 30 L 17 30 L 17 32 L 16 32 L 16 34 L 15 34 L 15 36 L 14 36 L 14 38 L 13 38 L 13 39 L 12 39 L 12 40 L 11 40 L 11 41 L 10 41 L 10 42 L 13 42 L 13 41 L 15 41 L 15 40 L 16 40 L 16 39 L 17 39 L 17 38 L 18 38 L 18 37 L 19 37 L 19 36 L 20 36 L 20 34 L 21 34 L 21 32 L 22 32 L 22 31 L 23 31 L 23 29 L 24 29 L 24 27 Z M 87 38 L 87 39 L 86 39 L 86 41 L 94 41 L 94 40 L 95 40 L 95 38 Z M 38 51 L 40 51 L 40 52 L 39 52 L 39 55 L 38 55 L 38 58 L 37 58 L 37 59 L 36 59 L 36 56 L 37 56 L 37 53 L 38 53 Z M 41 51 L 43 51 L 43 54 L 45 54 L 45 51 L 47 51 L 47 53 L 46 53 L 46 56 L 45 56 L 45 58 L 44 58 L 44 59 L 43 59 L 43 56 L 41 56 L 41 58 L 40 58 L 40 59 L 39 59 L 39 57 L 40 57 L 40 54 L 41 54 Z M 49 51 L 53 51 L 53 52 L 52 52 L 52 53 L 51 53 L 51 52 L 50 52 L 50 53 L 49 53 L 49 54 L 51 54 L 51 55 L 52 55 L 52 57 L 51 57 L 51 58 L 50 58 L 50 59 L 46 59 L 46 57 L 50 57 L 50 56 L 49 56 L 49 55 L 47 55 L 47 53 L 48 53 L 48 52 L 49 52 Z M 54 51 L 59 51 L 59 52 L 58 52 L 58 53 L 57 53 L 57 54 L 56 54 L 56 57 L 55 57 L 55 59 L 54 59 L 54 58 L 53 58 L 53 57 L 54 57 L 54 55 L 55 55 L 55 53 L 54 53 Z M 60 51 L 62 51 L 62 53 L 61 53 L 61 56 L 60 56 L 60 58 L 59 58 L 59 59 L 58 59 L 58 56 L 59 56 L 59 53 L 60 53 Z M 63 51 L 68 51 L 68 52 L 67 52 L 67 53 L 66 53 L 66 54 L 65 54 L 65 57 L 64 57 L 64 59 L 62 59 L 62 57 L 63 57 L 63 54 L 64 54 L 64 52 L 63 52 Z M 68 52 L 69 52 L 69 51 L 71 51 L 71 52 L 70 52 L 70 55 L 69 55 L 69 57 L 71 57 L 71 55 L 72 55 L 72 52 L 73 52 L 73 51 L 74 51 L 74 54 L 73 54 L 73 57 L 72 57 L 72 58 L 71 58 L 71 59 L 68 59 L 68 58 L 67 58 L 67 56 L 68 56 Z M 75 51 L 80 51 L 80 53 L 78 53 L 78 56 L 77 56 L 77 58 L 76 58 L 76 59 L 75 59 L 75 56 L 76 56 L 76 52 L 75 52 Z M 82 51 L 86 51 L 86 53 L 84 53 L 84 52 L 83 52 L 83 54 L 85 54 L 85 55 L 84 55 L 84 56 L 83 56 L 83 55 L 82 55 L 82 57 L 84 57 L 84 59 L 79 59 L 79 57 L 80 57 L 80 54 L 81 54 L 81 52 L 82 52 Z M 91 51 L 94 51 L 94 52 L 95 52 L 95 54 L 94 54 L 94 56 L 93 56 L 93 58 L 92 58 L 92 59 L 89 59 L 89 58 L 88 58 L 88 55 L 89 55 L 89 53 L 90 53 L 90 52 L 91 52 Z M 93 52 L 92 52 L 92 53 L 91 53 L 91 55 L 90 55 L 90 57 L 92 57 L 92 54 L 93 54 Z M 97 51 L 102 51 L 102 52 L 101 52 L 101 53 L 99 53 L 99 52 L 98 52 L 98 54 L 100 54 L 100 55 L 99 55 L 99 56 L 97 56 L 97 57 L 96 57 L 96 59 L 94 59 L 94 57 L 95 57 L 95 55 L 96 55 L 96 52 L 97 52 Z M 106 51 L 108 51 L 108 59 L 107 59 L 107 58 L 106 58 L 106 57 L 104 57 L 104 58 L 103 58 L 103 59 L 102 59 L 102 57 L 103 57 L 103 56 L 104 56 L 104 54 L 105 54 L 105 53 L 106 53 Z M 111 51 L 113 51 L 113 53 L 112 53 L 112 56 L 111 56 L 111 59 L 109 59 L 109 57 L 110 57 L 110 54 L 111 54 Z M 115 51 L 119 51 L 119 52 L 120 52 L 120 53 L 119 53 L 119 55 L 118 55 L 118 59 L 116 59 L 116 56 L 115 56 L 115 57 L 114 57 L 114 59 L 112 59 L 112 57 L 113 57 L 113 55 L 114 55 L 114 52 L 115 52 Z M 117 52 L 116 52 L 116 54 L 117 54 Z M 124 51 L 125 51 L 125 54 L 127 54 L 127 51 L 129 51 L 129 53 L 128 53 L 128 56 L 127 56 L 127 59 L 125 59 L 125 57 L 126 57 L 126 56 L 125 56 L 125 55 L 124 55 L 124 57 L 123 57 L 123 59 L 122 59 L 122 58 L 121 58 L 121 57 L 122 57 L 122 55 L 123 55 L 123 52 L 124 52 Z M 131 51 L 135 51 L 135 55 L 134 55 L 134 57 L 133 57 L 133 58 L 132 58 L 132 59 L 130 59 L 130 58 L 129 58 L 129 54 L 130 54 L 130 52 L 131 52 Z M 133 52 L 132 52 L 132 54 L 131 54 L 131 57 L 132 57 L 132 56 L 133 56 Z M 137 51 L 141 51 L 141 53 L 139 53 L 139 52 L 138 52 L 138 54 L 140 54 L 140 58 L 138 58 L 138 59 L 135 59 L 135 57 L 138 57 L 138 55 L 136 55 L 136 52 L 137 52 Z M 142 51 L 148 51 L 148 52 L 146 52 L 146 53 L 145 53 L 145 56 L 144 56 L 144 58 L 143 58 L 143 59 L 142 59 L 142 56 L 143 56 L 143 54 L 144 54 L 144 53 L 143 53 L 143 52 L 142 52 Z M 148 52 L 149 52 L 149 51 L 154 51 L 154 52 L 153 52 L 153 53 L 152 53 L 152 52 L 150 52 L 150 54 L 152 54 L 152 55 L 151 55 L 151 56 L 150 56 L 150 55 L 149 55 L 149 57 L 151 57 L 151 59 L 146 59 L 146 57 L 147 57 L 147 55 L 148 55 Z M 154 52 L 155 52 L 155 51 L 159 51 L 159 53 L 157 53 L 157 52 L 156 52 L 156 54 L 158 54 L 158 57 L 157 57 L 157 58 L 156 58 L 156 59 L 153 59 L 153 57 L 156 57 L 156 55 L 154 55 Z M 161 51 L 165 51 L 165 53 L 163 53 L 163 52 L 162 52 L 162 54 L 164 54 L 164 57 L 163 57 L 163 58 L 162 58 L 162 59 L 159 59 L 159 58 L 158 58 L 158 57 L 162 57 L 162 55 L 160 55 L 160 52 L 161 52 Z M 169 51 L 174 51 L 174 52 L 173 52 L 173 53 L 172 53 L 172 54 L 171 54 L 171 57 L 170 57 L 170 59 L 168 59 L 168 57 L 169 57 L 169 54 L 170 54 L 170 53 L 169 53 Z M 175 51 L 180 51 L 180 54 L 179 54 L 179 55 L 178 55 L 178 59 L 176 59 L 176 56 L 175 56 L 175 58 L 174 58 L 174 59 L 173 59 L 173 55 L 174 55 L 174 53 L 175 53 Z M 178 52 L 177 52 L 177 53 L 176 53 L 176 54 L 178 54 Z M 183 51 L 185 51 L 185 59 L 183 59 L 183 57 L 181 57 L 181 58 L 180 58 L 180 59 L 179 59 L 179 57 L 180 57 L 180 55 L 181 55 L 181 54 L 182 54 L 182 52 L 183 52 Z M 188 51 L 190 51 L 190 52 L 189 52 L 189 55 L 188 55 L 188 58 L 187 58 L 187 59 L 186 59 L 186 56 L 187 56 L 187 52 L 188 52 Z M 191 51 L 193 51 L 193 54 L 194 54 L 194 53 L 195 53 L 195 51 L 197 51 L 197 52 L 196 52 L 196 55 L 195 55 L 195 58 L 194 58 L 194 59 L 193 59 L 193 57 L 192 57 L 192 55 L 191 55 L 191 58 L 190 58 L 190 59 L 189 59 L 189 56 L 190 56 L 190 53 L 191 53 Z M 198 51 L 200 51 L 200 53 L 199 53 L 199 56 L 198 56 L 198 58 L 197 58 L 197 59 L 196 59 L 196 57 L 197 57 L 197 54 L 198 54 Z M 201 51 L 203 51 L 203 52 L 204 52 L 204 54 L 205 54 L 205 51 L 207 51 L 207 53 L 206 53 L 206 56 L 205 56 L 205 59 L 203 59 L 203 56 L 201 56 L 201 59 L 199 59 L 199 57 L 200 57 L 200 54 L 201 54 Z M 209 51 L 213 51 L 213 53 L 211 53 L 211 52 L 210 52 L 210 54 L 209 54 L 209 56 L 208 56 L 208 57 L 210 57 L 210 54 L 212 54 L 212 55 L 213 55 L 213 56 L 212 56 L 212 57 L 211 57 L 211 58 L 210 58 L 210 59 L 208 59 L 208 58 L 207 58 L 207 54 L 208 54 L 208 52 L 209 52 Z M 107 55 L 106 55 L 106 56 L 107 56 Z M 183 55 L 182 55 L 182 56 L 183 56 Z M 235 58 L 236 58 L 236 60 L 235 60 L 235 62 L 234 62 L 234 64 L 233 64 L 233 61 L 234 61 L 234 59 L 235 59 Z M 238 58 L 239 58 L 239 59 L 238 59 Z M 226 60 L 227 60 L 227 61 L 226 61 Z M 226 61 L 226 62 L 224 62 L 224 63 L 222 63 L 222 62 L 223 62 L 223 61 Z M 197 62 L 199 62 L 199 65 L 197 65 L 197 66 L 196 66 L 196 68 L 195 68 L 195 70 L 197 70 L 197 69 L 198 69 L 198 67 L 199 67 L 199 65 L 200 65 L 200 64 L 201 64 L 201 67 L 200 67 L 200 68 L 199 68 L 199 71 L 198 71 L 198 75 L 199 75 L 199 74 L 200 74 L 200 73 L 201 73 L 201 72 L 202 72 L 202 70 L 204 70 L 204 71 L 203 71 L 203 74 L 202 74 L 202 75 L 200 75 L 200 76 L 204 76 L 204 72 L 205 72 L 205 71 L 206 71 L 206 69 L 207 69 L 207 68 L 208 68 L 208 67 L 210 67 L 210 69 L 208 69 L 208 71 L 207 71 L 207 72 L 206 72 L 206 74 L 205 74 L 205 75 L 210 75 L 210 74 L 216 74 L 216 73 L 217 73 L 217 69 L 216 69 L 216 68 L 215 68 L 215 69 L 216 69 L 216 70 L 215 70 L 215 72 L 214 72 L 214 73 L 213 73 L 213 69 L 214 69 L 214 66 L 215 66 L 215 64 L 216 64 L 216 62 L 218 62 L 218 63 L 217 63 L 217 66 L 216 66 L 216 68 L 217 68 L 217 67 L 219 67 L 219 68 L 218 68 L 218 74 L 220 74 L 220 73 L 221 73 L 221 72 L 222 72 L 222 74 L 221 74 L 221 75 L 215 75 L 215 76 L 207 76 L 207 77 L 204 77 L 204 79 L 203 79 L 203 80 L 202 80 L 202 78 L 203 78 L 203 77 L 201 77 L 201 78 L 195 78 L 195 79 L 192 79 L 192 81 L 191 81 L 191 80 L 188 80 L 188 81 L 187 81 L 187 83 L 188 83 L 188 84 L 186 84 L 186 83 L 185 83 L 185 82 L 184 82 L 184 81 L 185 81 L 185 80 L 187 80 L 187 79 L 189 79 L 189 78 L 191 78 L 191 77 L 192 77 L 192 74 L 193 74 L 193 72 L 192 72 L 192 71 L 193 71 L 193 70 L 194 70 L 194 67 L 195 67 L 195 65 L 196 65 L 196 63 L 197 63 Z M 229 63 L 231 63 L 231 65 L 230 65 L 230 68 L 229 68 L 229 72 L 228 72 L 228 73 L 232 73 L 232 74 L 227 74 L 227 76 L 226 76 L 226 73 L 227 73 L 227 71 L 225 71 L 225 72 L 224 72 L 224 71 L 220 71 L 220 70 L 219 70 L 219 69 L 220 69 L 220 67 L 221 67 L 221 65 L 223 65 L 223 66 L 222 66 L 222 68 L 221 68 L 221 70 L 223 70 L 223 69 L 224 69 L 224 68 L 225 68 L 225 67 L 226 67 L 226 66 L 227 66 L 227 65 L 228 65 L 228 64 L 229 64 Z M 234 64 L 235 64 L 235 63 L 237 63 L 237 65 L 234 65 Z M 233 64 L 233 65 L 234 65 L 234 67 L 233 67 L 233 68 L 231 68 L 231 67 L 232 67 L 232 64 Z M 229 65 L 228 65 L 228 66 L 227 66 L 227 67 L 226 67 L 226 69 L 225 69 L 225 70 L 226 70 L 226 69 L 227 69 L 227 68 L 228 68 L 228 67 L 229 67 Z M 235 66 L 236 66 L 236 67 L 235 67 Z M 235 68 L 236 68 L 236 69 L 235 69 Z M 236 69 L 237 69 L 237 70 L 238 70 L 238 69 L 239 69 L 239 68 L 241 68 L 241 69 L 240 69 L 240 70 L 238 70 L 238 71 L 236 71 Z M 228 70 L 227 70 L 227 71 L 228 71 Z M 195 71 L 195 72 L 194 72 L 194 75 L 193 75 L 193 77 L 197 77 L 197 71 Z M 224 73 L 225 73 L 225 74 L 224 74 Z M 226 76 L 226 77 L 225 77 L 225 76 Z M 225 77 L 225 79 L 224 79 L 224 80 L 222 80 L 222 81 L 220 81 L 220 80 L 218 80 L 218 79 L 220 79 L 220 80 L 221 80 L 221 79 L 223 79 L 223 78 L 224 78 L 224 77 Z M 202 80 L 202 82 L 201 82 L 201 80 Z M 194 81 L 195 81 L 195 82 L 196 82 L 196 83 L 200 83 L 200 82 L 201 82 L 201 83 L 200 83 L 200 84 L 199 84 L 199 85 L 196 85 L 196 84 L 195 84 L 195 83 L 194 83 Z M 188 84 L 191 84 L 191 85 L 188 85 Z" fill="currentColor" transform="translate(4.000, 1.500) scale(0.347826)"/>
</svg>